<svg width="200" height="66" viewBox="0 0 200 66" fill="none" xmlns="http://www.w3.org/2000/svg">
<g clip-path="url(#clip0_287_5901)">
<path d="M27.8255 8.4335C27.7282 8.87939 27.4809 9.27837 27.125 9.56372C26.769 9.84907 26.3259 10.0035 25.8697 10.0012C25.7156 9.99909 25.5622 9.97989 25.4122 9.94398C25.2979 9.91793 25.1867 9.87955 25.0806 9.82953C25.0103 9.80678 24.9445 9.77194 24.8862 9.72656C24.7326 9.65242 24.5932 9.55172 24.4745 9.42911C24.4631 9.42911 24.4631 9.42911 24.4516 9.40616H24.4401L24.3715 9.33751C24.3524 9.31745 24.337 9.29422 24.3258 9.26886C24.2885 9.23665 24.2575 9.19786 24.2343 9.15441C24.2041 9.12296 24.1773 9.08845 24.1542 9.05144C24.1345 9.0234 24.119 8.99254 24.1085 8.95989C24.1023 8.95372 24.0983 8.94567 24.0971 8.93699C24.039 8.84962 23.9964 8.75283 23.9713 8.65092C23.9599 8.63955 23.9599 8.63955 23.9599 8.62807C23.9326 8.56664 23.9171 8.50065 23.9141 8.4335C23.8918 8.37903 23.8802 8.32078 23.8798 8.26193C23.8361 8.01889 23.8439 7.76936 23.9027 7.52954C24.003 7.08315 24.2527 6.68443 24.6103 6.39936C24.968 6.11429 25.4123 5.95996 25.8695 5.96193C26.0237 5.96474 26.1772 5.9839 26.3273 6.01911C26.5841 6.07915 26.8267 6.18924 27.041 6.34308C27.2553 6.49693 27.4372 6.69152 27.5764 6.91573C27.7155 7.13995 27.8091 7.38939 27.8519 7.64982C27.8946 7.91024 27.8856 8.17654 27.8255 8.4335Z" fill="white"/>
<path d="M25.4857 9.62776C25.8115 9.70337 26.1523 9.68063 26.4652 9.56241C26.778 9.4442 27.0488 9.23582 27.2433 8.96363C27.4378 8.69144 27.5472 8.36766 27.5578 8.03323C27.5683 7.69881 27.4796 7.36876 27.3026 7.08483C27.1257 6.8009 26.8686 6.57583 26.5639 6.43809C26.2591 6.30035 25.9204 6.25612 25.5905 6.311C25.2606 6.36588 24.9544 6.5174 24.7106 6.7464C24.4667 6.9754 24.2963 7.27159 24.2207 7.59753C24.1194 8.03459 24.1958 8.49401 24.433 8.87474C24.6702 9.25547 25.0489 9.52634 25.4857 9.62776Z" fill="white"/>
<path d="M16.4231 40.9421L11.6996 45.668L21.1465 55.1198L21.1351 55.1312L25.8813 59.8799L25.9842 59.9829L51.7396 34.2025V38.7453L25.8926 64.617L6.95369 45.6681L9.2982 43.3108L14.0444 38.5736L16.4232 36.1934L25.8701 45.6453L43.8714 27.6345L43.8943 27.623L48.3545 23.1488V4.32565C48.355 4.20227 48.331 4.08004 48.284 3.96597C48.237 3.85191 48.168 3.74827 48.0808 3.66104C47.9936 3.5738 47.89 3.50469 47.776 3.45769C47.662 3.41068 47.5398 3.38671 47.4165 3.38716H4.31165C4.06328 3.38827 3.8254 3.48747 3.64977 3.66319C3.47414 3.8389 3.37498 4.0769 3.37385 4.32539V34.3468L4.08577e-06 37.7225V4.32539C-0.000775916 3.75812 0.110132 3.19625 0.326395 2.67186C0.542659 2.14748 0.860041 1.67085 1.26042 1.2692C1.6608 0.867541 2.13633 0.548726 2.65986 0.330956C3.18339 0.113187 3.74467 0.000727889 4.31165 1.35632e-06H47.4165C47.9843 -0.00044873 48.5467 0.111124 49.0714 0.328337C49.5961 0.545551 50.0728 0.864141 50.4744 1.26588C50.8759 1.66762 51.1943 2.14463 51.4114 2.66961C51.6285 3.1946 51.74 3.75725 51.7395 4.32539V24.5103L48.3541 27.8975L46.2613 29.9912L46.2385 30.0141L43.8941 32.3717L43.8712 32.3832L25.8699 50.394L16.4231 40.9421Z" fill="#00A3A0"/>
<path d="M73.2752 60.1436C73.369 60.1436 73.4164 60.186 73.4164 60.2704V61.9779C73.4192 61.9971 73.4174 62.0166 73.4113 62.035C73.4051 62.0534 73.3948 62.0701 73.3811 62.0838C73.3674 62.0975 73.3507 62.1079 73.3323 62.114C73.3139 62.1202 73.2944 62.122 73.2752 62.1192C71.8281 62.1444 70.4072 61.7311 69.1992 60.9336C68.9172 61.094 68.715 61.207 68.5927 61.2727C68.4704 61.3385 68.3012 61.4372 68.0851 61.5689C67.9253 61.6617 67.7721 61.7655 67.6267 61.8795C67.5372 61.955 67.4362 62.049 67.3234 62.1617C67.2241 62.2551 67.1448 62.3679 67.0905 62.493C67.0486 62.5987 67.027 62.7113 67.0269 62.8249C67.0311 63.0296 67.0956 63.2285 67.2124 63.3966C67.3291 63.5648 67.4928 63.6948 67.683 63.7702C68.2478 64.0219 68.8636 64.1378 69.4812 64.1088C70.4913 64.0964 71.4941 63.9347 72.4571 63.6289L72.9651 65.224C71.796 65.707 70.5479 65.9701 69.2834 66.0001C68.2518 66.0563 67.2291 65.7819 66.3639 65.2168C66.0202 64.9758 65.7422 64.6527 65.5551 64.2768C65.3679 63.9009 65.2777 63.4842 65.2925 63.0646C65.2854 62.5184 65.493 61.9914 65.8704 61.5968C66.3634 61.1035 66.9297 60.6895 67.5491 60.3693C66.6499 59.3213 65.8782 58.1703 65.25 56.9404L65.8989 55.3877C66.9778 54.8085 68.1736 54.4806 69.3969 54.4284C70.2563 54.3934 71.1012 54.6578 71.7875 55.1765C72.0856 55.4014 72.326 55.694 72.489 56.0301C72.6521 56.3662 72.733 56.7362 72.7252 57.1097C72.7252 58.0785 72.147 58.9911 70.9907 59.8476C71.7361 60.0453 72.5041 60.1448 73.2752 60.1436ZM69.1428 56.2627C68.4216 56.2798 67.7115 56.443 67.0552 56.7426C67.5561 57.7833 68.202 58.7478 68.9734 59.6072C69.5008 59.3382 69.9954 59.0092 70.4473 58.6266C70.587 58.5201 70.7026 58.3851 70.7866 58.2306C70.8705 58.0762 70.9208 57.9057 70.9342 57.7304C70.9395 57.5285 70.8983 57.3281 70.8139 57.1446C70.7294 56.9611 70.604 56.7995 70.4473 56.6722C70.0755 56.3837 69.6126 56.2384 69.1428 56.2627Z" fill="white"/>
<path d="M86.491 60.1435C86.5848 60.1435 86.6318 60.186 86.6318 60.2703V61.9778C86.6346 61.997 86.6329 62.0165 86.6268 62.0349C86.6207 62.0533 86.6105 62.07 86.5968 62.0838C86.5831 62.0975 86.5664 62.1078 86.5481 62.114C86.5297 62.1201 86.5102 62.1219 86.491 62.1192C86.0732 62.1236 85.659 62.0406 85.2752 61.8753C84.8914 61.7101 84.5464 61.4664 84.2623 61.1598C83.6983 61.7996 82.8191 62.1194 81.6248 62.1192H73.2752C73.256 62.1219 73.2364 62.1201 73.218 62.114C73.1997 62.1078 73.1829 62.0975 73.1692 62.0838C73.1555 62.0701 73.1452 62.0533 73.1391 62.035C73.1329 62.0166 73.1311 61.997 73.1339 61.9778V60.2703C73.1368 60.2351 73.153 60.2024 73.1793 60.1788C73.2056 60.1552 73.2399 60.1426 73.2752 60.1435H74.4741V52.0576L76.3359 51.8174V56.4179C77.3751 55.9266 78.4416 55.4955 79.5302 55.1267C80.2435 54.8955 80.9878 54.7741 81.7376 54.7669C82.1633 54.7469 82.5884 54.8168 82.9853 54.9721C83.3822 55.1273 83.7421 55.3644 84.0414 55.6678C84.3407 55.9713 84.5728 56.3345 84.7227 56.7336C84.8725 57.1327 84.9368 57.559 84.9112 57.9846L84.8972 59.2406C84.8972 59.325 84.8877 59.4613 84.8687 59.6496C85.3466 59.9757 85.9126 60.148 86.491 60.1435ZM83.0352 58.8031V58.1818C83.0428 57.9762 83.0035 57.7716 82.9204 57.5834C82.8373 57.3953 82.7125 57.2285 82.5555 57.0957C82.2056 56.8121 81.764 56.6664 81.3141 56.6861C80.7267 56.6856 80.1414 56.7592 79.5724 56.9051C79.0033 57.051 77.9245 57.4013 76.3357 57.9561V60.1435H81.6386C82.0149 60.1669 82.3852 60.0402 82.6683 59.7909C82.7947 59.6608 82.8926 59.5058 82.9558 59.3357C83.019 59.1657 83.0459 58.9842 83.0352 58.8031Z" fill="white"/>
<path d="M94.3604 60.1433C94.4542 60.1433 94.5017 60.1858 94.5017 60.2701V61.9776C94.5044 61.9968 94.5026 62.0163 94.4965 62.0347C94.4903 62.0531 94.48 62.0698 94.4663 62.0836C94.4526 62.0973 94.4359 62.1076 94.4175 62.1137C94.3991 62.1199 94.3796 62.1217 94.3604 62.119C93.0753 62.1039 91.8004 61.8896 90.5809 61.4836C89.2657 61.9358 87.8807 62.1509 86.4904 62.119C86.3966 62.1094 86.3491 62.0625 86.3491 61.9776V60.2701C86.3491 60.1858 86.3966 60.1433 86.4904 60.1433C87.1013 60.1433 87.6326 60.1245 88.0842 60.0869C87.5568 59.5308 87.2638 58.7928 87.2661 58.0263C87.2562 57.6221 87.3315 57.2204 87.4871 56.8473C87.6427 56.4741 87.875 56.138 88.1691 55.8607C88.4755 55.5707 88.8365 55.3445 89.2311 55.1955C89.6257 55.0464 90.046 54.9774 90.4676 54.9924C90.8909 54.9779 91.3128 55.0491 91.7078 55.2019C92.1029 55.3546 92.4631 55.5857 92.7666 55.8813C93.057 56.1571 93.2872 56.49 93.4426 56.8592C93.598 57.2284 93.6753 57.6257 93.6696 58.0263C93.6599 58.7847 93.3625 59.5111 92.8376 60.0584C93.343 60.1172 93.8515 60.1455 94.3604 60.1433ZM90.3269 52.9039L89.2128 54.0046L87.8445 52.6642L89.1842 51.3232L90.3268 52.4239L91.4548 51.3232L92.823 52.6642L91.4694 54.0046L90.3269 52.9039ZM90.3832 56.7988C90.1925 56.7912 90.0024 56.8238 89.825 56.8943C89.6476 56.9648 89.487 57.0718 89.3535 57.2083C89.2216 57.3474 89.1188 57.5113 89.051 57.6906C88.9832 57.8699 88.9518 58.061 88.9587 58.2526C88.9627 58.6308 89.1002 58.9955 89.3468 59.2823C89.6217 59.6138 89.9865 59.8588 90.3972 59.988C90.8127 59.8345 91.1835 59.5799 91.4761 59.2471C91.7268 58.9757 91.8698 58.622 91.8781 58.2526C91.8839 58.0568 91.8472 57.862 91.7706 57.6817C91.6939 57.5015 91.5792 57.34 91.4342 57.2083C91.1505 56.9402 90.7735 56.7932 90.3832 56.7988Z" fill="white"/>
<path d="M94.3609 62.1192C94.3417 62.1219 94.3222 62.1201 94.3038 62.114C94.2854 62.1078 94.2687 62.0975 94.255 62.0838C94.2413 62.0701 94.231 62.0533 94.2249 62.0349C94.2187 62.0166 94.217 61.997 94.2197 61.9778V60.2703C94.2197 60.186 94.2716 60.1435 94.3749 60.1435C94.5651 60.1598 94.7566 60.1341 94.9357 60.0683C95.1149 60.0025 95.2775 59.898 95.4119 59.7624C95.6611 59.4146 95.7785 58.9894 95.7431 58.5629L95.757 52.0576L97.6188 51.8174V59.1842C97.6188 61.1408 96.5329 62.1192 94.3609 62.1192Z" fill="white"/>
<path d="M99.89 62.1192V52.0576L101.766 51.8174V62.1192H99.89Z" fill="white"/>
<path d="M106.857 55.0915C107.282 55.0774 107.706 55.1523 108.1 55.3114C108.495 55.4705 108.852 55.7104 109.149 56.0157C109.455 56.3484 109.692 56.7388 109.845 57.164C109.999 57.5892 110.067 58.0408 110.045 58.4925V61.7946C110.045 64.0334 108.169 65.1529 104.417 65.1531L104.22 63.6149C105.236 63.6696 106.254 63.526 107.217 63.1921C107.504 63.0865 107.752 62.8938 107.925 62.6409C108.098 62.3879 108.188 62.0873 108.183 61.7808C107.732 61.9934 107.242 62.1088 106.744 62.1194C106.305 62.1373 105.867 62.0624 105.459 61.8995C105.05 61.7366 104.681 61.4894 104.375 61.174C103.781 60.4589 103.461 59.5554 103.473 58.6257C103.484 57.6959 103.827 56.8008 104.438 56.1008C104.748 55.7719 105.123 55.5119 105.54 55.338C105.957 55.1641 106.406 55.0801 106.857 55.0915ZM105.15 58.5914C105.134 58.8209 105.169 59.0511 105.252 59.2656C105.335 59.4802 105.464 59.6739 105.63 59.8329C105.994 60.1304 106.458 60.277 106.927 60.2424C107.352 60.2357 107.774 60.1739 108.183 60.0586V58.6192C108.207 58.1826 108.063 57.7532 107.781 57.4197C107.643 57.2733 107.475 57.1584 107.289 57.0829C107.103 57.0074 106.902 56.973 106.702 56.9822C106.498 56.9782 106.295 57.0155 106.106 57.092C105.917 57.1684 105.746 57.2823 105.602 57.4269C105.45 57.5795 105.332 57.7616 105.254 57.962C105.177 58.1624 105.141 58.3767 105.15 58.5914Z" fill="white"/>
<path d="M123.683 55.2467L125.559 55.0209V59.2404C125.559 61.1502 124.497 62.1097 122.372 62.119H118.648C116.316 62.119 115.15 61.0701 115.15 58.9722C115.162 58.1874 115.262 57.4064 115.446 56.6435L117.054 56.8413C116.956 57.3583 116.895 57.8816 116.871 58.4074C116.851 58.6542 116.891 58.9021 116.987 59.1304C117.082 59.3587 117.231 59.5608 117.421 59.7198C117.92 60.0387 118.509 60.1873 119.099 60.1433H122.329C123.241 60.1433 123.697 59.6306 123.698 58.6052L123.683 55.2467ZM120.312 54.6539L119.198 55.7545L117.83 54.4142L119.17 53.0732L120.312 54.1739L121.441 53.0732L122.809 54.4142L121.455 55.7545L120.312 54.6539Z" fill="white"/>
<path d="M130.805 62.1192C128.643 62.1192 127.561 61.1409 127.561 59.1842L127.547 52.0576L129.423 51.8174V58.5632C129.388 58.9898 129.505 59.4151 129.755 59.7628C129.889 59.8984 130.052 60.0028 130.231 60.0686C130.41 60.1345 130.601 60.1601 130.791 60.1438C130.885 60.1438 130.932 60.1863 130.932 60.2706L130.946 61.9781C130.949 61.9973 130.947 62.0168 130.941 62.0352C130.935 62.0535 130.925 62.0702 130.911 62.0839C130.897 62.0976 130.881 62.1079 130.862 62.114C130.844 62.1202 130.824 62.1219 130.805 62.1192Z" fill="white"/>
<path d="M140.946 55.2466L142.808 55.007V59.2259C142.858 59.617 142.817 60.0141 142.688 60.3869C142.56 60.7596 142.349 61.098 142.069 61.3761C141.79 61.6541 141.451 61.8644 141.078 61.9907C140.704 62.1171 140.307 62.1562 139.917 62.105C139.072 62.0846 138.253 61.8146 137.561 61.3289C136.954 61.8692 136.158 62.148 135.347 62.105C134.579 62.0791 133.84 61.8014 133.245 61.3144C132.568 61.8908 131.692 62.1796 130.805 62.119C130.786 62.1217 130.767 62.1199 130.748 62.1138C130.73 62.1076 130.713 62.0973 130.7 62.0836C130.686 62.0699 130.675 62.0532 130.669 62.0348C130.663 62.0164 130.661 61.9968 130.664 61.9776V60.2701C130.664 60.1858 130.712 60.1433 130.805 60.1433C131.727 60.1433 132.188 59.6306 132.188 58.6052L132.174 56.7144L134.035 56.4742V59.2404C134.039 59.458 134.02 59.6753 133.979 59.8891C134.354 60.0473 134.757 60.1289 135.163 60.1294C136.075 60.1294 136.531 59.6166 136.532 58.5912L136.518 56.6999L138.393 56.4602V59.2259C138.393 59.4582 138.369 59.6899 138.323 59.9176C138.73 60.0623 139.16 60.134 139.592 60.1294C140.504 60.1294 140.96 59.6166 140.961 58.5912L140.946 55.2466ZM137.434 53.7789L136.32 54.8796L134.952 53.5392L136.292 52.1982L137.434 53.299L138.563 52.1982L139.931 53.5392L138.577 54.8796L137.434 53.7789ZM138.351 51.6198L137.448 52.5227L136.546 51.6198L137.434 50.7163L138.351 51.6198Z" fill="white"/>
<path d="M148.055 62.1192C145.892 62.1192 144.811 61.1409 144.811 59.1842L144.797 52.0576L146.673 51.8174V58.5632C146.637 58.9898 146.755 59.4151 147.004 59.7628C147.139 59.8984 147.301 60.0028 147.48 60.0686C147.659 60.1345 147.85 60.1601 148.041 60.1438C148.134 60.1438 148.182 60.1863 148.182 60.2706L148.196 61.9781C148.199 61.9973 148.197 62.0168 148.191 62.0352C148.185 62.0535 148.174 62.0702 148.16 62.0839C148.147 62.0976 148.13 62.1079 148.112 62.114C148.093 62.1202 148.074 62.1219 148.055 62.1192Z" fill="white"/>
<path d="M161.383 60.1433C161.477 60.1433 161.524 60.1858 161.524 60.2701V61.9776C161.527 61.9968 161.525 62.0164 161.519 62.0348C161.513 62.0532 161.503 62.0699 161.489 62.0836C161.476 62.0973 161.459 62.1077 161.44 62.1138C161.422 62.12 161.403 62.1217 161.383 62.119C160.633 62.1234 159.909 61.8465 159.352 61.3429C159.061 61.6147 158.716 61.8228 158.339 61.954C157.963 62.0852 157.563 62.1366 157.166 62.105C156.322 62.0846 155.502 61.8146 154.811 61.3289C154.203 61.8692 153.408 62.148 152.596 62.105C151.828 62.0791 151.09 61.8014 150.495 61.3144C149.817 61.8908 148.942 62.1796 148.055 62.119C148.036 62.1217 148.016 62.1199 147.998 62.1138C147.979 62.1076 147.963 62.0973 147.949 62.0836C147.935 62.0699 147.925 62.0532 147.919 62.0348C147.913 62.0164 147.911 61.9968 147.914 61.9776V60.2701C147.914 60.1858 147.961 60.1433 148.055 60.1433C148.976 60.1433 149.437 59.6306 149.437 58.6052L149.423 56.7144L151.285 56.4742V59.2404C151.288 59.458 151.269 59.6753 151.228 59.8891C151.603 60.0473 152.006 60.1289 152.413 60.1294C153.325 60.1294 153.781 59.6166 153.781 58.5912L153.767 56.6999L155.643 56.4602V59.2259C155.642 59.4582 155.619 59.6899 155.572 59.9176C155.98 60.0623 156.409 60.134 156.842 60.1294C157.754 60.1294 158.21 59.6166 158.21 58.5912L158.196 55.2466L160.058 55.007V59.2259C160.062 59.4193 160.052 59.6127 160.029 59.8047C160.443 60.0352 160.91 60.152 161.383 60.1433ZM154.641 53.7789L153.527 54.8796L152.159 53.5392L153.499 52.1982L154.641 53.299L155.77 52.1982L157.138 53.5392L155.784 54.8796L154.641 53.7789ZM155.558 51.6198L154.655 52.5227L153.753 51.6198L154.641 50.7163L155.558 51.6198Z" fill="white"/>
<path d="M161.383 62.1192C161.364 62.1219 161.344 62.1201 161.326 62.114C161.307 62.1078 161.291 62.0975 161.277 62.0838C161.263 62.0701 161.253 62.0533 161.247 62.035C161.241 62.0166 161.239 61.997 161.241 61.9778V60.2703C161.241 60.186 161.293 60.1435 161.397 60.1435C161.587 60.1598 161.778 60.1341 161.958 60.0683C162.137 60.0025 162.299 59.898 162.434 59.7624C162.683 59.4146 162.8 58.9894 162.765 58.5629L162.779 52.0576L164.641 51.8174V59.1842C164.641 61.1408 163.555 62.1192 161.383 62.1192Z" fill="white"/>
<path d="M166.912 62.1192V52.0576L168.788 51.8174V62.1192H166.912Z" fill="white"/>
<path d="M183.682 60.1433C183.775 60.1433 183.823 60.1858 183.823 60.2701V61.9776C183.826 61.9968 183.824 62.0164 183.818 62.0348C183.811 62.0532 183.801 62.0699 183.787 62.0836C183.774 62.0973 183.757 62.1076 183.739 62.1138C183.72 62.1199 183.701 62.1217 183.682 62.119H180.353C179.567 62.142 178.79 61.944 178.111 61.5474C177.496 61.1736 177.024 60.6049 176.77 59.9318C176.291 60.0732 176.052 60.4825 176.051 61.1599V65.6895L174.189 65.9292L174.175 61.075C174.175 59.2122 174.951 58.1726 176.503 57.9562C176.571 57.132 176.955 56.3662 177.574 55.8185C178.209 55.2628 179.03 54.9678 179.873 54.9927C180.298 54.984 180.721 55.0622 181.115 55.2223C181.509 55.3824 181.866 55.6212 182.165 55.9241C182.467 56.2136 182.706 56.5622 182.867 56.9483C183.029 57.3343 183.109 57.7495 183.103 58.1679C183.091 58.841 182.972 59.5078 182.75 60.1436L183.682 60.1433ZM180.311 60.1433H181.185C181.366 59.5915 181.466 59.0163 181.481 58.4358C181.486 58.005 181.321 57.5896 181.023 57.2787C180.884 57.1217 180.714 56.9964 180.523 56.9111C180.332 56.8259 180.125 56.7828 179.916 56.7848C179.708 56.7769 179.501 56.8117 179.307 56.8869C179.113 56.9622 178.936 57.0763 178.787 57.2223C178.641 57.373 178.526 57.5522 178.451 57.7487C178.376 57.9453 178.341 58.1551 178.35 58.3654C178.34 58.6061 178.382 58.846 178.474 59.0689C178.565 59.2918 178.703 59.4923 178.879 59.6567C179.276 59.9971 179.789 60.1714 180.311 60.1433Z" fill="white"/>
<path d="M183.695 62.1192C183.676 62.1219 183.657 62.1201 183.638 62.114C183.62 62.1078 183.603 62.0975 183.589 62.0838C183.576 62.0701 183.565 62.0533 183.559 62.0349C183.553 62.0166 183.551 61.997 183.554 61.9778V60.2703C183.554 60.186 183.606 60.1435 183.709 60.1435C183.899 60.1598 184.091 60.1341 184.27 60.0683C184.449 60.0025 184.612 59.898 184.746 59.7624C184.995 59.4146 185.113 58.9894 185.077 58.5629L185.091 52.0576L186.953 51.8174V59.1842C186.953 61.1408 185.867 62.1192 183.695 62.1192Z" fill="white"/>
<path d="M192.553 62.1192C190.39 62.1192 189.309 61.1409 189.309 59.1842L189.295 52.0576L191.171 51.8174V58.5632C191.135 58.9898 191.253 59.4151 191.502 59.7628C191.637 59.8984 191.799 60.0028 191.978 60.0686C192.157 60.1345 192.348 60.1601 192.539 60.1438C192.632 60.1438 192.68 60.1863 192.68 60.2706L192.694 61.9781C192.697 61.9973 192.695 62.0168 192.689 62.0352C192.683 62.0535 192.672 62.0702 192.659 62.0839C192.645 62.0976 192.628 62.1079 192.61 62.114C192.591 62.1202 192.572 62.1219 192.553 62.1192Z" fill="white"/>
<path d="M195.359 60.0871C196.916 60.0036 198.466 59.8244 200 59.5507L199.605 61.5264C197.277 61.9398 194.917 62.1382 192.553 62.1192C192.534 62.1219 192.514 62.1202 192.496 62.114C192.477 62.1079 192.461 62.0975 192.447 62.0838C192.433 62.0701 192.423 62.0534 192.417 62.035C192.411 62.0166 192.409 61.997 192.411 61.9778V60.2704C192.411 60.186 192.459 60.1435 192.553 60.1435C193.06 60.1435 193.432 60.1389 193.667 60.1296C193.314 59.4845 193.125 58.7621 193.117 58.0266C193.107 57.6276 193.184 57.2312 193.344 56.8655C193.503 56.4998 193.741 56.1736 194.041 55.9101C194.689 55.3431 195.529 55.0453 196.389 55.0776C197.317 55.1331 198.231 55.3331 199.097 55.6704L198.575 57.2505C197.96 57.0652 197.326 56.9516 196.685 56.9119C196.208 56.889 195.739 57.0423 195.367 57.3427C195.204 57.4796 195.074 57.6516 194.988 57.8458C194.901 58.04 194.859 58.2514 194.866 58.464C194.878 59.0402 195.048 59.602 195.359 60.0871Z" fill="white"/>
<path d="M142.006 28.0198C142.014 24.2903 140.619 20.6943 138.098 17.9469C135.577 15.1996 132.116 13.5021 128.401 13.192C124.686 12.882 120.991 13.9821 118.05 16.2736C115.109 18.5652 113.138 21.8802 112.529 25.5595C111.919 29.2388 112.716 33.0129 114.761 36.1311C116.805 39.2494 119.948 41.4835 123.564 42.3891C127.18 43.2946 131.004 42.8054 134.276 41.0186C137.548 39.2318 140.028 36.2784 141.223 32.7457H133.195C130.234 39.0944 120.588 36.2414 120.206 29.7464H141.897C141.967 29.1734 142.003 28.5969 142.006 28.0198ZM120.933 24.1118C121.185 23.2038 121.631 22.3615 122.241 21.6435C122.852 20.9254 123.611 20.3488 124.466 19.9537C125.321 19.5585 126.252 19.3543 127.194 19.3552C128.136 19.356 129.066 19.562 129.92 19.9587C131.547 20.7314 133.069 22.2984 133.467 24.1119L120.933 24.1118Z" fill="white"/>
<path d="M171.299 22.6074H163.669C163.191 22.5503 162.851 21.7353 162.558 21.4256C161.053 19.8341 158.722 19.933 156.754 20.3696C155.99 20.5393 154.055 21.4478 154.057 22.427C154.06 23.9369 157.736 24.335 158.764 24.5156C162.786 25.2232 167.738 26.5808 170.228 30.1061C173.113 34.1898 170.734 39.4005 166.532 41.3339C163.886 42.5513 160.844 42.8887 157.959 42.8262C153.578 42.7311 148.876 41.1665 146.648 37.1155C146.472 36.7952 145.223 33.2401 145.412 33.2401H152.77C152.77 33.2401 153.451 38.147 161.76 36.2397C163.025 35.9494 164.062 34.9496 163.143 33.6871C162.217 32.4136 159.281 32.3496 157.811 32.0134C154.157 31.1779 148.623 30.2335 146.797 26.4024C144.457 21.4917 148.606 15.9289 153.15 14.3254C157.093 12.9342 161.975 13.0397 165.717 14.9983C168.657 16.5378 170.534 19.4344 171.299 22.6074Z" fill="white"/>
<path d="M92.3478 3.00195C98.4605 3.00195 100.871 3.38375 103.251 5.00143C104.523 5.8671 105.568 7.02792 106.294 8.38483C107.021 9.74173 107.409 11.2544 107.425 12.7939C107.419 14.577 106.9 16.3207 105.931 17.817C104.962 19.3134 103.583 20.4993 101.958 21.2334C106.661 22.5574 109.306 26.1146 109.306 30.5846C109.301 32.3558 108.884 34.1015 108.088 35.6837C107.293 37.2659 106.14 38.6412 104.721 39.7009C101.87 41.7004 99.9894 41.7885 89.9961 41.8178H76.8289V3.00195H92.3478ZM84.677 18.4398H89.7905C95.9044 18.4398 97.1091 18.4691 98.6366 16.9396C99.0245 16.5399 99.3264 16.065 99.5237 15.5441C99.721 15.0232 99.8095 14.4674 99.7838 13.911C99.7838 11.4709 98.4898 9.94139 95.8149 9.61833C95.0518 9.529 92.8467 9.49965 89.1727 9.49965H84.6769L84.677 18.4398ZM84.677 35.2897H91.9063C94.7278 35.2897 96.5208 35.2016 97.2852 35.0254C99.5478 34.6424 101.194 32.9378 101.194 30.2323C101.194 27.8791 100.048 26.2027 97.9319 25.4685C96.8436 25.115 94.5216 24.9384 90.9658 24.9386H84.677V35.2897Z" fill="white"/>
<path d="M65.071 20.8545V41.5609H72.1562V13.7656L65.071 20.8545Z" fill="white"/>
<path d="M72.1562 13.635V6.42334H65.071V6.54665L72.1562 13.635Z" fill="#00A3A0"/>
<path d="M196.883 21.9422V15.0769H185.62V7.98828L173.993 19.8027V21.9422H196.883Z" fill="#00A3A0"/>
<path d="M196.52 34.2645C196.52 34.2645 187.073 39.7174 185.983 31.72V24.5811H178.535V32.8105C178.535 37.4422 182.302 41.6185 186.769 42.5108C190.377 43.2316 195.849 42.8856 198.518 40.0098C198.57 39.9537 198.915 39.6103 198.881 39.5356L196.52 34.2645Z" fill="white"/>
</g>
<defs>
<clipPath id="clip0_287_5901">
<rect width="200" height="66" fill="white"/>
</clipPath>
</defs>
</svg>
