<svg width="52" height="65" viewBox="0 0 52 65" fill="none" xmlns="http://www.w3.org/2000/svg">
<path d="M25.4857 9.62776C25.8115 9.70337 26.1523 9.68063 26.4652 9.56241C26.778 9.4442 27.0488 9.23582 27.2433 8.96363C27.4378 8.69144 27.5472 8.36766 27.5578 8.03323C27.5683 7.69881 27.4796 7.36876 27.3026 7.08483C27.1257 6.8009 26.8686 6.57583 26.5639 6.43809C26.2591 6.30035 25.9204 6.25612 25.5905 6.311C25.2606 6.36588 24.9544 6.5174 24.7106 6.7464C24.4667 6.9754 24.2963 7.27159 24.2207 7.59753C24.1194 8.03459 24.1958 8.49401 24.433 8.87474C24.6702 9.25547 25.0489 9.52634 25.4857 9.62776Z" fill="url(#paint0_linear_5_2)"/>
<path d="M16.4231 40.9421L11.6996 45.668L21.1465 55.1198L21.1351 55.1312L25.8813 59.8799L25.9842 59.9829L51.7396 34.2025V38.7453L25.8926 64.617L6.95369 45.6681L9.2982 43.3108L14.0444 38.5736L16.4232 36.1934L25.8701 45.6453L43.8714 27.6345L43.8943 27.623L48.3545 23.1488V4.32565C48.355 4.20227 48.331 4.08004 48.284 3.96597C48.237 3.85191 48.168 3.74827 48.0808 3.66104C47.9936 3.5738 47.89 3.50469 47.776 3.45769C47.662 3.41068 47.5398 3.38671 47.4165 3.38716H4.31165C4.06328 3.38827 3.8254 3.48747 3.64977 3.66319C3.47414 3.8389 3.37498 4.0769 3.37385 4.32539V34.3468L4.08577e-06 37.7225V4.32539C-0.000775916 3.75812 0.110132 3.19625 0.326395 2.67186C0.542659 2.14748 0.860041 1.67085 1.26042 1.2692C1.6608 0.867541 2.13633 0.548726 2.65986 0.330956C3.18339 0.113187 3.74467 0.000727889 4.31165 1.35632e-06H47.4165C47.9843 -0.00044873 48.5467 0.111124 49.0714 0.328337C49.5961 0.545551 50.0728 0.864141 50.4744 1.26588C50.8759 1.66762 51.1943 2.14463 51.4114 2.66961C51.6285 3.1946 51.74 3.75725 51.7395 4.32539V24.5103L48.3541 27.8975L46.2613 29.9912L46.2385 30.0141L43.8941 32.3717L43.8712 32.3832L25.8699 50.394L16.4231 40.9421Z" fill="url(#paint1_linear_5_2)"/>
<defs>
<linearGradient id="paint0_linear_5_2" x1="24.1766" y1="7.97978" x2="27.559" y2="7.97978" gradientUnits="userSpaceOnUse">
<stop stop-color="#00A3A0"/>
<stop offset="1" stop-color="#1458A1"/>
</linearGradient>
<linearGradient id="paint1_linear_5_2" x1="4.08577e-06" y1="32.3085" x2="51.7395" y2="32.3085" gradientUnits="userSpaceOnUse">
<stop stop-color="#00A3A0"/>
<stop offset="1" stop-color="#1458A1"/>
</linearGradient>
</defs>
</svg>
