<svg width="100" height="68" viewBox="0 0 100 68" fill="none" xmlns="http://www.w3.org/2000/svg">
<path d="M37.1836 56.238C36.8299 56.238 36.4907 56.0948 36.2405 55.8397C35.9904 55.5845 35.8498 55.2383 35.8498 54.8775V37.9501H37.1932V53.6777C37.1934 53.9934 37.3165 54.2961 37.5354 54.5193C37.7543 54.7425 38.0511 54.8678 38.3606 54.8678H61.6167C61.7703 54.8681 61.9223 54.8376 62.0643 54.7779C62.2062 54.7183 62.3353 54.6307 62.4441 54.5202C62.5528 54.4096 62.6391 54.2781 62.6979 54.1334C62.7568 53.9887 62.7871 53.8336 62.7871 53.677V37.9494H64.1275V54.8767C64.1278 55.0552 64.0937 55.2321 64.027 55.3972C63.9603 55.5622 63.8624 55.7121 63.7389 55.8386C63.6152 55.9649 63.4683 56.0653 63.3067 56.1337C63.145 56.2021 62.9717 56.2372 62.7967 56.2373L37.1836 56.238ZM62.7856 21.6249V2.55372C62.7857 2.39692 62.7555 2.24162 62.6967 2.09674C62.6379 1.95185 62.5517 1.82028 62.443 1.70941C62.3343 1.59853 62.2053 1.51054 62.0632 1.45058C61.9212 1.39062 61.769 1.35992 61.6152 1.36002H38.3592C38.2056 1.36002 38.0535 1.3909 37.9117 1.45094C37.7698 1.51098 37.641 1.59886 37.5325 1.70977C37.4241 1.82065 37.3382 1.95228 37.2797 2.0971C37.2212 2.24192 37.1913 2.3971 37.1917 2.55372V21.6249H35.8484V1.35764C35.8494 0.997202 35.9905 0.652031 36.2408 0.397656C36.4912 0.14328 36.8303 0.000578191 37.1836 0.000977398H62.7952C62.9702 0.000967175 63.1435 0.0361329 63.3052 0.104546C63.4669 0.17296 63.6138 0.273281 63.7374 0.399672C63.9868 0.655052 64.1266 1.00101 64.126 1.36149V21.6286L62.7856 21.6249Z" fill="#F0B624"/>
<path d="M53.0156 53.7866H46.5975C46.5252 53.7864 46.4558 53.7571 46.4047 53.7049C46.3535 53.6527 46.3247 53.5818 46.3245 53.508C46.3245 53.4341 46.3532 53.3634 46.4045 53.3111C46.4557 53.2589 46.5251 53.2295 46.5975 53.2295H53.0156C53.088 53.2295 53.1574 53.2589 53.2087 53.3111C53.2599 53.3634 53.2886 53.4341 53.2886 53.508C53.2886 53.5819 53.2599 53.6528 53.2087 53.705C53.1574 53.7573 53.088 53.7866 53.0156 53.7866ZM54.9743 48.2012H45.012C43.3499 48.1958 41.7269 47.6867 40.3489 46.7386C38.9479 45.7677 37.8145 44.4464 37.0571 42.9011C36.7568 42.2938 36.5104 41.6603 36.321 41.0082C36.0331 40.0163 35.8739 38.9903 35.8477 37.9562H40.4652C40.5991 40.7342 42.5999 42.9042 45.0128 42.9042H54.975C57.4822 42.9042 59.5226 40.5638 59.5226 37.6874C59.5226 34.811 57.4829 32.4697 54.975 32.4697H45.001C43.746 32.4577 42.5086 32.1669 41.375 31.6174C40.2414 31.0678 39.2389 30.2729 38.4372 29.2879C37.8938 28.6433 37.4287 27.9341 37.052 27.1758C36.7534 26.5738 36.5087 25.9456 36.321 25.2987C35.6891 23.1179 35.6891 20.7971 36.321 18.6163C36.5084 17.9693 36.7531 17.341 37.052 16.7392C37.81 15.1946 38.943 13.8734 40.343 12.9016C41.7188 11.9537 43.34 11.4446 45.0002 11.439H55.1988C56.0113 11.4592 56.8165 11.603 57.5874 11.8656C58.3456 12.1257 59.0642 12.4933 59.7221 12.9574C61.0826 13.9316 62.1817 15.2384 62.9189 16.7581C63.2616 17.4491 63.5329 18.1744 63.7286 18.9226C63.9683 19.8222 64.0998 20.7484 64.1202 21.6804H59.5152C59.3776 18.9594 57.4947 16.8322 55.1347 16.7331H45.0061C42.499 16.7331 40.4586 19.0735 40.4586 21.9492C40.4586 24.6424 42.2156 26.8746 44.5454 27.1419C44.7058 27.1261 44.853 27.1261 45.0091 27.1261C45.2542 27.1261 45.5148 27.1389 45.8063 27.1659H54.9706C56.6313 27.1717 58.2528 27.6808 59.6293 28.6285C61.0302 29.5992 62.1632 30.9206 62.9196 32.4661C63.2627 33.1613 63.5341 33.891 63.7293 34.6434C64.2501 36.631 64.2501 38.7233 63.7293 40.7109C63.5347 41.4655 63.2634 42.1972 62.9196 42.8943C62.1611 44.439 61.0276 45.7602 59.6271 46.7318C58.2536 47.6823 56.634 48.1947 54.9743 48.2042V48.2012ZM54.1859 1.89381H45.8276C45.6722 1.90373 45.5169 1.87233 45.3769 1.80271C45.2369 1.73309 45.117 1.6276 45.029 1.49659C44.8855 1.25312 44.8026 0.977686 44.7875 0.694063C44.7732 0.557075 44.731 0.424621 44.6636 0.305268C44.5962 0.185915 44.505 0.082233 44.3959 0.000976562H55.6161C55.5073 0.0820964 55.4164 0.185837 55.3496 0.305268C55.2827 0.424698 55.2414 0.557193 55.2282 0.694063C55.1458 1.50271 54.8065 1.89381 54.1889 1.89381H54.1859ZM52.3457 0.548334C52.242 0.548334 52.1425 0.590353 52.0691 0.665101C51.9957 0.739848 51.9543 0.84122 51.9541 0.947028C51.9543 1.05284 51.9957 1.15421 52.0691 1.22896C52.1425 1.3037 52.242 1.34572 52.3457 1.34572C52.4493 1.34552 52.5486 1.3035 52.6219 1.22877C52.6951 1.15405 52.7364 1.05271 52.7366 0.947028C52.7364 0.841867 52.6955 0.741025 52.6229 0.666384C52.5503 0.591743 52.4518 0.549322 52.3487 0.548334H52.3457ZM48.1647 0.715694C48.1366 0.715694 48.1096 0.72713 48.0898 0.747406C48.0699 0.767682 48.0587 0.79517 48.0587 0.823845V1.07094C48.0587 1.09962 48.0699 1.12711 48.0898 1.14738C48.1096 1.16766 48.1366 1.1791 48.1647 1.1791H51.4543C51.4824 1.1791 51.5094 1.16766 51.5292 1.14738C51.5491 1.12711 51.5603 1.09962 51.5603 1.07094V0.823845C51.5603 0.79517 51.5491 0.767682 51.5292 0.747406C51.5094 0.72713 51.4824 0.715694 51.4543 0.715694H48.1647Z" fill="white"/>
<path d="M55.1774 59.556V58.0934H55.4836V59.565C55.4836 60.1184 55.7228 60.3534 56.0504 60.3534C56.378 60.3534 56.6393 60.1124 56.6393 59.565V58.0934H56.958V59.544C56.958 60.3075 56.5642 60.617 56.0482 60.617C55.5322 60.617 55.1774 60.3294 55.1774 59.556ZM48.9206 59.3518C48.9067 59.1898 48.9253 59.0266 48.9751 58.8721C49.0249 58.7176 49.1049 58.5749 49.2104 58.4529C49.3158 58.3309 49.4444 58.232 49.5885 58.1622C49.7325 58.0924 49.889 58.0532 50.0483 58.0469C50.2039 58.0491 50.3574 58.0845 50.4988 58.1506C50.6403 58.2168 50.7668 58.3121 50.87 58.4309C50.9733 58.5497 51.0512 58.6892 51.0987 58.8404C51.1462 58.9916 51.1622 59.1511 51.1458 59.3089C51.1656 59.4725 51.1511 59.6386 51.1034 59.796C51.0556 59.9534 50.9757 60.0988 50.8689 60.2224C50.762 60.346 50.6307 60.4451 50.4835 60.5131C50.3364 60.5811 50.1767 60.6166 50.0152 60.617C49.8598 60.613 49.7069 60.5763 49.566 60.5094C49.4251 60.4425 49.2992 60.3467 49.1962 60.2281C49.0932 60.1094 49.0152 59.9704 48.9672 59.8196C48.9191 59.6689 48.902 59.5096 48.9169 59.3518H48.9206ZM49.2511 59.3458C49.2511 59.8774 49.533 60.3542 50.0329 60.3542C50.5327 60.3542 50.8116 59.8871 50.8116 59.324C50.8116 58.8262 50.5599 58.3097 50.0358 58.3097C49.5117 58.3097 49.2474 58.8045 49.2474 59.3451L49.2511 59.3458ZM37.7571 60.2724C37.638 60.153 37.546 60.0084 37.4876 59.8488C37.4292 59.6892 37.4058 59.5185 37.4192 59.3487C37.4121 59.1732 37.4418 58.9983 37.5063 58.8355C37.5708 58.6726 37.6686 58.5256 37.7931 58.4043C37.9176 58.2829 38.066 58.1898 38.2284 58.1314C38.3909 58.073 38.5637 58.0505 38.7353 58.0656C38.943 58.0609 39.1494 58.0998 39.3418 58.1798L39.2631 58.4426C39.0937 58.365 38.9091 58.328 38.7235 58.3345C38.5923 58.3238 38.4604 58.3423 38.3369 58.3887C38.2133 58.4352 38.1012 58.5083 38.0081 58.6032C37.915 58.6982 37.8432 58.8127 37.7977 58.9387C37.7522 59.0647 37.7341 59.1991 37.7445 59.333C37.7312 59.4642 37.7461 59.5969 37.788 59.7218C37.83 59.8466 37.898 59.9607 37.9875 60.0561C38.0769 60.1512 38.1856 60.2254 38.306 60.2735C38.4263 60.3216 38.5555 60.3425 38.6845 60.3347C38.8268 60.3427 38.9692 60.3203 39.1026 60.2693V59.5267H38.6117V59.2699H39.4214V60.4638C39.1802 60.5533 38.9256 60.5992 38.669 60.5996C38.6322 60.6031 38.5957 60.6049 38.5594 60.6049C38.2579 60.6068 37.9679 60.4869 37.7526 60.2715L37.7571 60.2724ZM61.1228 60.5921L61.1073 58.1361C61.3077 58.1042 61.5103 58.0886 61.7131 58.0896C61.9574 58.0691 62.2005 58.1416 62.3955 58.2931C62.4654 58.3592 62.5207 58.4398 62.5578 58.5293C62.5948 58.6189 62.6128 58.7155 62.6104 58.8127C62.6188 59.0083 62.5511 59.1994 62.422 59.3443C62.3218 59.4382 62.2042 59.5107 62.0762 59.5575C61.9481 59.6043 61.8122 59.6245 61.6763 59.6169C61.5919 59.6199 61.5074 59.6125 61.4246 59.5951V60.5906L61.1228 60.5921ZM61.4018 58.3689L61.4106 59.3339C61.4959 59.3544 61.5835 59.3636 61.6712 59.3616C62.0503 59.3616 62.2777 59.1694 62.2777 58.836C62.2777 58.5026 62.0473 58.3471 61.705 58.3471H61.655C61.5689 58.3453 61.4828 58.3524 61.3981 58.3682L61.4018 58.3689ZM44.7661 60.5674C44.6945 60.3752 44.6417 60.1762 44.6086 59.9734C44.535 59.6303 44.4025 59.5005 44.1176 59.4915H43.8144V60.5674H43.5111L43.5022 58.1371C43.7028 58.1044 43.9056 58.0877 44.1088 58.0874C44.3607 58.0622 44.6127 58.1341 44.8154 58.2887C44.8778 58.3503 44.9269 58.4243 44.9599 58.5062C44.9928 58.5882 45.0088 58.6762 45.0068 58.7647C45.005 58.9036 44.9599 59.0382 44.8781 59.1493C44.7963 59.2603 44.6821 59.3421 44.5519 59.3826C44.6478 59.4285 44.7308 59.4985 44.7928 59.5861C44.8549 59.6737 44.8941 59.7761 44.9067 59.8834C44.9495 60.116 45.0113 60.3445 45.0915 60.5666L44.7661 60.5674ZM43.8144 58.3622L43.8055 59.2684H44.1272C44.4636 59.2684 44.6763 59.08 44.6763 58.7984C44.6763 58.5169 44.4488 58.3374 44.1183 58.3374H44.0735C43.9845 58.3368 43.8958 58.3451 43.8085 58.3622H43.8144Z" fill="white"/>
<path d="M69.4141 48.6892C69.1473 48.6745 68.8909 48.5785 68.6781 48.4137C68.6035 48.3368 68.5468 48.2438 68.5122 48.1415C68.4775 48.0393 68.4658 47.9302 68.4779 47.8227C68.5085 47.4702 68.5903 47.1243 68.7208 46.7964L81.0135 12.0443C81.0771 11.8493 81.1805 11.6702 81.3168 11.5188C81.4671 11.371 81.6517 11.2645 81.8534 11.2094C82.1499 11.1215 82.455 11.0675 82.7632 11.0486C83.2282 11.0083 83.6951 10.9939 84.1618 11.0052C84.7683 11.0052 85.2806 11.0208 85.6781 11.0486C86.0042 11.067 86.3275 11.121 86.6424 11.2094C86.8557 11.2671 87.0502 11.3813 87.2062 11.5404C87.3415 11.696 87.4447 11.878 87.5095 12.0751L99.8088 46.8211C99.9393 47.1491 100.021 47.4951 100.052 47.8477C100.063 47.9534 100.051 48.0601 100.017 48.1606C99.9827 48.261 99.9273 48.3527 99.8545 48.4288C99.6336 48.5872 99.3727 48.6774 99.1029 48.6885C98.754 48.7253 98.2844 48.744 97.6992 48.744C97.114 48.744 96.6473 48.7321 96.2955 48.7006C96.0269 48.687 95.7612 48.6392 95.5042 48.5585C95.3484 48.5077 95.2103 48.4121 95.1067 48.283C95.0101 48.1484 94.9286 48.0031 94.8638 47.8499L91.9562 39.4331L90.4406 34.7945L90.3493 34.5316L84.0189 15.2015L79.5288 29.1917H84.1905C84.2335 29.1088 84.2978 29.0396 84.3765 28.9912C84.4552 28.9427 84.5454 28.9171 84.6373 28.9169C84.7713 28.9171 84.8998 28.9715 84.9946 29.0681C85.0894 29.1648 85.1428 29.296 85.143 29.4327C85.1428 29.5695 85.0894 29.7007 84.9946 29.7973C84.8998 29.894 84.7713 29.9484 84.6373 29.9486C84.5442 29.9484 84.4531 29.922 84.3737 29.8725C84.2944 29.823 84.23 29.7522 84.1875 29.6677H81.6178C81.5177 29.6759 81.4242 29.7222 81.3559 29.7975C81.2877 29.8728 81.2498 29.9715 81.2498 30.074C81.2498 30.1765 81.2877 30.2754 81.3559 30.3507C81.4241 30.4261 81.5176 30.4726 81.6178 30.4809H85.0038L85.4845 29.8802H86.4216V29.884H86.4252L86.9743 30.5726H87.4616C87.5054 30.4922 87.5694 30.4252 87.647 30.3784C87.7247 30.3317 87.8132 30.307 87.9033 30.3068C88.0374 30.307 88.1659 30.3613 88.2607 30.458C88.3555 30.5547 88.4088 30.6858 88.409 30.8226C88.4088 30.9593 88.3555 31.0903 88.2607 31.187C88.1659 31.2837 88.0374 31.3382 87.9033 31.3384C87.8079 31.3384 87.7145 31.3108 87.6337 31.259C87.553 31.2072 87.4883 31.1332 87.4469 31.0455H86.7484V31.0394L86.2037 30.3555H85.7075L85.2261 30.9562L85.221 30.9516V30.9584H83.0083C82.956 30.9579 82.9042 30.968 82.8558 30.9881C82.8074 31.0082 82.7634 31.0379 82.7264 31.0755C82.6894 31.1133 82.6601 31.1582 82.6403 31.2075C82.6204 31.2569 82.6104 31.3098 82.6108 31.3632C82.6108 31.4162 82.6211 31.4687 82.6411 31.5177C82.661 31.5667 82.6902 31.611 82.7271 31.6484C82.7641 31.6858 82.808 31.7153 82.8563 31.7353C82.9046 31.7552 82.9562 31.7653 83.0083 31.7648H85.7554C85.798 31.6811 85.8624 31.611 85.9415 31.562C86.0205 31.5131 86.1112 31.4871 86.2037 31.4871C86.3378 31.4871 86.4664 31.5414 86.5612 31.6381C86.6561 31.7349 86.7094 31.8661 86.7094 32.0029C86.7092 32.1396 86.6558 32.2706 86.561 32.3673C86.4662 32.464 86.3377 32.5185 86.2037 32.5187C86.1112 32.5186 86.0205 32.4925 85.9415 32.4436C85.8625 32.3946 85.7981 32.3245 85.7554 32.2408H78.5417L77.6738 34.8071H77.7254L76.4461 38.7866L73.4509 47.7546C73.3999 47.9165 73.323 48.0686 73.2235 48.2049C73.1128 48.3407 72.9713 48.447 72.8112 48.5144C72.5676 48.617 72.3099 48.6806 72.0472 48.7028C71.6188 48.7443 71.1886 48.7628 70.7583 48.7583H70.6111C70.2111 48.7594 69.8114 48.7363 69.4141 48.6892ZM85.9453 32.0029C85.9453 32.0729 85.9725 32.14 86.0209 32.1895C86.0694 32.2391 86.1351 32.2669 86.2037 32.267C86.2723 32.2669 86.3379 32.2391 86.3864 32.1895C86.4348 32.14 86.462 32.0729 86.462 32.0029C86.462 31.933 86.4348 31.8659 86.3863 31.8165C86.3379 31.7671 86.2722 31.7393 86.2037 31.7393C86.1697 31.7392 86.136 31.7459 86.1046 31.7591C86.0731 31.7723 86.0446 31.7918 86.0205 31.8163C85.9964 31.8408 85.9773 31.8699 85.9643 31.9019C85.9513 31.9339 85.9453 31.9682 85.9453 32.0029ZM87.6457 30.8187C87.6458 30.8886 87.6731 30.9556 87.7215 31.005C87.7699 31.0544 87.8356 31.0821 87.904 31.0823C87.9725 31.0821 88.0381 31.0544 88.0865 31.005C88.1349 30.9556 88.1622 30.8886 88.1624 30.8187C88.1624 30.7488 88.1352 30.6819 88.0867 30.6325C88.0383 30.5831 87.9726 30.5553 87.904 30.5553C87.8355 30.5553 87.7698 30.5831 87.7214 30.6325C87.6729 30.6819 87.6457 30.7488 87.6457 30.8187ZM84.3774 29.4366C84.3774 29.5065 84.4047 29.5734 84.4531 29.6228C84.5016 29.6723 84.5673 29.7 84.6358 29.7C84.7043 29.7 84.7701 29.6723 84.8185 29.6228C84.867 29.5734 84.8942 29.5065 84.8942 29.4366C84.894 29.3668 84.8667 29.2997 84.8183 29.2504C84.7699 29.201 84.7042 29.1732 84.6358 29.173C84.5673 29.1732 84.5017 29.201 84.4533 29.2504C84.4049 29.2997 84.3776 29.3668 84.3774 29.4366Z" fill="white"/>
<path d="M0.941491 48.6898C0.674728 48.6753 0.418352 48.5796 0.2054 48.4151C0.130851 48.3381 0.0741771 48.2451 0.039528 48.1429C0.00487894 48.0406 -0.00684355 47.9318 0.00520348 47.8243C0.0357816 47.4715 0.117661 47.1252 0.248126 46.797L12.5357 12.0457C12.6005 11.8512 12.7037 11.6723 12.8389 11.5201C12.9897 11.373 13.1742 11.2666 13.3756 11.2107C13.6721 11.1229 13.9772 11.0691 14.2854 11.0501C14.7505 11.01 15.2173 10.9954 15.6839 11.0065C16.2905 11.0065 16.8021 11.0224 17.1996 11.0501C17.5257 11.0683 17.849 11.122 18.1638 11.2107C18.3779 11.2686 18.5734 11.3829 18.7306 11.542C18.8647 11.6984 18.9677 11.8799 19.0339 12.0765L31.3332 46.8225C31.4637 47.1504 31.5456 47.4965 31.5761 47.849C31.5884 47.9577 31.5759 48.0679 31.5397 48.1709C31.5034 48.2739 31.4444 48.367 31.3671 48.4429C31.146 48.6015 30.8848 48.6917 30.6148 48.7027C30.2666 48.7402 29.7963 48.7582 29.2111 48.7582C28.6259 48.7582 28.1592 48.7463 27.8125 48.7155C27.543 48.7018 27.2762 48.6538 27.0183 48.5727C26.8631 48.5215 26.7255 48.4262 26.6215 48.2979C26.5248 48.1641 26.4443 48.019 26.3816 47.8655L23.471 39.4352L21.9547 34.7966L21.8641 34.5337L15.5492 15.1947L11.0591 29.194H15.7185C15.7616 29.1112 15.8259 29.0419 15.9047 28.9936C15.9834 28.9453 16.0735 28.9197 16.1653 28.9197C16.2994 28.9197 16.4281 28.9742 16.5229 29.071C16.6177 29.1677 16.671 29.2988 16.671 29.4356C16.6708 29.5723 16.6175 29.7035 16.5227 29.8002C16.4279 29.8968 16.2994 29.9512 16.1653 29.9514C16.0723 29.9513 15.9811 29.925 15.9017 29.8755C15.8224 29.826 15.758 29.755 15.7156 29.6706H13.1459C13.0457 29.6787 12.9522 29.7251 12.884 29.8003C12.8158 29.8756 12.7779 29.9743 12.7778 30.0768C12.7779 30.1793 12.8158 30.2782 12.884 30.3536C12.9522 30.429 13.0457 30.4754 13.1459 30.4837H16.5319L17.0141 29.8793H17.9503L18.4988 30.5678H18.9861C19.0299 30.4876 19.0939 30.4207 19.1716 30.3741C19.2492 30.3275 19.3376 30.3029 19.4277 30.3028C19.5617 30.303 19.6902 30.3575 19.785 30.4542C19.8798 30.5509 19.9332 30.6819 19.9334 30.8186C19.9334 30.9554 19.8801 31.0867 19.7853 31.1834C19.6904 31.2801 19.5618 31.3344 19.4277 31.3344C19.3323 31.3344 19.2389 31.3071 19.1581 31.2553C19.0774 31.2034 19.0126 31.1294 18.9713 31.0417H18.272V31.0349L17.728 30.3525H17.2312L16.7476 30.959H14.5312C14.479 30.9586 14.4271 30.9688 14.3787 30.9889C14.3304 31.009 14.2864 31.0386 14.2493 31.0762C14.2123 31.1139 14.183 31.1588 14.1632 31.2081C14.1433 31.2575 14.1333 31.3104 14.1337 31.3638C14.1337 31.4168 14.144 31.4693 14.1639 31.5183C14.1839 31.5673 14.2132 31.6116 14.25 31.649C14.2869 31.6863 14.3307 31.7159 14.3788 31.7359C14.427 31.7559 14.4785 31.7658 14.5305 31.7654H17.2776C17.3203 31.6818 17.3847 31.6116 17.4637 31.5627C17.5427 31.5137 17.6334 31.4878 17.7258 31.4877C17.8599 31.4879 17.9884 31.5422 18.0832 31.6389C18.178 31.7356 18.2313 31.8668 18.2315 32.0035C18.2313 32.1403 18.178 32.2712 18.0832 32.3679C17.9884 32.4646 17.8599 32.5191 17.7258 32.5193C17.6334 32.5192 17.5427 32.4932 17.4637 32.4442C17.3847 32.3952 17.3203 32.3251 17.2776 32.2414H10.0683L9.19749 34.8085H9.24902L7.96971 38.7879L4.97454 47.7559C4.92353 47.9178 4.84671 48.0699 4.74711 48.2063C4.63687 48.3413 4.49651 48.4474 4.33783 48.5157C4.09306 48.618 3.83441 48.6815 3.57082 48.7041C3.14245 48.7458 2.71224 48.7644 2.28195 48.7597H2.13472C1.73598 48.7604 1.33753 48.7371 0.941491 48.6898ZM17.4726 32.0035C17.4728 32.0734 17.5001 32.1402 17.5485 32.1896C17.5969 32.239 17.6625 32.2667 17.731 32.2669C17.7995 32.2667 17.8651 32.239 17.9135 32.1896C17.9619 32.1402 17.9892 32.0734 17.9894 32.0035C17.9894 31.9336 17.9621 31.8665 17.9137 31.8171C17.8652 31.7677 17.7995 31.7399 17.731 31.7399C17.6625 31.7399 17.5968 31.7677 17.5483 31.8171C17.4999 31.8665 17.4726 31.9336 17.4726 32.0035ZM19.173 30.8193C19.173 30.8892 19.2002 30.9563 19.2487 31.0058C19.2972 31.0552 19.3629 31.0829 19.4314 31.0829C19.4999 31.0829 19.5656 31.0552 19.614 31.0058C19.6625 30.9563 19.6898 30.8892 19.6898 30.8193C19.6898 30.7495 19.6625 30.6825 19.614 30.6331C19.5656 30.5837 19.4999 30.5559 19.4314 30.5559C19.3629 30.5559 19.2972 30.5837 19.2487 30.6331C19.2002 30.6825 19.173 30.7495 19.173 30.8193ZM15.9048 29.4372C15.9048 29.4718 15.9114 29.5061 15.9244 29.538C15.9374 29.57 15.9565 29.599 15.9805 29.6234C16.0044 29.6479 16.0329 29.6674 16.0642 29.6806C16.0956 29.6939 16.1292 29.7006 16.1631 29.7006C16.1971 29.7006 16.2307 29.6939 16.262 29.6806C16.2934 29.6674 16.3219 29.6479 16.3458 29.6234C16.3698 29.599 16.3888 29.57 16.4018 29.538C16.4148 29.5061 16.4215 29.4718 16.4215 29.4372C16.4215 29.3673 16.3943 29.3002 16.3458 29.2508C16.2974 29.2014 16.2317 29.1736 16.1631 29.1736C16.0947 29.1736 16.0291 29.2013 15.9807 29.2506C15.9322 29.2999 15.9049 29.3674 15.9048 29.4372Z" fill="white"/>
<path d="M44.2237 68.4596L44.2694 67.8072C44.5738 67.8702 44.8833 67.9043 45.1939 67.9093C45.8093 67.9093 46.2186 67.6742 46.2186 67.1051V67.003H45.7548C44.6028 67.003 44.1693 66.4587 44.1693 65.602C44.1596 65.3923 44.1948 65.183 44.2725 64.9886C44.3502 64.7943 44.4684 64.6196 44.6191 64.4766C44.7697 64.3337 44.9492 64.226 45.1448 64.161C45.3404 64.096 45.5476 64.0753 45.7519 64.1003C46.1726 64.1007 46.5904 64.1718 46.9885 64.3106V67.0285C46.9885 67.8634 46.4614 68.5376 45.1328 68.5376C44.8283 68.5342 44.5245 68.5081 44.2237 68.4596ZM45.6547 64.7144C45.554 64.7148 45.4546 64.7372 45.363 64.7798C45.2713 64.8224 45.1896 64.8843 45.1232 64.9615C45.0569 65.0386 45.0073 65.1292 44.9778 65.2273C44.9482 65.3254 44.9393 65.4288 44.9517 65.5307C44.9517 66.066 45.2182 66.3753 45.8402 66.3753H46.2193V64.8225C46.0475 64.7513 45.8637 64.7145 45.6783 64.7144H45.6547ZM49.3624 67.003V62.748H50.1449V66.3761H51.4757V64.1648H52.2582V66.3761H53.0855C53.1982 66.3734 53.3106 66.3879 53.419 66.4195C53.2983 66.3146 53.2049 66.1812 53.1467 66.0307C53.0886 65.8803 53.0675 65.7175 53.0855 65.5569C53.0808 65.3539 53.1181 65.1522 53.1952 64.965C53.2723 64.7777 53.3873 64.6091 53.5327 64.4704C53.6782 64.3317 53.8507 64.2261 54.039 64.1603C54.2274 64.0944 54.4272 64.0697 54.6255 64.0882C54.8082 64.0671 54.9932 64.0888 55.1664 64.1515C55.3397 64.2141 55.4967 64.3163 55.6256 64.4501C55.7544 64.5839 55.8517 64.7459 55.91 64.9237C55.9683 65.1016 55.9862 65.2906 55.9622 65.4766V67.0045L49.3624 67.003ZM54.0344 64.9608C53.9675 65.0379 53.9175 65.1287 53.8877 65.2271C53.8578 65.3255 53.8489 65.4292 53.8614 65.5314C53.8614 66.0975 54.1433 66.3761 54.7498 66.3761H55.1981V65.5719C55.1981 64.9712 54.9618 64.7153 54.5673 64.7153C54.4665 64.7154 54.3669 64.7373 54.275 64.7796C54.1831 64.822 54.1011 64.8837 54.0344 64.9608ZM42.6595 67.003V62.748H43.442V67.003H42.6595ZM35.9229 66.9902V66.3715H37.6784C37.6891 65.9643 37.553 65.5673 37.296 65.2555C37.0389 64.9438 36.6787 64.7389 36.2835 64.6799L36.4712 64.0176C37.0226 64.1005 37.5257 64.3848 37.8871 64.8176C38.2484 65.2504 38.4434 65.8023 38.4359 66.3708H41.0247C41.0442 66.2191 41.0546 66.0665 41.0556 65.9136C41.0556 65.147 40.7465 64.7544 39.8941 64.7544C39.6659 64.7554 39.438 64.7707 39.2117 64.8007V64.1828C39.4633 64.1506 39.7164 64.1332 39.9699 64.1304C41.3037 64.1304 41.8403 64.7273 41.8278 65.8745C41.8251 66.2489 41.7917 66.6223 41.7277 66.9909L35.9229 66.9902ZM56.6593 66.9902V66.3722H58.4178C58.4277 65.9646 58.2909 65.5674 58.0332 65.2557C57.7755 64.944 57.4148 64.7395 57.0192 64.6807L57.2099 64.0193C57.7612 64.1022 58.2643 64.3864 58.6257 64.8192C58.987 65.252 59.182 65.8038 59.1745 66.3722H59.9746C60.0644 66.371 60.1539 66.3814 60.2411 66.403C60.1431 66.2915 60.0882 66.1473 60.0865 65.9975C60.0864 65.853 60.1163 65.7103 60.1741 65.5783C60.232 65.4464 60.3165 65.3284 60.4221 65.2321C60.5277 65.1357 60.6521 65.0633 60.787 65.0194C60.922 64.9755 61.0646 64.9611 61.2054 64.9773C61.9841 64.9773 62.2874 65.5148 62.2874 66.2138V66.3715H62.894V66.3002C62.894 65.0636 62.3971 64.4449 61.2201 64.4449C60.7891 64.4544 60.362 64.5304 59.9533 64.6702L59.8797 64.1071C60.3427 63.9573 60.8249 63.8781 61.3106 63.8721C62.7902 63.8721 63.6359 64.5952 63.6514 66.3431V66.9894L56.6593 66.9902ZM60.83 65.6064C60.7899 65.6474 60.7587 65.6966 60.7384 65.7506C60.7181 65.8047 60.7092 65.8626 60.7122 65.9204C60.7141 65.9905 60.7304 66.0593 60.7601 66.1226C60.7898 66.1858 60.8321 66.242 60.8844 66.2875C60.9367 66.333 60.9979 66.3668 61.0638 66.3867C61.1297 66.4066 61.199 66.4121 61.2672 66.403H61.6404V66.2146C61.6404 65.7934 61.4829 65.4848 61.1369 65.4848H61.1178C61.0108 65.4835 60.9076 65.5253 60.8307 65.6012L60.83 65.6064ZM51.4566 63.2452C51.4566 63.1345 51.4997 63.0282 51.5765 62.9499C51.6532 62.8716 51.7573 62.8276 51.8658 62.8276C51.9744 62.8276 52.0785 62.8716 52.1552 62.9499C52.232 63.0282 52.2751 63.1345 52.2751 63.2452C52.2751 63.3559 52.232 63.462 52.1552 63.5403C52.0785 63.6186 51.9744 63.6626 51.8658 63.6626C51.812 63.6625 51.7587 63.6515 51.709 63.6303C51.6592 63.6091 51.6141 63.5782 51.5762 63.5392C51.5382 63.5002 51.5081 63.454 51.4877 63.4032C51.4673 63.3523 51.457 63.2977 51.4573 63.2428L51.4566 63.2452ZM54.1396 63.2202C54.1396 63.1654 54.1502 63.1112 54.1708 63.0606C54.1914 63.0099 54.2215 62.9639 54.2595 62.9251C54.2975 62.8864 54.3426 62.8555 54.3923 62.8346C54.4419 62.8136 54.4952 62.8029 54.5489 62.8029C54.6027 62.8029 54.6559 62.8136 54.7055 62.8346C54.7552 62.8555 54.8003 62.8864 54.8383 62.9251C54.8763 62.9639 54.9065 63.0099 54.927 63.0606C54.9476 63.1112 54.9582 63.1654 54.9582 63.2202C54.9582 63.2751 54.9476 63.3294 54.927 63.3801C54.9065 63.4307 54.8763 63.4768 54.8383 63.5156C54.8003 63.5543 54.7552 63.5849 54.7055 63.6059C54.6559 63.6269 54.6027 63.6378 54.5489 63.6378C54.495 63.6377 54.4417 63.6267 54.392 63.6056C54.3423 63.5844 54.2971 63.5535 54.2592 63.5145C54.2212 63.4755 54.1912 63.4291 54.1708 63.3783C54.1504 63.3274 54.14 63.273 54.1403 63.218L54.1396 63.2202Z" fill="white"/>
</svg>
