<svg width="136" height="92" viewBox="0 0 136 92" fill="none" xmlns="http://www.w3.org/2000/svg">
<g clip-path="url(#clip0_756_3806)">
<path d="M50.5696 76.0864C50.0885 76.0864 49.6271 75.8926 49.287 75.5474C48.9468 75.2022 48.7556 74.7338 48.7556 74.2457V51.3439H50.5826V72.6225C50.5829 73.0496 50.7503 73.4591 51.048 73.7611C51.3457 74.063 51.7494 74.2325 52.1703 74.2325H83.7986C84.0074 74.2329 84.2142 74.1917 84.4073 74.111C84.6004 74.0303 84.7759 73.9118 84.9238 73.7623C85.0717 73.6126 85.189 73.4348 85.2691 73.239C85.3491 73.0433 85.3903 72.8334 85.3903 72.6215V51.3429H87.2133V74.2447C87.2137 74.4862 87.1672 74.7255 87.0766 74.9488C86.9859 75.172 86.8527 75.3749 86.6847 75.5459C86.5165 75.7169 86.3168 75.8527 86.0969 75.9452C85.877 76.0378 85.6414 76.0853 85.4033 76.0854L50.5696 76.0864ZM85.3883 29.2569V3.45469C85.3884 3.24255 85.3474 3.03244 85.2674 2.83642C85.1875 2.64039 85.0702 2.46239 84.9224 2.31238C84.7746 2.16237 84.599 2.04332 84.4058 1.9622C84.2127 1.88108 84.0056 1.83955 83.7966 1.83968H52.1683C51.9594 1.83968 51.7527 1.88147 51.5597 1.9627C51.3668 2.04393 51.1916 2.16282 51.0441 2.31288C50.8966 2.46288 50.7798 2.64098 50.7002 2.83691C50.6207 3.03285 50.58 3.24279 50.5806 3.45469V29.2569H48.7537V1.83646C48.755 1.34881 48.9469 0.881815 49.2874 0.53766C49.6279 0.193505 50.089 0.00043759 50.5696 0.000977693H85.4013C85.6394 0.000963862 85.8751 0.048541 86.095 0.1411C86.3148 0.23366 86.5146 0.369389 86.6827 0.540388C87.0219 0.885903 87.212 1.35396 87.2113 1.84167V29.2618L85.3883 29.2569Z" fill="#F0B624"/>
<path d="M72.1011 72.7698H63.3726C63.2742 72.7695 63.1799 72.7298 63.1103 72.6592C63.0407 72.5886 63.0015 72.4927 63.0013 72.3928C63.0013 72.2929 63.0404 72.1971 63.11 72.1265C63.1797 72.0558 63.2741 72.0161 63.3726 72.0161H72.1011C72.1996 72.0161 72.2941 72.0558 72.3638 72.1265C72.4334 72.1971 72.4725 72.2929 72.4725 72.3928C72.4725 72.4928 72.4334 72.5887 72.3638 72.6594C72.2941 72.7301 72.1996 72.7698 72.1011 72.7698ZM74.765 65.2131H61.2163C58.9558 65.2057 56.7485 64.517 54.8745 63.2342C52.9691 61.9207 51.4276 60.133 50.3976 58.0423C49.9892 57.2207 49.6542 56.3636 49.3965 55.4814C49.0049 54.1394 48.7885 52.7512 48.7528 51.3521H55.0326C55.2148 55.1107 57.9358 58.0465 61.2173 58.0465H74.766C78.1757 58.0465 80.9507 54.8802 80.9507 50.9885C80.9507 47.0969 78.1767 43.9293 74.766 43.9293H61.2013C59.4945 43.9131 57.8116 43.5196 56.27 42.7761C54.7283 42.0326 53.3649 40.9572 52.2746 39.6244C51.5356 38.7523 50.903 37.7929 50.3906 36.7669C49.9846 35.9525 49.6518 35.1025 49.3965 34.2274C48.5371 31.2768 48.5371 28.1369 49.3965 25.1864C49.6514 24.311 49.9841 23.461 50.3906 22.6468C51.4216 20.557 52.9624 18.7696 54.8665 17.4548C56.7376 16.1723 58.9423 15.4835 61.2003 15.476H75.0703C76.1754 15.5033 77.2703 15.6979 78.3189 16.0531C79.35 16.405 80.3272 16.9023 81.222 17.5302C83.0722 18.8483 84.5671 20.6163 85.5697 22.6723C86.0358 23.6072 86.4048 24.5885 86.6709 25.6008C86.9968 26.818 87.1757 28.071 87.2035 29.332H80.9407C80.7535 25.6506 78.1927 22.7727 74.9832 22.6386H61.2083C57.7986 22.6386 55.0236 25.805 55.0236 29.6956C55.0236 33.3393 57.4132 36.3594 60.5817 36.7211C60.7999 36.6997 61.0001 36.6997 61.2123 36.6997C61.5457 36.6997 61.9001 36.717 62.2965 36.7535H74.76C77.0185 36.7614 79.2238 37.4502 81.0958 38.7324C83.001 40.0456 84.5419 41.8334 85.5707 43.9244C86.0373 44.865 86.4063 45.8522 86.6719 46.8702C87.38 49.5593 87.38 52.39 86.6719 55.0791C86.4072 56.1 86.0381 57.09 85.5707 58.0331C84.539 60.1231 82.9975 61.9105 81.0928 63.2251C79.2248 64.511 77.0222 65.2043 74.765 65.217V65.2131ZM73.6928 2.56187H62.3255C62.1142 2.57529 61.903 2.5328 61.7126 2.43862C61.5222 2.34443 61.3591 2.2017 61.2393 2.02445C61.0443 1.69505 60.9316 1.32241 60.911 0.938682C60.8916 0.753345 60.8342 0.574142 60.7425 0.412664C60.6507 0.251187 60.5267 0.110912 60.3784 0.000976562H75.6379C75.4899 0.110727 75.3663 0.251082 75.2754 0.412664C75.1845 0.574246 75.1283 0.753504 75.1104 0.938682C74.9983 2.03273 74.5368 2.56187 73.6969 2.56187H73.6928ZM71.1901 0.741519C71.049 0.741518 70.9138 0.798369 70.8139 0.899498C70.7141 1.00063 70.6578 1.13778 70.6576 1.28093C70.6578 1.42408 70.7141 1.56123 70.8139 1.66236C70.9138 1.76349 71.049 1.82034 71.1901 1.82034C71.331 1.82007 71.4661 1.76321 71.5657 1.66211C71.6653 1.56101 71.7214 1.42391 71.7217 1.28093C71.7214 1.13865 71.6659 1.00222 71.5671 0.901234C71.4683 0.800249 71.3344 0.742856 71.1942 0.741519H71.1901ZM65.504 0.967947C65.4657 0.967947 65.4291 0.983419 65.4021 1.01085C65.375 1.03828 65.3598 1.07547 65.3598 1.11427V1.44858C65.3598 1.48738 65.375 1.52457 65.4021 1.552C65.4291 1.57943 65.4657 1.5949 65.504 1.5949H69.9778C70.016 1.5949 70.0527 1.57943 70.0797 1.552C70.1068 1.52457 70.1219 1.48738 70.1219 1.44858V1.11427C70.1219 1.07547 70.1068 1.03828 70.0797 1.01085C70.0527 0.983419 70.016 0.967947 69.9778 0.967947H65.504Z" fill="#13120C"/>
<path d="M74.7648 65.5555H61.2161C58.8895 65.5495 56.617 64.8424 54.6871 63.5238C52.7334 62.1774 51.1527 60.3451 50.0961 58.2019C49.6781 57.3617 49.3351 56.4853 49.071 55.5831C48.6715 54.2123 48.4507 52.7943 48.4143 51.3654L48.4053 51.0139H55.3528L55.3688 51.34C55.543 54.9106 58.1108 57.7082 61.2161 57.7082H74.7648C77.9883 57.7082 80.6121 54.6952 80.6121 50.9925C80.6121 47.2899 77.9893 44.2769 74.7648 44.2769H61.1961C59.441 44.2582 57.7109 43.8518 56.1263 43.0859C54.5417 42.32 53.1405 41.2129 52.0202 39.8418C51.2646 38.9492 50.6176 37.9677 50.0931 36.9183C49.6782 36.0866 49.3381 35.2186 49.077 34.3249C48.1992 31.311 48.1992 28.1038 49.077 25.09C49.3374 24.1947 49.6775 23.3253 50.0931 22.4925C51.1507 20.3503 52.7308 18.5183 54.6831 17.1706C56.6105 15.8521 58.8807 15.1449 61.2051 15.1389H75.0832C76.2216 15.167 77.3496 15.3673 78.4298 15.7332C79.492 16.0963 80.4986 16.6093 81.42 17.2569C83.3167 18.6079 84.8494 20.4198 85.8778 22.527C86.3553 23.4829 86.7337 24.4865 87.0071 25.5217C87.34 26.7658 87.5225 28.0463 87.5507 29.3351L87.5587 29.6856H80.6302L80.6131 29.3605C80.4349 25.8589 78.0163 23.1223 74.9851 22.9913H61.2121C57.9887 22.9913 55.3648 26.0042 55.3648 29.7069C55.3648 33.1607 57.6082 36.0274 60.5895 36.387C60.8097 36.3677 61.0159 36.3677 61.2161 36.3677C61.5595 36.3677 61.9169 36.386 62.3173 36.4225H74.7648C77.0895 36.4289 79.3599 37.1361 81.2879 38.4542C83.2411 39.8002 84.8209 41.6327 85.8758 43.7761C86.3535 44.7394 86.7309 45.7505 87.0021 46.7931C87.7253 49.5398 87.7253 52.4311 87.0021 55.1778C86.7314 56.2211 86.3543 57.2329 85.8769 58.1968C84.8188 60.3396 83.238 62.1721 81.2849 63.5197C79.3585 64.8393 77.089 65.5479 74.7648 65.5555ZM49.103 51.6945C49.1621 52.9448 49.3684 54.1835 49.7177 55.384C49.9699 56.2462 50.2976 57.0839 50.6968 57.887C51.6415 59.9243 53.1249 61.6557 54.9817 62.8885C56.8385 64.1213 58.996 64.8072 61.2141 64.8698H74.7648C76.9819 64.8055 79.138 64.1188 80.9936 62.8859C82.8492 61.6531 84.3316 59.9223 85.2762 57.886C85.7324 56.9648 86.0928 55.998 86.3514 55.001C87.0444 52.3695 87.0444 49.5994 86.3514 46.9678C86.0923 45.9712 85.7316 45.0047 85.2752 44.0839C84.3323 42.0463 82.8503 40.3145 80.9943 39.0815C79.1383 37.8486 76.9813 37.163 74.7638 37.1011H62.2693C61.8879 37.0656 61.5425 37.0483 61.2161 37.0483C61.0159 37.0483 60.8157 37.0483 60.6155 37.0676H60.5805H60.5454C58.8967 36.8589 57.3965 35.9962 56.3729 34.6682C55.2699 33.2564 54.6754 31.5045 54.6881 29.7028C54.6695 27.7875 55.3441 25.9318 56.5841 24.4876C57.1625 23.8196 57.8676 23.2769 58.6574 22.8917C59.4543 22.5035 60.3271 22.3021 61.2111 22.3025H75.0001C75.829 22.3457 76.6409 22.5577 77.3874 22.9257C78.134 23.2937 78.8 23.8104 79.3458 24.4449C80.4499 25.7135 81.1206 27.3101 81.2578 28.9968H86.8579C86.8082 27.8814 86.6377 26.775 86.3494 25.6974C86.0879 24.7075 85.7259 23.7479 85.2692 22.8338C84.3651 20.8285 82.9351 19.114 81.1354 17.8778C79.3358 16.6416 77.2358 15.9313 75.0651 15.8246H61.2001C58.983 15.8888 56.8269 16.5756 54.9713 17.8084C53.1157 19.0413 51.6333 20.7721 50.6887 22.8084C50.2916 23.6037 49.9666 24.434 49.7177 25.2891C48.8767 28.1763 48.8767 31.2487 49.7177 34.1359C49.9673 34.9897 50.2923 35.819 50.6887 36.6135C51.1892 37.6149 51.8066 38.5514 52.5277 39.403C53.5867 40.6968 54.9107 41.7411 56.4077 42.4632C57.9047 43.1852 59.5387 43.5678 61.1961 43.5841H74.7648C78.3607 43.5841 81.2869 46.9038 81.2869 50.9844C81.3055 52.8998 80.6308 54.7555 79.3908 56.1997C78.8125 56.8676 78.1073 57.4104 77.3176 57.7956C76.5206 58.1838 75.6478 58.3851 74.7638 58.3847H61.2161C60.3658 58.3766 59.5264 58.1895 58.7509 57.8353C57.9755 57.481 57.281 56.9673 56.7113 56.3267C55.5571 55.0494 54.856 53.4178 54.7191 51.6904L49.103 51.6945Z" fill="#F0B624"/>
<path d="M75.0411 80.5755V78.5967H75.4576V80.5877C75.4576 81.3363 75.7829 81.6543 76.2284 81.6543C76.6739 81.6543 77.0293 81.3282 77.0293 80.5877V78.5967H77.4627V80.5591C77.4627 81.5922 76.9272 82.011 76.2254 82.011C75.5237 82.011 75.0411 81.6218 75.0411 80.5755ZM66.5319 80.2992C66.513 80.08 66.5383 79.8593 66.606 79.6502C66.6737 79.4412 66.7826 79.2481 66.926 79.083C67.0694 78.9179 67.2443 78.7841 67.4402 78.6897C67.6361 78.5953 67.8489 78.5422 68.0656 78.5337C68.2772 78.5367 68.4859 78.5846 68.6783 78.6741C68.8707 78.7635 69.0427 78.8926 69.1831 79.0533C69.3236 79.2139 69.4295 79.4028 69.4941 79.6073C69.5587 79.8118 69.5805 80.0276 69.5582 80.2412C69.5851 80.4625 69.5654 80.6871 69.5005 80.9002C69.4356 81.1132 69.3269 81.3098 69.1815 81.477C69.0362 81.6442 68.8576 81.7783 68.6575 81.8703C68.4573 81.9624 68.2402 82.0103 68.0205 82.011C67.8092 82.0055 67.6013 81.9559 67.4097 81.8654C67.2181 81.7749 67.0469 81.6453 66.9067 81.4847C66.7666 81.3241 66.6606 81.1361 66.5952 80.9321C66.5299 80.7282 66.5067 80.5127 66.5269 80.2992H66.5319ZM66.9814 80.2911C66.9814 81.0103 67.3648 81.6553 68.0446 81.6553C68.7243 81.6553 69.1037 81.0234 69.1037 80.2615C69.1037 79.588 68.7613 78.8893 68.0485 78.8893C67.3358 78.8893 66.9764 79.5587 66.9764 80.2901L66.9814 80.2911ZM51.3495 81.5447C51.1875 81.3832 51.0624 81.1875 50.983 80.9716C50.9036 80.7557 50.8718 80.5247 50.89 80.295C50.8804 80.0576 50.9208 79.821 51.0085 79.6006C51.0962 79.3803 51.2292 79.1814 51.3986 79.0173C51.5679 78.853 51.7696 78.727 51.9906 78.648C52.2115 78.569 52.4465 78.5387 52.6799 78.559C52.9624 78.5526 53.2431 78.6053 53.5048 78.7135L53.3977 79.0691C53.1673 78.9641 52.9163 78.914 52.6639 78.9228C52.4854 78.9084 52.306 78.9334 52.138 78.9962C51.97 79.059 51.8175 79.1579 51.6909 79.2864C51.5643 79.4149 51.4667 79.5698 51.4048 79.7402C51.3429 79.9107 51.3182 80.0926 51.3325 80.2737C51.3144 80.4513 51.3346 80.6308 51.3916 80.7997C51.4486 80.9686 51.5412 81.123 51.6628 81.2521C51.7845 81.3808 51.9324 81.4811 52.096 81.5462C52.2597 81.6113 52.4354 81.6396 52.6109 81.629C52.8044 81.6398 52.998 81.6095 53.1795 81.5405V80.5358H52.5118V80.1884H53.6129V81.8036C53.285 81.9248 52.9388 81.9869 52.5898 81.9874C52.5397 81.9921 52.49 81.9946 52.4406 81.9946C52.0306 81.9971 51.6362 81.8349 51.3434 81.5435L51.3495 81.5447ZM83.1269 81.9772L83.1059 78.6545C83.3784 78.6112 83.6539 78.5901 83.9298 78.5915C84.262 78.5638 84.5925 78.6618 84.8578 78.8668C84.9528 78.9562 85.0281 79.0652 85.0785 79.1864C85.1289 79.3076 85.1533 79.4384 85.1501 79.5699C85.1614 79.8345 85.0693 80.093 84.8938 80.2891C84.7576 80.4161 84.5976 80.5142 84.4235 80.5775C84.2493 80.6408 84.0644 80.6682 83.8797 80.6579C83.7648 80.6618 83.6499 80.6519 83.5373 80.6283V81.9753L83.1269 81.9772ZM83.5063 78.9694L83.5183 80.2749C83.6344 80.3026 83.7535 80.3151 83.8727 80.3124C84.3882 80.3124 84.6976 80.0524 84.6976 79.6014C84.6976 79.1503 84.3843 78.9399 83.9188 78.9399H83.8507C83.7335 78.9374 83.6165 78.947 83.5013 78.9684L83.5063 78.9694ZM60.8818 81.9438C60.7844 81.6838 60.7126 81.4146 60.6676 81.1402C60.5675 80.676 60.3873 80.5004 59.9999 80.4882H59.5874V81.9438H59.1749L59.1629 78.6557C59.4358 78.6115 59.7115 78.589 59.9878 78.5885C60.3304 78.5545 60.6732 78.6517 60.9489 78.8608C61.0336 78.9442 61.1005 79.0444 61.1453 79.1552C61.1901 79.266 61.2118 79.3851 61.2092 79.5049C61.2066 79.6928 61.1453 79.8749 61.0341 80.0252C60.9229 80.1755 60.7676 80.286 60.5905 80.3409C60.721 80.403 60.8337 80.4976 60.9181 80.6162C61.0026 80.7347 61.0559 80.8732 61.073 81.0185C61.1313 81.3332 61.2153 81.6423 61.3243 81.9428L60.8818 81.9438ZM59.5874 78.9603L59.5754 80.1864H60.0129C60.4704 80.1864 60.7596 79.9314 60.7596 79.5505C60.7596 79.1696 60.4503 78.9268 60.0008 78.9268H59.9398C59.8189 78.9259 59.6982 78.9371 59.5794 78.9603H59.5874Z" fill="#13120C"/>
<path d="M94.4031 65.8734C94.0402 65.8534 93.6915 65.7236 93.402 65.5006C93.3007 65.3965 93.2236 65.2707 93.1765 65.1323C93.1293 64.994 93.1134 64.8465 93.1298 64.7011C93.1714 64.2241 93.2827 63.7562 93.4602 63.3125L110.178 16.295C110.265 16.0311 110.405 15.7888 110.591 15.584C110.795 15.384 111.046 15.2399 111.32 15.1653C111.724 15.0464 112.139 14.9734 112.558 14.9478C113.19 14.8933 113.825 14.8738 114.46 14.889C115.285 14.889 115.982 14.9102 116.522 14.9478C116.966 14.9727 117.405 15.0457 117.834 15.1653C118.124 15.2434 118.388 15.3979 118.6 15.6132C118.784 15.8237 118.925 16.0699 119.013 16.3366L135.74 63.346C135.917 63.7896 136.029 64.2578 136.07 64.7348C136.085 64.8778 136.069 65.0222 136.023 65.1581C135.976 65.294 135.901 65.4181 135.802 65.521C135.502 65.7353 135.147 65.8573 134.78 65.8724C134.305 65.9222 133.667 65.9475 132.871 65.9475C132.075 65.9475 131.44 65.9314 130.962 65.8887C130.597 65.8703 130.235 65.8056 129.886 65.6965C129.674 65.6278 129.486 65.4984 129.345 65.3238C129.214 65.1416 129.103 64.9451 129.015 64.7378L125.06 53.3504L122.999 47.0746L122.875 46.719L114.266 20.5664L108.159 39.4943H114.499C114.557 39.3823 114.645 39.2885 114.752 39.223C114.859 39.1575 114.982 39.1228 115.107 39.1226C115.289 39.1229 115.464 39.1964 115.593 39.3272C115.721 39.458 115.794 39.6355 115.794 39.8205C115.794 40.0055 115.721 40.1829 115.593 40.3138C115.464 40.4446 115.289 40.5181 115.107 40.5184C114.98 40.5181 114.856 40.4825 114.748 40.4154C114.64 40.3484 114.553 40.2526 114.495 40.1384H111C110.864 40.1494 110.737 40.2122 110.644 40.314C110.551 40.4158 110.5 40.5493 110.5 40.688C110.5 40.8268 110.551 40.9605 110.644 41.0625C110.737 41.1645 110.864 41.2273 111 41.2386H115.605L116.259 40.4258H117.533V40.4311H117.538L118.285 41.3626H118.948C119.007 41.2538 119.094 41.1631 119.2 41.0999C119.305 41.0367 119.426 41.0032 119.548 41.003C119.731 41.0032 119.905 41.0767 120.034 41.2076C120.163 41.3384 120.236 41.5158 120.236 41.7008C120.236 41.8858 120.163 42.0631 120.034 42.1939C119.905 42.3247 119.731 42.3985 119.548 42.3987C119.419 42.3987 119.292 42.3614 119.182 42.2913C119.072 42.2213 118.984 42.1211 118.928 42.0024H117.978V41.9942L117.237 41.0689H116.562L115.907 41.8816L115.9 41.8754V41.8846H112.891C112.82 41.8839 112.75 41.8976 112.684 41.9248C112.618 41.952 112.558 41.9922 112.508 42.0431C112.457 42.0941 112.418 42.1549 112.391 42.2217C112.364 42.2884 112.35 42.36 112.351 42.4322C112.351 42.504 112.365 42.575 112.392 42.6413C112.419 42.7075 112.459 42.7675 112.509 42.8181C112.559 42.8687 112.619 42.9086 112.684 42.9357C112.75 42.9627 112.82 42.9763 112.891 42.9756H116.627C116.685 42.8624 116.773 42.7676 116.88 42.7013C116.988 42.635 117.111 42.5999 117.237 42.5999C117.419 42.5999 117.594 42.6733 117.723 42.8042C117.852 42.9351 117.925 43.1127 117.925 43.2977C117.924 43.4827 117.852 43.66 117.723 43.7908C117.594 43.9216 117.419 43.9954 117.237 43.9956C117.111 43.9954 116.988 43.9602 116.88 43.8939C116.773 43.8277 116.685 43.7328 116.627 43.6197H106.817L105.636 47.0917H105.706L103.967 52.4757L99.8931 64.6088C99.8237 64.8278 99.7192 65.0336 99.5838 65.2181C99.4333 65.4019 99.2408 65.5456 99.0232 65.6368C98.6919 65.7757 98.3413 65.8617 97.984 65.8917C97.4014 65.9479 96.8164 65.973 96.2312 65.9669H96.0309C95.487 65.9684 94.9434 65.9371 94.4031 65.8734ZM116.885 43.2977C116.885 43.3924 116.923 43.4832 116.988 43.5502C117.054 43.6172 117.144 43.6548 117.237 43.6551C117.33 43.6548 117.42 43.6172 117.485 43.5502C117.551 43.4832 117.588 43.3924 117.588 43.2977C117.588 43.2032 117.551 43.1124 117.485 43.0455C117.419 42.9787 117.33 42.9411 117.237 42.9411C117.191 42.941 117.145 42.95 117.102 42.9679C117.059 42.9858 117.02 43.0122 116.988 43.0453C116.955 43.0784 116.929 43.1178 116.911 43.1611C116.894 43.2044 116.885 43.2508 116.885 43.2977ZM119.198 41.6956C119.198 41.7901 119.235 41.8808 119.301 41.9476C119.367 42.0144 119.456 42.052 119.549 42.0523C119.642 42.052 119.732 42.0144 119.798 41.9476C119.863 41.8808 119.901 41.7901 119.901 41.6956C119.901 41.6011 119.864 41.5105 119.798 41.4437C119.732 41.3768 119.643 41.3393 119.549 41.3393C119.456 41.3393 119.367 41.3768 119.301 41.4437C119.235 41.5105 119.198 41.6011 119.198 41.6956ZM114.753 39.8257C114.753 39.9202 114.79 40.0108 114.856 40.0777C114.922 40.1445 115.011 40.1821 115.105 40.1821C115.198 40.1821 115.287 40.1445 115.353 40.0777C115.419 40.0108 115.456 39.9202 115.456 39.8257C115.456 39.7312 115.419 39.6405 115.353 39.5737C115.287 39.5069 115.198 39.4693 115.105 39.469C115.011 39.4693 114.922 39.5069 114.856 39.5737C114.791 39.6405 114.753 39.7312 114.753 39.8257Z" fill="#13120C"/>
<path d="M1.28033 65.8742C0.917533 65.8545 0.568861 65.725 0.279247 65.5024C0.17786 65.3983 0.100783 65.2725 0.0536605 65.1341C0.00653771 64.9958 -0.00940488 64.8485 0.00697907 64.7031C0.0485653 64.2258 0.159921 63.7573 0.337354 63.3133L17.0484 16.2968C17.1365 16.0336 17.2769 15.7917 17.4609 15.5857C17.6659 15.3867 17.9168 15.2427 18.1907 15.1671C18.5939 15.0483 19.0089 14.9756 19.428 14.9499C20.0605 14.8956 20.6954 14.8758 21.3301 14.8908C22.1549 14.8908 22.8507 14.9123 23.3913 14.9499C23.8349 14.9744 24.2745 15.0471 24.7027 15.1671C24.9939 15.2454 25.2597 15.4001 25.4736 15.6153C25.6559 15.827 25.796 16.0725 25.886 16.3384L42.6131 63.3477C42.7906 63.7914 42.9019 64.2596 42.9435 64.7366C42.9601 64.8837 42.9432 65.0327 42.8939 65.1721C42.8446 65.3114 42.7642 65.4374 42.6591 65.5401C42.3585 65.7547 42.0033 65.8766 41.636 65.8915C41.1625 65.9423 40.5228 65.9667 39.727 65.9667C38.9311 65.9667 38.2964 65.9505 37.8249 65.9089C37.4584 65.8904 37.0955 65.8254 36.7448 65.7157C36.5337 65.6464 36.3465 65.5174 36.2052 65.3439C36.0737 65.1629 35.9641 64.9665 35.8788 64.7589L31.9205 53.3531L29.8583 47.0774L29.7351 46.7218L21.1469 20.5573L15.0402 39.4974H21.3771C21.4357 39.3854 21.5232 39.2916 21.6302 39.2263C21.7373 39.161 21.8598 39.1263 21.9848 39.1264C22.1672 39.1264 22.3421 39.2001 22.4711 39.331C22.6 39.4618 22.6725 39.6392 22.6725 39.8242C22.6722 40.0092 22.5997 40.1867 22.4708 40.3175C22.3419 40.4483 22.1671 40.5219 21.9848 40.5221C21.8582 40.522 21.7342 40.4865 21.6263 40.4195C21.5184 40.3524 21.4308 40.2565 21.3731 40.1422H17.8783C17.7421 40.1532 17.6149 40.2159 17.5222 40.3178C17.4294 40.4196 17.3778 40.5531 17.3778 40.6918C17.3778 40.8306 17.4294 40.9642 17.5221 41.0663C17.6148 41.1683 17.742 41.2311 17.8783 41.2423H22.4833L23.139 40.4247H24.4124L25.1582 41.3562H25.8209C25.8806 41.2476 25.9676 41.1571 26.0732 41.094C26.1788 41.031 26.2991 40.9977 26.4216 40.9976C26.6039 40.9978 26.7786 41.0716 26.9076 41.2024C27.0365 41.3332 27.1091 41.5104 27.1093 41.6954C27.1093 41.8805 27.0368 42.0581 26.9079 42.189C26.7789 42.3198 26.604 42.3933 26.4216 42.3933C26.2918 42.3933 26.1648 42.3563 26.055 42.2862C25.9451 42.2161 25.8571 42.1159 25.8009 41.9973H24.8499V41.9881L24.11 41.0648H23.4343L22.7766 41.8854H19.7624C19.6913 41.8848 19.6208 41.8986 19.555 41.9258C19.4892 41.953 19.4294 41.9931 19.379 42.0439C19.3287 42.0949 19.2888 42.1557 19.2618 42.2225C19.2349 42.2892 19.2212 42.3608 19.2218 42.433C19.2218 42.5047 19.2357 42.5758 19.2629 42.6421C19.29 42.7083 19.3298 42.7683 19.3799 42.8189C19.4301 42.8694 19.4897 42.9094 19.5551 42.9365C19.6206 42.9635 19.6907 42.977 19.7613 42.9764H23.4974C23.5555 42.8632 23.643 42.7683 23.7505 42.7021C23.858 42.6358 23.9813 42.6009 24.107 42.6007C24.2894 42.6009 24.4642 42.6744 24.5931 42.8053C24.722 42.9361 24.7945 43.1135 24.7948 43.2985C24.7945 43.4835 24.722 43.6608 24.5931 43.7916C24.4642 43.9224 24.2894 43.9962 24.107 43.9964C23.9813 43.9962 23.858 43.961 23.7505 43.8947C23.643 43.8285 23.5555 43.7336 23.4974 43.6205H13.6928L12.5085 47.0935H12.5786L10.8387 52.4774L6.76527 64.6106C6.6959 64.8296 6.59142 65.0354 6.45598 65.2199C6.30604 65.4025 6.11515 65.5462 5.89934 65.6386C5.56647 65.777 5.2147 65.8629 4.85622 65.8935C4.27364 65.9499 3.68855 65.975 3.10335 65.9687H2.90312C2.36084 65.9696 1.81895 65.938 1.28033 65.8742ZM23.7627 43.2985C23.7629 43.393 23.8 43.4835 23.8659 43.5503C23.9317 43.6171 24.021 43.6547 24.1141 43.6549C24.2072 43.6547 24.2964 43.6171 24.3623 43.5503C24.4281 43.4835 24.4652 43.393 24.4655 43.2985C24.4655 43.204 24.4284 43.1132 24.3625 43.0463C24.2966 42.9795 24.2073 42.9419 24.1141 42.9419C24.0209 42.9419 23.9315 42.9795 23.8656 43.0463C23.7997 43.1132 23.7627 43.204 23.7627 43.2985ZM26.0752 41.6964C26.0752 41.791 26.1122 41.8818 26.1781 41.9487C26.244 42.0155 26.3334 42.0531 26.4266 42.0531C26.5198 42.0531 26.6091 42.0155 26.675 41.9487C26.7409 41.8818 26.778 41.791 26.778 41.6964C26.778 41.6019 26.7409 41.5113 26.675 41.4445C26.6091 41.3776 26.5198 41.34 26.4266 41.34C26.3334 41.34 26.244 41.3776 26.1781 41.4445C26.1122 41.5113 26.0752 41.6019 26.0752 41.6964ZM21.6304 39.8265C21.6304 39.8733 21.6395 39.9196 21.6571 39.9629C21.6748 40.0061 21.7007 40.0453 21.7333 40.0784C21.7659 40.1116 21.8046 40.1379 21.8473 40.1558C21.8899 40.1737 21.9356 40.1829 21.9818 40.1829C22.0279 40.1829 22.0736 40.1737 22.1162 40.1558C22.1589 40.1379 22.1976 40.1116 22.2303 40.0784C22.2629 40.0453 22.2887 40.0061 22.3064 39.9629C22.324 39.9196 22.3332 39.8733 22.3332 39.8265C22.3332 39.7319 22.2962 39.6411 22.2303 39.5743C22.1644 39.5074 22.075 39.4698 21.9818 39.4698C21.8887 39.4698 21.7995 39.5074 21.7336 39.574C21.6678 39.6407 21.6306 39.7321 21.6304 39.8265Z" fill="#13120C"/>
<path d="M60.1442 92.6211L60.2063 91.7385C60.6203 91.8237 61.0412 91.87 61.4636 91.8766C62.3005 91.8766 62.8571 91.5586 62.8571 90.7886V90.6505H62.2265C60.6598 90.6505 60.0701 89.914 60.0701 88.755C60.0569 88.4714 60.1048 88.1881 60.2105 87.9252C60.3161 87.6622 60.477 87.4259 60.6819 87.2325C60.8868 87.0391 61.1308 86.8934 61.3968 86.8054C61.6629 86.7175 61.9446 86.6895 62.2224 86.7233C62.7946 86.7239 63.3629 86.82 63.9043 87.0078V90.685C63.9043 91.8146 63.1875 92.7268 61.3805 92.7268C60.9664 92.7221 60.5532 92.6868 60.1442 92.6211ZM62.0903 87.5541C61.9534 87.5548 61.8181 87.5851 61.6935 87.6427C61.5689 87.7003 61.4578 87.784 61.3675 87.8885C61.2772 87.9928 61.2098 88.1153 61.1696 88.2481C61.1294 88.3808 61.1174 88.5207 61.1343 88.6585C61.1343 89.3828 61.4966 89.8013 62.3425 89.8013H62.8581V87.7005C62.6244 87.604 62.3746 87.5543 62.1223 87.5541H62.0903ZM67.1328 90.6505V84.8938H68.1969V89.8023H70.0068V86.8106H71.071V89.8023H72.1962C72.3495 89.7986 72.5023 89.8184 72.6497 89.8611C72.4857 89.7191 72.3585 89.5386 72.2794 89.3351C72.2004 89.1315 72.1718 88.9113 72.1962 88.694C72.1897 88.4193 72.2406 88.1465 72.3454 87.8932C72.4502 87.6398 72.6067 87.4117 72.8044 87.2241C73.0022 87.0364 73.2369 86.8935 73.493 86.8044C73.7491 86.7153 74.0209 86.682 74.2905 86.707C74.539 86.6784 74.7906 86.7077 75.0263 86.7925C75.2619 86.8773 75.4754 87.0155 75.6507 87.1965C75.8259 87.3775 75.9582 87.5967 76.0375 87.8374C76.1168 88.078 76.1411 88.3338 76.1085 88.5853V90.6525L67.1328 90.6505ZM73.4866 87.8875C73.3957 87.9919 73.3277 88.1147 73.2871 88.2478C73.2466 88.3809 73.2344 88.5212 73.2514 88.6595C73.2514 89.4254 73.6348 89.8023 74.4597 89.8023H75.0693V88.7143C75.0693 87.9016 74.748 87.5554 74.2114 87.5554C74.0743 87.5555 73.9388 87.5852 73.8139 87.6424C73.6889 87.6997 73.5774 87.7832 73.4866 87.8875ZM58.0169 90.6505V84.8938H59.081V90.6505H58.0169ZM48.855 90.6331V89.7961H51.2426C51.2571 89.2452 51.072 88.708 50.7224 88.2863C50.3728 87.8645 49.8829 87.5874 49.3455 87.5075L49.6008 86.6115C50.3506 86.7236 51.0349 87.1082 51.5263 87.6938C52.0178 88.2793 52.283 89.0261 52.2727 89.7951H55.7935C55.8201 89.59 55.8341 89.3835 55.8355 89.1766C55.8355 88.1394 55.4151 87.6082 54.2558 87.6082C53.9455 87.6096 53.6356 87.6304 53.3278 87.671V86.8349C53.6699 86.7914 54.0142 86.7678 54.3589 86.764C56.1729 86.764 56.9027 87.5716 56.8856 89.1238C56.8821 89.6303 56.8366 90.1354 56.7495 90.6341L48.855 90.6331ZM77.0565 90.6331V89.7971H79.4481C79.4616 89.2456 79.2755 88.7082 78.9251 88.2865C78.5746 87.8648 78.084 87.5881 77.546 87.5085L77.8053 86.6137C78.5552 86.7259 79.2394 87.1104 79.7308 87.696C80.2222 88.2816 80.4875 89.028 80.4772 89.7971H81.5654C81.6874 89.7955 81.8092 89.8095 81.9278 89.8388C81.7945 89.6878 81.7198 89.4928 81.7176 89.2902C81.7175 89.0947 81.7581 88.9015 81.8367 88.723C81.9154 88.5445 82.0303 88.3848 82.1739 88.2545C82.3176 88.1242 82.4867 88.0262 82.6703 87.9668C82.8539 87.9074 83.0477 87.8879 83.2392 87.9098C84.2983 87.9098 84.7108 88.6371 84.7108 89.5828V89.7961H85.5357V89.6996C85.5357 88.0266 84.86 87.1896 83.2592 87.1896C82.6731 87.2024 82.0922 87.3052 81.5364 87.4944L81.4362 86.7325C82.066 86.5298 82.7218 86.4227 83.3823 86.4146C85.3945 86.4146 86.5448 87.3928 86.5658 89.7577V90.6321L77.0565 90.6331ZM82.7287 88.7609C82.6742 88.8164 82.6318 88.883 82.6042 88.9561C82.5766 89.0293 82.5644 89.1076 82.5685 89.1858C82.5711 89.2806 82.5933 89.3737 82.6336 89.4593C82.674 89.5449 82.7316 89.621 82.8027 89.6825C82.8739 89.7441 82.957 89.7897 83.0467 89.8167C83.1363 89.8436 83.2306 89.8511 83.3233 89.8388H83.8308V89.5838C83.8308 89.0139 83.6166 88.5965 83.1461 88.5965H83.1201C82.9746 88.5947 82.8342 88.6513 82.7296 88.754L82.7287 88.7609ZM69.9808 85.5664C69.9808 85.4166 70.0395 85.2728 70.1439 85.1669C70.2483 85.0609 70.3898 85.0014 70.5374 85.0014C70.6851 85.0014 70.8266 85.0609 70.931 85.1669C71.0354 85.2728 71.094 85.4166 71.094 85.5664C71.094 85.7162 71.0354 85.8598 70.931 85.9657C70.8266 86.0716 70.6851 86.1311 70.5374 86.1311C70.4642 86.131 70.3917 86.1161 70.3241 86.0874C70.2565 86.0588 70.1951 86.0169 70.1435 85.9642C70.0918 85.9114 70.051 85.849 70.0232 85.7802C69.9955 85.7114 69.9815 85.6375 69.9819 85.5632L69.9808 85.5664ZM73.6298 85.5327C73.6298 85.4585 73.6442 85.3852 73.6722 85.3166C73.7002 85.2481 73.7411 85.1858 73.7928 85.1334C73.8445 85.0809 73.9059 85.0392 73.9734 85.0109C74.041 84.9825 74.1133 84.968 74.1864 84.968C74.2595 84.968 74.3319 84.9825 74.3994 85.0109C74.4669 85.0392 74.5283 85.0809 74.58 85.1334C74.6317 85.1858 74.6727 85.2481 74.7006 85.3166C74.7286 85.3852 74.743 85.4585 74.743 85.5327C74.743 85.6068 74.7286 85.6804 74.7006 85.7489C74.6727 85.8174 74.6317 85.8797 74.58 85.9322C74.5283 85.9846 74.4669 86.0261 74.3994 86.0545C74.3319 86.0828 74.2595 86.0976 74.1864 86.0976C74.1132 86.0975 74.0406 86.0826 73.973 86.054C73.9054 86.0253 73.844 85.9835 73.7924 85.9307C73.7408 85.878 73.6999 85.8152 73.6722 85.7464C73.6445 85.6776 73.6304 85.604 73.6308 85.5297L73.6298 85.5327Z" fill="black"/>
</g>
<defs>
<clipPath id="clip0_756_3806">
<rect width="136" height="92" fill="white"/>
</clipPath>
</defs>
</svg>
