<svg width="163" height="173" viewBox="0 0 163 173" fill="none" xmlns="http://www.w3.org/2000/svg">
<path d="M114.477 48.9204V105.09C114.116 118.576 105.261 145.728 72.7362 146.45C64.7856 146.39 48.5953 146.197 47.4388 145.908C31.9592 144.283 1 147.426 1 173V1L153.578 1.01237C153.857 1.01023 154.135 1.01028 154.411 1.01243L153.578 1.01237C135.296 1.15198 110.497 10.6359 114.477 48.9204Z" fill="#FEFEFE"/>
<path d="M162 1.23917C159.758 0.88859 157.071 1.03319 154.411 1.01243M154.411 1.01243C136.06 0.869229 110.437 10.0516 114.477 48.9204V105.09C114.116 118.576 105.261 145.728 72.7362 146.45C64.7856 146.39 48.5953 146.197 47.4388 145.908C31.9592 144.283 1 147.426 1 173V1L154.411 1.01243Z" stroke="#FEFEFE"/>
</svg>
