<svg width="24" height="24" viewBox="0 0 24 24" fill="none" xmlns="http://www.w3.org/2000/svg">
<path d="M3.25646 7.82578H3.19498C2.40687 7.82578 1.76428 8.47041 1.76428 9.25648V15.4855C1.76428 16.2747 2.40687 16.9172 3.19498 16.9172H3.25751C4.04562 16.9172 4.68821 16.2726 4.68821 15.4855V9.25643C4.68717 8.47041 4.04358 7.82578 3.25646 7.82578ZM5.3728 17.8898C5.3728 18.6134 5.96412 19.2026 6.68767 19.2026H8.09276V22.5672C8.09276 23.3574 8.73739 24 9.52346 24H9.58494C10.3741 24 11.0177 23.3564 11.0177 22.5672V19.2026H12.9813V22.5672C12.9813 23.3574 13.628 24 14.4141 24H14.4745C15.2637 24 15.9062 23.3564 15.9062 22.5672V19.2026H17.3123C18.0348 19.2026 18.6262 18.6134 18.6262 17.8898V8.05431H5.3728V17.8898ZM15.3005 2.08967L16.4166 0.366916C16.4884 0.258258 16.4566 0.109691 16.3469 0.0389468C16.2383 -0.032795 16.0897 -0.00305301 16.0189 0.108646L14.8619 1.89088C13.9939 1.53526 13.0244 1.33543 12.0005 1.33543C10.9756 1.33543 10.0082 1.53526 9.1381 1.89088L7.98311 0.108646C7.91241 -0.00305301 7.76275 -0.032795 7.65309 0.0389468C7.54344 0.109643 7.51165 0.258258 7.5834 0.366916L8.70048 2.08967C6.68662 3.07662 5.32871 4.93672 5.32871 7.07045C5.32871 7.20163 5.33693 7.33076 5.34819 7.45885H18.6538C18.6651 7.33076 18.6723 7.20163 18.6723 7.07045C18.6723 4.93672 17.3133 3.07662 15.3005 2.08967ZM8.9157 5.17447C8.56212 5.17447 8.27516 4.88955 8.27516 4.53497C8.27516 4.1804 8.56212 3.89647 8.9157 3.89647C9.27132 3.89647 9.55625 4.18035 9.55625 4.53497C9.55625 4.88959 9.26928 5.17447 8.9157 5.17447ZM15.0843 5.17447C14.7307 5.17447 14.4438 4.88955 14.4438 4.53497C14.4438 4.1804 14.7307 3.89647 15.0843 3.89647C15.4389 3.89647 15.7238 4.18035 15.7238 4.53497C15.7238 4.88955 15.4389 5.17447 15.0843 5.17447ZM20.804 7.82578H20.7445C19.9564 7.82578 19.3118 8.47041 19.3118 9.25648V15.4855C19.3118 16.2747 19.9575 16.9172 20.7445 16.9172H20.805C21.5941 16.9172 22.2357 16.2726 22.2357 15.4855V9.25643C22.2357 8.47041 21.5921 7.82578 20.804 7.82578Z" fill="white"/>
</svg>
