<svg width="24" height="24" viewBox="0 0 24 24" fill="none" xmlns="http://www.w3.org/2000/svg">
<g clip-path="url(#clip0_290_9529)">
<path d="M18.546 12.763C18.57 10.893 19.55 9.16603 21.143 8.18703C20.134 6.74503 18.503 5.86403 16.744 5.80903C14.893 5.61503 13.099 6.91603 12.156 6.91603C11.195 6.91603 9.74299 5.82803 8.17899 5.86003C6.12199 5.92703 4.24999 7.06803 3.24899 8.86703C1.11799 12.557 2.70699 17.981 4.74899 20.964C5.77099 22.425 6.96399 24.056 8.52699 23.999C10.056 23.936 10.627 23.024 12.472 23.024C14.3 23.024 14.836 23.999 16.43 23.962C18.07 23.935 19.104 22.495 20.09 21.02C20.824 19.979 21.389 18.829 21.763 17.612C19.815 16.788 18.548 14.879 18.546 12.763Z" fill="white"/>
<path d="M15.535 3.847C16.429 2.773 16.87 1.393 16.763 0C15.397 0.144 14.134 0.797 13.228 1.829C12.333 2.848 11.879 4.18 11.967 5.534C13.352 5.548 14.667 4.926 15.535 3.847Z" fill="white"/>
</g>
<defs>
<clipPath id="clip0_290_9529">
<rect width="24" height="24" fill="white"/>
</clipPath>
</defs>
</svg>
