<svg width="161" height="328" viewBox="0 0 161 328" fill="none" xmlns="http://www.w3.org/2000/svg">
<g opacity="0.2">
<path d="M7.83795 327.514C5.76145 327.514 3.77011 326.68 2.3018 325.194C0.833496 323.708 0.00843925 321.692 0.00843925 319.59V221.008H7.89412V312.603C7.89527 314.442 8.61788 316.205 9.90293 317.504C11.188 318.804 12.9303 319.534 14.7471 319.534H151.261C152.163 319.535 153.055 319.358 153.889 319.011C154.722 318.663 155.48 318.153 156.118 317.51C156.756 316.865 157.263 316.1 157.608 315.257C157.954 314.414 158.132 313.511 158.132 312.599V221.004H166V319.586C166.002 320.625 165.801 321.656 165.41 322.617C165.018 323.578 164.444 324.451 163.719 325.187C162.993 325.923 162.131 326.508 161.182 326.906C160.233 327.305 159.215 327.509 158.188 327.509L7.83795 327.514ZM158.123 125.933V14.8667C158.124 13.9535 157.946 13.0491 157.601 12.2053C157.256 11.3615 156.75 10.5953 156.112 9.94957C155.474 9.30385 154.716 8.79138 153.883 8.44219C153.049 8.09299 152.155 7.91424 151.253 7.91482H14.7384C13.8369 7.91478 12.9443 8.09466 12.1116 8.44432C11.279 8.79398 10.5227 9.30576 9.88605 9.9517C9.24939 10.5974 8.7451 11.364 8.4018 12.2074C8.05849 13.0508 7.88288 13.9545 7.88542 14.8667V125.933H0V7.90094C0.00572241 5.80182 0.834093 3.79161 2.30365 2.31018C3.77321 0.82875 5.76369 -0.00232004 7.83795 4.86479e-06H158.179C159.207 -5.46682e-05 160.224 0.204744 161.173 0.60317C162.122 1.0016 162.984 1.58585 163.71 2.32193C165.174 3.80921 165.995 5.824 165.991 7.92336V125.955L158.123 125.933Z" fill="#F0B624"/>
<path d="M100.801 312.932H63.1193C62.6944 312.931 62.2874 312.76 61.9869 312.457C61.6865 312.153 61.5172 311.741 61.5161 311.311C61.5161 310.881 61.6849 310.47 61.9856 310.166C62.2863 309.862 62.6941 309.691 63.1193 309.691H100.801C101.227 309.691 101.634 309.862 101.935 310.166C102.236 310.47 102.405 310.881 102.405 311.311C102.405 311.741 102.236 312.154 101.935 312.458C101.634 312.762 101.227 312.932 100.801 312.932ZM112.301 280.436H53.8102C44.0514 280.404 34.5221 277.442 26.4317 271.926C18.206 266.277 11.5513 258.59 7.10442 249.599C5.34141 246.066 3.89503 242.38 2.78262 238.586C1.09219 232.815 0.157892 226.845 0.00367208 220.829H27.1144C27.901 236.992 39.6478 249.617 53.8147 249.617H112.306C127.026 249.617 139.006 236 139.006 219.265C139.006 202.53 127.03 188.908 112.306 188.908H53.7456C46.3769 188.838 39.1118 187.146 32.4562 183.949C25.8007 180.751 19.9145 176.127 15.2078 170.395C12.0173 166.645 9.28651 162.519 7.07435 158.107C5.32142 154.605 3.88489 150.95 2.78262 147.186C-0.927539 134.498 -0.927539 120.995 2.78262 108.306C3.88282 104.542 5.31943 100.887 7.07435 97.3852C11.5253 88.3985 18.1772 80.712 26.3972 75.0578C34.475 69.5426 43.9931 66.5804 53.7411 66.5481H113.62C118.39 66.6655 123.117 67.5023 127.644 69.0299C132.096 70.5433 136.314 72.6819 140.177 75.3821C148.165 81.0502 154.619 88.6533 158.947 97.4951C160.959 101.515 162.552 105.735 163.701 110.088C165.108 115.323 165.88 120.711 166 126.134H138.963C138.155 110.303 127.099 97.9267 113.244 97.35H53.7756C39.0556 97.35 27.0756 110.967 27.0756 127.698C27.0756 143.367 37.3918 156.355 51.0703 157.91C52.0124 157.818 52.8768 157.818 53.7931 157.818C55.2322 157.818 56.7622 157.892 58.4736 158.049H112.28C122.03 158.083 131.551 161.045 139.633 166.559C147.858 172.206 154.51 179.895 158.951 188.887C160.965 192.932 162.559 197.177 163.705 201.555C166.762 213.119 166.762 225.292 163.705 236.856C162.562 241.246 160.969 245.504 158.951 249.559C154.497 258.547 147.843 266.233 139.62 271.887C131.555 277.417 122.046 280.398 112.301 280.453V280.436ZM107.673 11.0128H58.5989C57.6863 11.0705 56.7745 10.8878 55.9526 10.4827C55.1307 10.0777 54.4267 9.46393 53.9096 8.70166C53.0675 7.28515 52.5809 5.68263 52.4921 4.03248C52.4083 3.23546 52.1605 2.46482 51.7646 1.77041C51.3686 1.076 50.8333 0.472761 50.193 0H116.07C115.431 0.471967 114.898 1.07555 114.505 1.77041C114.113 2.46527 113.87 3.23614 113.793 4.03248C113.309 8.73728 111.316 11.0128 107.69 11.0128H107.673ZM96.8684 3.1846C96.2594 3.1846 95.6753 3.42908 95.2443 3.86397C94.8132 4.29886 94.5704 4.88866 94.5693 5.50426C94.5704 6.11987 94.8132 6.70967 95.2443 7.14456C95.6753 7.57945 96.2594 7.82392 96.8684 7.82392C97.4767 7.82277 98.0597 7.57826 98.4899 7.14349C98.92 6.70872 99.1621 6.11911 99.1633 5.50426C99.1622 4.89242 98.9223 4.30571 98.4959 3.87143C98.0695 3.43716 97.4911 3.19035 96.8858 3.1846H96.8684ZM72.3206 4.15833C72.1555 4.15833 71.9973 4.22486 71.8806 4.34283C71.7639 4.4608 71.6983 4.62073 71.6983 4.78757V6.22522C71.6983 6.39206 71.7639 6.55199 71.8806 6.66996C71.9973 6.78793 72.1555 6.85447 72.3206 6.85447H91.6347C91.7997 6.85447 91.958 6.78793 92.0747 6.66996C92.1914 6.55199 92.2569 6.39206 92.2569 6.22522V4.78757C92.2569 4.62073 92.1914 4.4608 92.0747 4.34283C91.958 4.22486 91.7997 4.15833 91.6347 4.15833H72.3206Z" fill="#A7A2A2"/>
</g>
</svg>
