<svg width="770" height="557" viewBox="0 0 770 557" fill="none" xmlns="http://www.w3.org/2000/svg">
<g opacity="0.3">
<path d="M0 347.332C0 349.541 1.79086 351.332 4 351.332C6.20914 351.332 8 349.541 8 347.332C8 345.123 6.20914 343.332 4 343.332C1.79086 343.332 0 345.123 0 347.332ZM74.3299 347.332V348.082C74.5277 348.082 74.7175 348.004 74.858 347.865L74.3299 347.332ZM154.074 268.271V267.521C153.876 267.521 153.687 267.6 153.546 267.739L154.074 268.271ZM222.189 268.271L222.716 267.738C222.575 267.599 222.386 267.521 222.189 267.521V268.271ZM271.475 316.924L270.948 317.458C271.089 317.596 271.278 317.674 271.475 317.674V316.924ZM342.359 316.924L342.889 316.393C342.748 316.253 342.558 316.174 342.359 316.174V316.924ZM426.533 353.966L427.056 354.504C427.065 354.496 427.074 354.487 427.082 354.478L426.533 353.966ZM478.589 298.126V297.376C478.381 297.376 478.182 297.463 478.04 297.615L478.589 298.126ZM541.166 298.126L541.696 297.596C541.555 297.455 541.364 297.376 541.166 297.376V298.126ZM589.344 346.226L588.815 346.757C588.955 346.897 589.146 346.976 589.344 346.976V346.226ZM753.14 346.226C753.14 348.435 754.93 350.226 757.14 350.226C759.349 350.226 761.14 348.435 761.14 346.226C761.14 344.017 759.349 342.226 757.14 342.226C754.93 342.226 753.14 344.017 753.14 346.226ZM373.924 393.22L373.228 393.499C373.342 393.784 373.618 393.97 373.924 393.97V393.22ZM397.183 393.22V393.97C397.477 393.97 397.743 393.799 397.865 393.532L397.183 393.22ZM406.044 373.87L405.521 373.332C405.454 373.396 405.4 373.473 405.362 373.557L406.044 373.87ZM366.172 373.87H365.422C365.422 373.965 365.44 374.06 365.475 374.149L366.172 373.87ZM366.172 340.697H366.922C366.922 340.498 366.842 340.307 366.701 340.167L366.172 340.697ZM4 348.082H74.3299V346.582H4V348.082ZM74.858 347.865L154.602 268.804L153.546 267.739L73.8019 346.799L74.858 347.865ZM154.074 269.021H222.189V267.521H154.074V269.021ZM221.662 268.805L270.948 317.458L272.002 316.39L222.716 267.738L221.662 268.805ZM271.475 317.674H342.359V316.174H271.475V317.674ZM427.082 354.478L479.137 298.638L478.04 297.615L425.985 353.455L427.082 354.478ZM478.589 298.876H541.166V297.376H478.589V298.876ZM540.636 298.657L588.815 346.757L589.874 345.695L541.696 297.596L540.636 298.657ZM589.344 346.976H662.443V345.476H589.344V346.976ZM662.443 346.976H757.14V345.476H662.443V346.976ZM373.924 393.97H397.183V392.47H373.924V393.97ZM397.865 393.532L406.726 374.182L405.362 373.557L396.501 392.908L397.865 393.532ZM406.566 374.408L427.056 354.504L426.011 353.428L405.521 373.332L406.566 374.408ZM365.475 374.149L373.228 393.499L374.621 392.941L366.868 373.591L365.475 374.149ZM341.829 317.455L365.642 341.228L366.701 340.167L342.889 316.393L341.829 317.455ZM366.922 373.87V340.697H365.422V373.87H366.922Z" fill="#A7A2A2" fill-opacity="0.5"/>
<path d="M563.193 285.41C563.193 287.619 564.984 289.41 567.193 289.41C569.402 289.41 571.193 287.619 571.193 285.41C571.193 283.201 569.402 281.41 567.193 281.41C564.984 281.41 563.193 283.201 563.193 285.41ZM466.959 285.41V284.66C466.761 284.66 466.57 284.739 466.429 284.879L466.959 285.41ZM394.291 353.966C394.291 356.175 396.082 357.966 398.291 357.966C400.5 357.966 402.291 356.175 402.291 353.966C402.291 351.757 400.5 349.966 398.291 349.966C396.082 349.966 394.291 351.757 394.291 353.966ZM567.193 284.66H466.959V286.16H567.193V284.66ZM466.429 284.879L397.761 353.435L398.821 354.497L467.489 285.941L466.429 284.879Z" fill="#A7A2A2" fill-opacity="0.5"/>
<path d="M329.499 333.51C329.499 335.719 331.289 337.51 333.499 337.51C335.708 337.51 337.499 335.719 337.499 333.51C337.499 331.301 335.708 329.51 333.499 329.51C331.289 329.51 329.499 331.301 329.499 333.51ZM333.499 369.999L334.028 370.53C334.169 370.389 334.249 370.198 334.249 369.999H333.499ZM313.009 390.455L313.023 391.205C313.217 391.201 313.402 391.123 313.539 390.986L313.009 390.455ZM284.766 391.008L284.751 390.258C284.559 390.262 284.376 390.339 284.239 390.474L284.766 391.008ZM236.587 438.555L236.06 438.021C235.919 438.16 235.839 438.35 235.837 438.548L236.587 438.555ZM232.033 496.606C232.033 498.816 233.824 500.606 236.033 500.606C238.243 500.606 240.033 498.816 240.033 496.606C240.033 494.397 238.243 492.606 236.033 492.606C233.824 492.606 232.033 494.397 232.033 496.606ZM332.749 333.51V369.999H334.249V333.51H332.749ZM332.969 369.468L312.479 389.925L313.539 390.986L334.028 370.53L332.969 369.468ZM312.994 389.706L284.751 390.258L284.781 391.758L313.023 391.205L312.994 389.706ZM284.239 390.474L236.06 438.021L237.114 439.089L285.293 391.542L284.239 390.474ZM235.837 438.548L235.283 496.599L236.783 496.614L237.337 438.562L235.837 438.548Z" fill="#A7A2A2" fill-opacity="0.5"/>
<path d="M193.823 418.1C193.823 420.309 195.614 422.1 197.823 422.1C200.032 422.1 201.823 420.309 201.823 418.1C201.823 415.89 200.032 414.1 197.823 414.1C195.614 414.1 193.823 415.89 193.823 418.1ZM212.775 403.172L212.764 402.422C212.569 402.425 212.383 402.503 212.245 402.641L212.775 403.172ZM248.647 402.619C248.647 404.828 250.438 406.619 252.647 406.619C254.856 406.619 256.647 404.828 256.647 402.619C256.647 400.41 254.856 398.619 252.647 398.619C250.438 398.619 248.647 400.41 248.647 402.619ZM198.353 418.63L213.305 403.703L212.245 402.641L197.293 417.569L198.353 418.63ZM212.785 403.922L252.657 403.369L252.636 401.869L212.764 402.422L212.785 403.922Z" fill="#A7A2A2" fill-opacity="0.5"/>
<path d="M298.487 353.413C298.487 355.622 300.278 357.413 302.487 357.413C304.696 357.413 306.487 355.622 306.487 353.413C306.487 351.204 304.696 349.413 302.487 349.413C300.278 349.413 298.487 351.204 298.487 353.413ZM280.336 353.413V352.663C280.14 352.663 279.951 352.74 279.811 352.877L280.336 353.413ZM252.647 380.504L252.657 381.254C252.85 381.251 253.034 381.174 253.171 381.04L252.647 380.504ZM212.775 381.057L212.764 380.307C212.572 380.309 212.388 380.386 212.251 380.52L212.775 381.057ZM187.301 405.936L186.777 405.399C186.632 405.54 186.551 405.734 186.551 405.936H187.301ZM187.301 445.742H186.551C186.551 445.946 186.633 446.14 186.78 446.282L187.301 445.742ZM204.468 462.328H205.218C205.218 462.125 205.135 461.93 204.989 461.789L204.468 462.328ZM204.468 520.38H203.718C203.718 520.579 203.797 520.77 203.938 520.911L204.468 520.38ZM233.141 552.999C233.141 555.208 234.932 556.999 237.141 556.999C239.35 556.999 241.141 555.208 241.141 552.999C241.141 550.79 239.35 548.999 237.141 548.999C234.932 548.999 233.141 550.79 233.141 552.999ZM302.487 352.663H280.336V354.163H302.487V352.663ZM279.811 352.877L252.122 379.968L253.171 381.04L280.86 353.949L279.811 352.877ZM252.636 379.754L212.764 380.307L212.785 381.807L252.657 381.254L252.636 379.754ZM212.251 380.52L186.777 405.399L187.825 406.472L213.299 381.593L212.251 380.52ZM186.551 405.936V445.742H188.051V405.936H186.551ZM186.78 446.282L203.947 462.868L204.989 461.789L187.822 445.203L186.78 446.282ZM203.718 462.328V520.38H205.218V462.328H203.718ZM203.938 520.911L236.611 553.53L237.671 552.468L204.998 519.849L203.938 520.911Z" fill="#A7A2A2" fill-opacity="0.5"/>
<path d="M482.342 321.899C482.342 324.109 484.132 325.899 486.342 325.899C488.551 325.899 490.342 324.109 490.342 321.899C490.342 319.69 488.551 317.899 486.342 317.899C484.132 317.899 482.342 319.69 482.342 321.899ZM434.163 369.999C434.163 372.208 435.954 373.999 438.163 373.999C440.372 373.999 442.163 372.208 442.163 369.999C442.163 367.79 440.372 365.999 438.163 365.999C435.954 365.999 434.163 367.79 434.163 369.999ZM485.812 321.369L437.633 369.468L438.693 370.53L486.871 322.43L485.812 321.369Z" fill="#A7A2A2" fill-opacity="0.5"/>
<path d="M643.491 365.023C643.491 367.233 645.282 369.023 647.491 369.023C649.7 369.023 651.491 367.233 651.491 365.023C651.491 362.814 649.7 361.023 647.491 361.023C645.282 361.023 643.491 362.814 643.491 365.023ZM723.913 365.023L724.443 364.493C724.302 364.352 724.111 364.273 723.913 364.273V365.023ZM737.757 378.845L737.227 379.376C737.368 379.516 737.559 379.595 737.757 379.595V378.845ZM762 378.845C762 381.054 763.791 382.845 766 382.845C768.209 382.845 770 381.054 770 378.845C770 376.636 768.209 374.845 766 374.845C763.791 374.845 762 376.636 762 378.845ZM647.491 365.773H723.913V364.273H647.491V365.773ZM723.383 365.554L737.227 379.376L738.287 378.314L724.443 364.493L723.383 365.554ZM737.757 379.595H766V378.095H737.757V379.595Z" fill="#A7A2A2" fill-opacity="0.5"/>
<path d="M671.18 379.398C671.18 381.608 672.971 383.398 675.18 383.398C677.389 383.398 679.18 381.608 679.18 379.398C679.18 377.189 677.389 375.398 675.18 375.398C672.971 375.398 671.18 377.189 671.18 379.398ZM583.683 379.398C583.683 381.608 585.474 383.398 587.683 383.398C589.892 383.398 591.683 381.608 591.683 379.398C591.683 377.189 589.892 375.398 587.683 375.398C585.474 375.398 583.683 377.189 583.683 379.398ZM675.18 378.648H587.683V380.148H675.18V378.648Z" fill="#A7A2A2" fill-opacity="0.5"/>
<path d="M538.827 359.495C538.827 361.704 540.618 363.495 542.827 363.495C545.036 363.495 546.827 361.704 546.827 359.495C546.827 357.286 545.036 355.495 542.827 355.495C540.618 355.495 538.827 357.286 538.827 359.495ZM490.218 359.495V358.745C490.023 358.745 489.835 358.821 489.695 358.957L490.218 359.495ZM422.533 421.417C422.533 423.626 424.324 425.417 426.533 425.417C428.743 425.417 430.533 423.626 430.533 421.417C430.533 419.207 428.743 417.417 426.533 417.417C424.324 417.417 422.533 419.207 422.533 421.417ZM542.827 358.745H490.218V360.245H542.827V358.745ZM489.695 358.957L426.011 420.879L427.056 421.954L490.741 360.033L489.695 358.957Z" fill="#A7A2A2" fill-opacity="0.5"/>
<path d="M254.738 523.697C254.738 525.906 256.529 527.697 258.738 527.697C260.948 527.697 262.738 525.906 262.738 523.697C262.738 521.488 260.948 519.697 258.738 519.697C256.529 519.697 254.738 521.488 254.738 523.697ZM258.738 449.06L258.209 448.529C258.068 448.669 257.988 448.86 257.988 449.06H258.738ZM298.611 409.253V408.503C298.412 408.503 298.221 408.582 298.081 408.722L298.611 409.253ZM352.327 409.253L352.857 408.722C352.716 408.582 352.526 408.503 352.327 408.503V409.253ZM381.554 442.425C381.554 444.634 383.345 446.425 385.554 446.425C387.763 446.425 389.554 444.634 389.554 442.425C389.554 440.216 387.763 438.425 385.554 438.425C383.345 438.425 381.554 440.216 381.554 442.425ZM259.488 523.697V449.06H257.988V523.697H259.488ZM259.268 449.59L299.14 409.784L298.081 408.722L258.209 448.529L259.268 449.59ZM298.611 410.003H352.327V408.503H298.611V410.003ZM351.797 409.784L385.024 442.956L386.084 441.894L352.857 408.722L351.797 409.784Z" fill="#A7A2A2" fill-opacity="0.5"/>
<path d="M146.751 300.891C146.751 303.1 148.542 304.891 150.751 304.891C152.961 304.891 154.751 303.1 154.751 300.891C154.751 298.681 152.961 296.891 150.751 296.891C148.542 296.891 146.751 298.681 146.751 300.891ZM209.452 300.891L209.961 300.34C209.823 300.212 209.641 300.141 209.452 300.141V300.891ZM228.157 321.9C228.157 324.109 229.948 325.9 232.157 325.9C234.366 325.9 236.157 324.109 236.157 321.9C236.157 319.691 234.366 317.9 232.157 317.9C229.948 317.9 228.157 319.691 228.157 321.9ZM150.751 301.641H209.452V300.141H150.751V301.641ZM208.943 301.441L231.648 322.45L232.666 321.349L209.961 300.34L208.943 301.441Z" fill="#A7A2A2" fill-opacity="0.5"/>
<path d="M114.632 215.749C114.632 217.958 116.423 219.749 118.632 219.749C120.841 219.749 122.632 217.958 122.632 215.749C122.632 213.54 120.841 211.749 118.632 211.749C116.423 211.749 114.632 213.54 114.632 215.749ZM118.632 276.565L119.168 277.09C119.305 276.95 119.382 276.761 119.382 276.565H118.632ZM62.0233 330.193C62.0233 332.402 63.8141 334.193 66.0233 334.193C68.2324 334.193 70.0233 332.402 70.0233 330.193C70.0233 327.984 68.2324 326.193 66.0233 326.193C63.8141 326.193 62.0233 327.984 62.0233 330.193ZM117.882 215.749V276.565H119.382V215.749H117.882ZM118.097 276.04L65.4879 329.668L66.5586 330.718L119.168 277.09L118.097 276.04Z" fill="#A7A2A2" fill-opacity="0.5"/>
<path d="M496.186 260.531C496.186 262.74 497.977 264.531 500.186 264.531C502.395 264.531 504.186 262.74 504.186 260.531C504.186 258.322 502.395 256.531 500.186 256.531C497.977 256.531 496.186 258.322 496.186 260.531ZM467.513 260.531V259.781C467.316 259.781 467.128 259.858 466.988 259.996L467.513 260.531ZM399.398 327.429V328.179C399.595 328.179 399.784 328.101 399.924 327.964L399.398 327.429ZM377.247 327.429L376.717 327.959C376.858 328.1 377.048 328.179 377.247 328.179V327.429ZM342.913 293.151L343.443 292.62C343.302 292.479 343.111 292.401 342.913 292.401V293.151ZM279.105 293.151C279.105 295.36 280.895 297.151 283.105 297.151C285.314 297.151 287.105 295.36 287.105 293.151C287.105 290.941 285.314 289.151 283.105 289.151C280.895 289.151 279.105 290.941 279.105 293.151ZM500.186 259.781H467.513V261.281H500.186V259.781ZM466.988 259.996L398.873 326.893L399.924 327.964L468.039 261.066L466.988 259.996ZM399.398 326.679H377.247V328.179H399.398V326.679ZM377.777 326.898L343.443 292.62L342.383 293.681L376.717 327.959L377.777 326.898ZM342.913 292.401H283.105V293.901H342.913V292.401Z" fill="#A7A2A2" fill-opacity="0.5"/>
<path d="M449.669 241.734C449.669 243.944 451.459 245.734 453.669 245.734C455.878 245.734 457.669 243.944 457.669 241.734C457.669 239.525 455.878 237.734 453.669 237.734C451.459 237.734 449.669 239.525 449.669 241.734ZM428.195 241.734V240.984C427.996 240.984 427.805 241.063 427.665 241.204L428.195 241.734ZM411.028 258.873L410.498 258.343C410.357 258.483 410.278 258.674 410.278 258.873H411.028ZM407.028 289.834C407.028 292.043 408.818 293.834 411.028 293.834C413.237 293.834 415.028 292.043 415.028 289.834C415.028 287.625 413.237 285.834 411.028 285.834C408.818 285.834 407.028 287.625 407.028 289.834ZM453.669 240.984H428.195V242.484H453.669V240.984ZM427.665 241.204L410.498 258.343L411.557 259.404L428.725 242.265L427.665 241.204ZM410.278 258.873V289.834H411.778V258.873H410.278Z" fill="#A7A2A2" fill-opacity="0.5"/>
<path d="M328.514 142.771L283.658 187M340.144 154.381L295.288 198.61M351.219 165.991L307.471 210.221" stroke="#A7A2A2" stroke-opacity="0.5" stroke-width="1.5"/>
<path d="M326.176 208.562C326.176 210.771 327.967 212.562 330.176 212.562C332.385 212.562 334.176 210.771 334.176 208.562C334.176 206.353 332.385 204.562 330.176 204.562C327.967 204.562 326.176 206.353 326.176 208.562ZM347.343 191.423V190.673C347.144 190.673 346.954 190.752 346.813 190.892L347.343 191.423ZM360.08 191.423L360.61 190.892C360.469 190.752 360.279 190.673 360.08 190.673V191.423ZM388.876 220.172L388.347 220.703C388.487 220.843 388.678 220.922 388.876 220.922V220.172ZM471.266 220.172C471.266 222.381 473.057 224.172 475.266 224.172C477.475 224.172 479.266 222.381 479.266 220.172C479.266 217.963 477.475 216.172 475.266 216.172C473.057 216.172 471.266 217.963 471.266 220.172ZM330.706 209.093L347.873 191.954L346.813 190.892L329.646 208.031L330.706 209.093ZM347.343 192.173H360.08V190.673H347.343V192.173ZM359.55 191.954L388.347 220.703L389.406 219.641L360.61 190.892L359.55 191.954ZM388.876 220.922H475.266V219.422H388.876V220.922Z" fill="#A7A2A2" fill-opacity="0.5"/>
<path d="M191.054 151.616C191.054 153.825 192.845 155.616 195.054 155.616C197.263 155.616 199.054 153.825 199.054 151.616C199.054 149.407 197.263 147.616 195.054 147.616C192.845 147.616 191.054 149.407 191.054 151.616ZM223.85 180.918H224.6C224.6 180.722 224.523 180.533 224.385 180.393L223.85 180.918ZM223.85 201.375H223.1C223.1 201.574 223.179 201.765 223.32 201.905L223.85 201.375ZM246.432 227.912C246.432 230.121 248.223 231.912 250.432 231.912C252.641 231.912 254.432 230.121 254.432 227.912C254.432 225.703 252.641 223.912 250.432 223.912C248.223 223.912 246.432 225.703 246.432 227.912ZM194.519 152.142L223.315 181.444L224.385 180.393L195.589 151.091L194.519 152.142ZM223.1 180.918V201.375H224.6V180.918H223.1ZM223.32 201.905L249.902 228.443L250.962 227.382L224.38 200.844L223.32 201.905Z" fill="#A7A2A2" fill-opacity="0.5"/>
<path d="M356.08 120.103C356.08 122.312 357.871 124.103 360.08 124.103C362.289 124.103 364.08 122.312 364.08 120.103C364.08 117.893 362.289 116.103 360.08 116.103C357.871 116.103 356.08 117.893 356.08 120.103ZM374.478 120.103L375.008 119.572C374.867 119.431 374.677 119.353 374.478 119.353V120.103ZM394.968 140.559L394.438 141.089C394.575 141.226 394.76 141.305 394.954 141.309L394.968 140.559ZM448.007 141.664C448.007 143.874 449.798 145.664 452.007 145.664C454.216 145.664 456.007 143.874 456.007 141.664C456.007 139.455 454.216 137.664 452.007 137.664C449.798 137.664 448.007 139.455 448.007 141.664ZM360.08 120.853H374.478V119.353H360.08V120.853ZM373.948 120.633L394.438 141.089L395.498 140.028L375.008 119.572L373.948 120.633ZM394.954 141.309L451.993 142.414L452.022 140.915L394.983 139.809L394.954 141.309Z" fill="#A7A2A2" fill-opacity="0.5"/>
<path d="M321.746 4C321.746 6.20914 323.536 8 325.746 8C327.955 8 329.746 6.20914 329.746 4C329.746 1.79086 327.955 0 325.746 0C323.536 0 321.746 1.79086 321.746 4ZM321.746 70.3444C321.746 72.5536 323.536 74.3444 325.746 74.3444C327.955 74.3444 329.746 72.5536 329.746 70.3444C329.746 68.1353 327.955 66.3444 325.746 66.3444C323.536 66.3444 321.746 68.1353 321.746 70.3444ZM324.996 4V70.3444H326.496V4H324.996Z" fill="#A7A2A2" fill-opacity="0.5"/>
<path d="M240.34 67.5801C240.34 69.7892 242.131 71.5801 244.34 71.5801C246.549 71.5801 248.34 69.7892 248.34 67.5801C248.34 65.3709 246.549 63.5801 244.34 63.5801C242.131 63.5801 240.34 65.3709 240.34 67.5801ZM301.933 125.079L301.403 125.609C301.544 125.75 301.734 125.829 301.933 125.829V125.079ZM336.821 125.079L337.355 124.552C337.214 124.409 337.022 124.329 336.821 124.329V125.079ZM376.139 164.885L375.606 165.412C375.747 165.555 375.939 165.635 376.139 165.635V164.885ZM471.266 164.885C471.266 167.094 473.057 168.885 475.266 168.885C477.475 168.885 479.266 167.094 479.266 164.885C479.266 162.676 477.475 160.885 475.266 160.885C473.057 160.885 471.266 162.676 471.266 164.885ZM243.81 68.1108L301.403 125.609L302.463 124.548L244.87 67.0493L243.81 68.1108ZM301.933 125.829H336.821V124.329H301.933V125.829ZM336.288 125.606L375.606 165.412L376.673 164.358L337.355 124.552L336.288 125.606ZM376.139 165.635H475.266V164.135H376.139V165.635Z" fill="#A7A2A2" fill-opacity="0.5"/>
</g>
</svg>
