<svg width="24" height="24" viewBox="0 0 24 24" fill="none" xmlns="http://www.w3.org/2000/svg">
<path d="M1 7V11.4C1 14.7603 1 16.4405 1.65396 17.7239C2.2292 18.8529 3.14708 19.7708 4.27606 20.346C5.55953 21 7.23969 21 10.6 21H16C17.6569 21 19 19.6569 19 18V18M18 6L17.1667 6.66667L16.998 6.80156C15.5712 7.94306 14.8577 8.51381 14.0665 8.73269C13.3686 8.92577 12.6314 8.92577 11.9335 8.73269C11.1423 8.51381 10.4288 7.94306 9.00195 6.80156L8.83333 6.66667L8 6M10.4 18H15.6C17.8402 18 18.9603 18 19.816 17.564C20.5686 17.1805 21.1805 16.5686 21.564 15.816C22 14.9603 22 13.8402 22 11.6V8.4C22 6.15979 22 5.03968 21.564 4.18404C21.1805 3.43139 20.5686 2.81947 19.816 2.43597C18.9603 2 17.8402 2 15.6 2H10.4C8.15979 2 7.03968 2 6.18404 2.43597C5.43139 2.81947 4.81947 3.43139 4.43597 4.18404C4 5.03968 4 6.15979 4 8.4V11.6C4 13.8402 4 14.9603 4.43597 15.816C4.81947 16.5686 5.43139 17.1805 6.18404 17.564C7.03968 18 8.15979 18 10.4 18Z" stroke="#13120C" stroke-width="1.5" stroke-linecap="round"/>
</svg>
