<svg width="30" height="30" viewBox="0 0 30 30" fill="none" xmlns="http://www.w3.org/2000/svg">
<path fill-rule="evenodd" clip-rule="evenodd" d="M4.56555 2.16196C5.74207 1.5625 7.28221 1.5625 10.3625 1.5625H19.6375C22.7178 1.5625 24.2579 1.5625 25.4344 2.16196C26.4693 2.68927 27.3107 3.53066 27.838 4.56555C28.4375 5.74207 28.4375 7.28221 28.4375 10.3625V19.6375C28.4375 22.7178 28.4375 24.2579 27.838 25.4344C27.3107 26.4693 26.4693 27.3107 25.4344 27.838C24.2579 28.4375 22.7178 28.4375 19.6375 28.4375H17V18.25H21.25C21.6642 18.25 22 17.9142 22 17.5C22 17.0858 21.6642 16.75 21.25 16.75H17V13.2C17 12.6276 17.0006 12.2434 17.0248 11.9475C17.0482 11.6604 17.0901 11.5231 17.1362 11.4325C17.2561 11.1973 17.4473 11.0061 17.6825 10.8862C17.7731 10.8401 17.9104 10.7982 18.1975 10.7748C18.4934 10.7506 18.8776 10.75 19.45 10.75H21.25C21.6642 10.75 22 10.4142 22 10C22 9.58579 21.6642 9.25 21.25 9.25H19.45L19.4196 9.25H19.4195C18.8854 9.24999 18.4396 9.24998 18.0753 9.27974C17.6954 9.31078 17.3388 9.37789 17.0015 9.54973C16.4841 9.81338 16.0634 10.2341 15.7997 10.7515C15.6279 11.0888 15.5608 11.4454 15.5297 11.8253C15.5 12.1896 15.5 12.6354 15.5 13.1696V13.2V16.75H12.5C12.0858 16.75 11.75 17.0858 11.75 17.5C11.75 17.9142 12.0858 18.25 12.5 18.25H15.5V28.4375H10.3625C7.28221 28.4375 5.74207 28.4375 4.56555 27.838C3.53066 27.3107 2.68927 26.4693 2.16196 25.4344C1.5625 24.2579 1.5625 22.7178 1.5625 19.6375V10.3625C1.5625 7.28221 1.5625 5.74207 2.16196 4.56555C2.68927 3.53066 3.53066 2.68927 4.56555 2.16196Z" fill="white"/>
</svg>
              