<svg width="20" height="22" viewBox="0 0 20 22" fill="none" xmlns="http://www.w3.org/2000/svg">
<path d="M17.3652 1H2.6348C1.73193 1 1 1.73193 1 2.6348C1 4.74665 2.01989 6.72849 3.73837 7.95598L5.66667 9.33333L5.66668 9.33334C6.30877 9.79198 6.62982 10.0213 6.88894 10.2919C7.42476 10.8514 7.78657 11.5545 7.93043 12.3157C8 12.6838 8 13.0784 8 13.8674V19C8 20.1046 8.89543 21 10 21C11.1046 21 12 20.1046 12 19V13.8674C12 13.0784 12 12.6838 12.0696 12.3157C12.2134 11.5545 12.5752 10.8514 13.1111 10.2919C13.3702 10.0213 13.6912 9.79198 14.3333 9.33333L16.2616 7.95598C17.9801 6.72849 19 4.74665 19 2.6348C19 1.73193 18.2681 1 17.3652 1Z" stroke="white" stroke-width="1.5" stroke-linecap="round" stroke-linejoin="round"/>
</svg>
