<svg width="134" height="40" viewBox="0 0 134 40" fill="none" xmlns="http://www.w3.org/2000/svg">
<path d="M77.0059 25.0198C77.0141 21.2903 75.6191 17.6943 73.0983 14.9469C70.5775 12.1996 67.1155 10.5021 63.4009 10.192C59.6863 9.88201 55.9911 10.9821 53.0502 13.2736C50.1092 15.5652 48.138 18.8802 47.5285 22.5595C46.9191 26.2388 47.7159 30.0129 49.7607 33.1311C51.8055 36.2494 54.9484 38.4835 58.5643 39.3891C62.1803 40.2946 66.0045 39.8054 69.2764 38.0186C72.5483 36.2318 75.0282 33.2784 76.223 29.7457H68.1951C65.2337 36.0944 55.5881 33.2414 55.2061 26.7464H76.8971C76.9667 26.1734 77.003 25.5969 77.0059 25.0198ZM55.9326 21.1118C56.1848 20.2038 56.6314 19.3615 57.2415 18.6435C57.8516 17.9254 58.6105 17.3488 59.4657 16.9537C60.3208 16.5585 61.2516 16.3543 62.1936 16.3552C63.1355 16.356 64.066 16.562 64.9204 16.9587C66.5472 17.7314 68.0686 19.2984 68.4674 21.1119L55.9326 21.1118Z" fill="#1458A1"/>
<path d="M106.299 19.6074H98.669C98.1914 19.5503 97.8508 18.7353 97.5581 18.4256C96.0532 16.8341 93.7221 16.933 91.7544 17.3696C90.9898 17.5393 89.0552 18.4478 89.0572 19.427C89.0604 20.9369 92.7363 21.335 93.7639 21.5156C97.7859 22.2232 102.738 23.5808 105.228 27.1061C108.113 31.1898 105.734 36.4005 101.532 38.3339C98.8861 39.5513 95.8437 39.8887 92.9587 39.8262C88.5784 39.7311 83.8765 38.1665 81.6476 34.1155C81.4716 33.7952 80.2228 30.2401 80.4121 30.2401H87.7695C87.7695 30.2401 88.4507 35.147 96.7602 33.2397C98.0251 32.9494 99.0616 31.9496 98.1435 30.6871C97.2174 29.4136 94.2808 29.3496 92.8107 29.0134C89.1565 28.1779 83.6228 27.2335 81.7972 23.4024C79.4571 18.4917 83.6062 12.9289 88.1504 11.3254C92.093 9.9342 96.9747 10.0397 100.717 11.9983C103.657 13.5378 105.534 16.4344 106.299 19.6074Z" fill="#1458A1"/>
<path d="M27.3478 0.00195312C33.4605 0.00195312 35.8711 0.383751 38.2511 2.00143C39.5235 2.8671 40.5676 4.02792 41.2945 5.38483C42.0213 6.74173 42.4093 8.25443 42.4253 9.79385C42.4189 11.577 41.9001 13.3207 40.9308 14.817C39.9615 16.3134 38.5826 17.4993 36.9585 18.2334C41.661 19.5574 44.3064 23.1146 44.3064 27.5846C44.3011 29.3558 43.8841 31.1015 43.0883 32.6837C42.2925 34.2659 41.1398 35.6412 39.7212 36.7009C36.8704 38.7004 34.9894 38.7885 24.9961 38.8178H11.8289V0.00195312H27.3478ZM19.677 15.4398H24.7905C30.9044 15.4398 32.1091 15.4691 33.6366 13.9396C34.0245 13.5399 34.3264 13.065 34.5237 12.5441C34.721 12.0232 34.8095 11.4674 34.7838 10.911C34.7838 8.47095 33.4898 6.94139 30.8149 6.61833C30.0518 6.529 27.8467 6.49965 24.1727 6.49965H19.6769L19.677 15.4398ZM19.677 32.2897H26.9063C29.7278 32.2897 31.5208 32.2016 32.2852 32.0254C34.5478 31.6424 36.1937 29.9378 36.1937 27.2323C36.1937 24.8791 35.0477 23.2027 32.9319 22.4685C31.8436 22.115 29.5216 21.9384 25.9658 21.9386H19.677V32.2897Z" fill="#1458A1"/>
<path d="M0.0710144 17.8545V38.5609H7.15615V10.7656L0.0710144 17.8545Z" fill="#1458A1"/>
<path d="M7.15615 10.635V3.42334H0.0710144V3.54665L7.15615 10.635Z" fill="#00A3A0"/>
<path d="M131.883 18.9422V12.0769H120.62V4.98828L108.993 16.8027V18.9422H131.883Z" fill="#00A3A0"/>
<path d="M131.52 31.2645C131.52 31.2645 122.073 36.7174 120.983 28.72V21.5811H113.535V29.8105C113.535 34.4422 117.302 38.6185 121.769 39.5108C125.377 40.2316 130.849 39.8856 133.518 37.0098C133.57 36.9537 133.915 36.6103 133.881 36.5356L131.52 31.2645Z" fill="#1458A1"/>
</svg>
