<svg width="30" height="30" viewBox="0 0 30 30" fill="none" xmlns="http://www.w3.org/2000/svg">
<path fill-rule="evenodd" clip-rule="evenodd" d="M10.3625 1.5625C7.28221 1.5625 5.74207 1.5625 4.56555 2.16196C3.53066 2.68927 2.68927 3.53066 2.16196 4.56555C1.5625 5.74207 1.5625 7.28221 1.5625 10.3625V19.6375C1.5625 22.7178 1.5625 24.2579 2.16196 25.4344C2.68927 26.4693 3.53066 27.3107 4.56555 27.838C5.74207 28.4375 7.28221 28.4375 10.3625 28.4375H19.6375C22.7178 28.4375 24.2579 28.4375 25.4344 27.838C26.4693 27.3107 27.3107 26.4693 27.838 25.4344C28.4375 24.2579 28.4375 22.7178 28.4375 19.6375V10.3625C28.4375 7.28221 28.4375 5.74207 27.838 4.56555C27.3107 3.53066 26.4693 2.68927 25.4344 2.16196C24.2579 1.5625 22.7178 1.5625 19.6375 1.5625H10.3625ZM9.0625 15C9.0625 11.7208 11.7208 9.0625 15 9.0625C18.2792 9.0625 20.9375 11.7208 20.9375 15C20.9375 18.2792 18.2792 20.9375 15 20.9375C11.7208 20.9375 9.0625 18.2792 9.0625 15ZM23.125 8.75C24.1605 8.75 25 7.91053 25 6.875C25 5.83947 24.1605 5 23.125 5C22.0895 5 21.25 5.83947 21.25 6.875C21.25 7.91053 22.0895 8.75 23.125 8.75Z" fill="white"/>
</svg>
