<svg width="38" height="38" viewBox="0 0 38 38" fill="none" xmlns="http://www.w3.org/2000/svg">
<path d="M14.4925 11.7273C14.4925 12.2667 14.3314 12.794 14.0297 13.2425C13.7279 13.691 13.299 14.0405 12.7972 14.2469C12.2954 14.4534 11.7432 14.5074 11.2105 14.4021C10.6778 14.2969 10.1884 14.0372 9.80436 13.6557C9.42029 13.2743 9.15873 12.7884 9.05277 12.2593C8.94681 11.7303 9.00119 11.1819 9.20905 10.6836C9.4169 10.1852 9.7689 9.7593 10.2205 9.45963C10.6721 9.15995 11.2031 9 11.7462 9C12.4746 9 13.1731 9.28734 13.6881 9.7988C14.2032 10.3103 14.4925 11.004 14.4925 11.7273ZM13.87 16.2727V28.3218C13.8705 28.4107 13.8533 28.4988 13.8194 28.5811C13.7854 28.6633 13.7355 28.7381 13.6724 28.8011C13.6092 28.8642 13.5342 28.9142 13.4516 28.9483C13.3689 28.9824 13.2803 29 13.1908 29H10.2962C10.2067 29.0002 10.1181 28.9829 10.0353 28.949C9.95257 28.9151 9.87739 28.8653 9.8141 28.8024C9.75081 28.7396 9.70065 28.6649 9.66651 28.5828C9.63237 28.5006 9.61492 28.4125 9.61516 28.3236V16.2727C9.61516 16.0933 9.68692 15.9213 9.81464 15.7945C9.94237 15.6676 10.1156 15.5964 10.2962 15.5964H13.1908C13.3711 15.5968 13.5438 15.6683 13.6712 15.7951C13.7985 15.9219 13.87 16.0937 13.87 16.2727ZM29 22.5455V28.3782C29.0002 28.4599 28.9842 28.5409 28.9528 28.6164C28.9214 28.692 28.8753 28.7606 28.8171 28.8184C28.759 28.8762 28.6898 28.922 28.6138 28.9532C28.5377 28.9843 28.4561 29.0002 28.3739 29H25.2614C25.1791 29.0002 25.0976 28.9843 25.0215 28.9532C24.9455 28.922 24.8763 28.8762 24.8182 28.8184C24.76 28.7606 24.7138 28.692 24.6825 28.6164C24.6511 28.5409 24.6351 28.4599 24.6353 28.3782V22.7255C24.6353 21.8818 24.8843 19.0309 22.4145 19.0309C20.5013 19.0309 20.1113 20.9818 20.0344 21.8582V28.3782C20.0344 28.5415 19.9697 28.6983 19.8543 28.8147C19.7388 28.931 19.5819 28.9976 19.4174 29H16.4112C16.3291 29 16.2477 28.9839 16.1719 28.9526C16.096 28.9214 16.0271 28.8755 15.9691 28.8178C15.9111 28.76 15.8652 28.6914 15.8339 28.616C15.8026 28.5406 15.7867 28.4598 15.7869 28.3782V16.22C15.7867 16.1384 15.8026 16.0576 15.8339 15.9822C15.8652 15.9067 15.9111 15.8382 15.9691 15.7804C16.0271 15.7227 16.096 15.6768 16.1719 15.6455C16.2477 15.6143 16.3291 15.5982 16.4112 15.5982H19.4174C19.5835 15.5982 19.7428 15.6637 19.8602 15.7803C19.9776 15.8969 20.0436 16.0551 20.0436 16.22V17.2709C20.7539 16.2127 21.8067 15.3964 24.0531 15.3964C29.0293 15.3964 29 20.0109 29 22.5455Z" fill="#13120C"/>
<rect x="1" y="1" width="36" height="36" rx="5.5" stroke="#13120C"/>
</svg>
