<svg width="70" height="70" viewBox="0 0 70 70" fill="none" xmlns="http://www.w3.org/2000/svg">
<g clip-path="url(#clip0_828_3603)">
<path d="M35 13.6048C23.2024 13.6048 13.6043 23.2025 13.6043 35.0005C13.6043 46.7985 23.2024 56.3962 35 56.3962C46.7976 56.3962 56.3956 46.7981 56.3956 35.0005C56.3956 23.2029 46.7976 13.6048 35 13.6048ZM35 52.0212C31.6336 52.0212 28.3428 51.0229 25.5438 49.1527C22.7447 47.2824 20.5632 44.6241 19.2749 41.514C17.9867 38.4039 17.6496 34.9816 18.3063 31.6799C18.9631 28.3782 20.5841 25.3454 22.9645 22.9651C25.3449 20.5847 28.3777 18.9636 31.6794 18.3069C34.9811 17.6501 38.4034 17.9872 41.5135 19.2754C44.6236 20.5637 47.2819 22.7453 49.1521 25.5443C51.0224 28.3433 52.0206 31.6341 52.0206 35.0005C52.0155 39.5131 50.2206 43.8394 47.0297 47.0303C43.8389 50.2212 39.5125 52.016 35 52.0212ZM68.3018 42.571L66.0625 35.2946C65.9948 35.1044 65.9948 34.8968 66.0625 34.7067L68.3019 27.4302C68.6354 26.3734 68.6306 25.2388 68.2882 24.1849C67.9457 23.131 67.2827 22.2103 66.3917 21.5513L60.3028 16.981C60.1362 16.8669 60.0141 16.6988 59.957 16.5052L57.492 9.30146C57.1406 8.25039 56.4698 7.33526 55.5732 6.68387C54.6766 6.03247 53.599 5.67733 52.4908 5.66803L44.8782 5.54922C44.6764 5.55483 44.479 5.49065 44.3191 5.36752L38.0908 0.9891C37.1887 0.345163 36.1081 -0.000976563 34.9998 -0.000976562C33.8915 -0.000976562 32.8109 0.345163 31.9089 0.9891L25.6809 5.36752C25.521 5.49065 25.3234 5.55482 25.1216 5.54922L17.5091 5.66803C16.4009 5.67733 15.3233 6.03247 14.4267 6.68387C13.5301 7.33526 12.8593 8.25039 12.5079 9.30146L10.0428 16.5048C9.98566 16.6983 9.8636 16.8663 9.69714 16.9804L3.60837 21.5508C2.71733 22.2097 2.05429 23.1304 1.71183 24.1843C1.36937 25.2383 1.36458 26.3729 1.69813 27.4297L3.93745 34.7064C4.00496 34.8966 4.00496 35.1041 3.93745 35.2943L1.698 42.5709C1.36445 43.6277 1.36923 44.7623 1.7117 45.8162C2.05416 46.8702 2.71719 47.7909 3.60823 48.4498L9.69714 53.02C9.86363 53.1341 9.9857 53.3021 10.0428 53.4957L12.5079 60.6995C12.8593 61.7506 13.5301 62.6657 14.4267 63.3171C15.3233 63.9685 16.4009 64.3236 17.5091 64.3329L25.1213 64.4518C25.3231 64.4461 25.5207 64.5102 25.6807 64.6333L31.9092 69.0119C32.8112 69.6558 33.8917 70.0019 35 70.0019C36.1082 70.0019 37.1888 69.6558 38.0908 69.0119L44.319 64.6335C44.479 64.5103 44.6765 64.4462 44.8783 64.4518L52.4908 64.3329C53.599 64.3237 54.6767 63.9685 55.5732 63.3171C56.4698 62.6657 57.1406 61.7505 57.4918 60.6994L59.957 53.4962C60.0141 53.3026 60.1362 53.1347 60.3026 53.0206L66.3914 48.4502C67.2825 47.7913 67.9457 46.8706 68.2882 45.8166C68.6307 44.7625 68.6354 43.6279 68.3018 42.571ZM63.7656 44.9513L57.6768 49.5217C56.8074 50.1613 56.158 51.0551 55.8184 52.0797L53.3531 59.2828C53.2927 59.4812 53.1692 59.6545 53.0015 59.7765C52.8337 59.8984 52.6308 59.9623 52.4234 59.9585L44.8106 60.0772C43.7314 60.0838 42.6808 60.4252 41.8039 61.0543L35.5749 65.4327C35.4092 65.5577 35.2074 65.6253 35 65.6253C34.7925 65.6253 34.5907 65.5577 34.4251 65.4327L28.1966 61.054C27.3196 60.425 26.269 60.0836 25.1898 60.077L17.5773 59.9584C17.37 59.9621 17.1671 59.8982 16.9993 59.7763C16.8315 59.6544 16.7081 59.4811 16.6476 59.2827L14.1825 52.0795C13.8428 51.055 13.1934 50.1612 12.3239 49.5215L6.23432 44.9513C6.06419 44.8324 5.93743 44.6614 5.87329 44.464C5.80914 44.2666 5.8111 44.0537 5.87886 43.8575L8.11831 36.5811C8.44561 35.5526 8.44561 34.4478 8.11831 33.4193L5.87886 26.1429C5.8111 25.9467 5.80914 25.7338 5.87329 25.5364C5.93743 25.3391 6.06419 25.168 6.23432 25.0491L12.3232 20.4788C13.1926 19.8391 13.8419 18.9453 14.1815 17.9208L16.6468 10.7176C16.7073 10.5192 16.8307 10.3459 16.9985 10.224C17.1662 10.1021 17.3692 10.0382 17.5765 10.0419L25.1887 9.92312C26.2683 9.91687 27.3194 9.57549 28.1966 8.94613L34.4257 4.56826C34.5913 4.44325 34.7931 4.37562 35.0005 4.37562C35.2079 4.37562 35.4097 4.44325 35.5753 4.56826L41.8031 8.94668C42.6801 9.57586 43.7308 9.91724 44.8101 9.92367L52.4226 10.0425C52.6299 10.0387 52.8328 10.1027 53.0006 10.2246C53.1684 10.3465 53.2918 10.5198 53.3523 10.7181L55.8174 17.9212C56.1571 18.9457 56.8065 19.8396 57.6759 20.4793L63.7656 25.0497C63.9357 25.1685 64.0625 25.3396 64.1267 25.537C64.1908 25.7344 64.1888 25.9473 64.1211 26.1434L61.8816 33.4199C61.5542 34.4484 61.5542 35.5532 61.8816 36.5816L64.1211 43.858C64.1887 44.0541 64.1906 44.2669 64.1265 44.4642C64.0623 44.6615 63.9356 44.8325 63.7656 44.9513ZM46.8671 27.2643C47.0612 27.476 47.2117 27.724 47.31 27.9939C47.4083 28.2638 47.4524 28.5505 47.4399 28.8375C47.4274 29.1245 47.3585 29.4062 47.2371 29.6666C47.1157 29.9269 46.9443 30.1608 46.7325 30.3549L33.0763 42.8712C32.6728 43.2407 32.1455 43.4456 31.5984 43.4455C31.5569 43.4455 31.5154 43.4443 31.474 43.4419C31.1822 43.4253 30.8968 43.3504 30.6345 43.2217C30.3722 43.0929 30.1383 42.9129 29.9467 42.6923L23.095 34.8036C22.9057 34.5869 22.761 34.3349 22.6693 34.0621C22.5775 33.7894 22.5404 33.5012 22.5602 33.2141C22.58 32.927 22.6563 32.6466 22.7846 32.389C22.913 32.1314 23.0909 31.9017 23.3082 31.713C23.5254 31.5243 23.7778 31.3803 24.0508 31.2893C24.3239 31.1983 24.6122 31.1621 24.8992 31.1827C25.1862 31.2033 25.4664 31.2803 25.7236 31.4094C25.9808 31.5385 26.2101 31.717 26.3982 31.9348L31.7765 38.1282L43.7765 27.13C44.2041 26.738 44.77 26.5319 45.3496 26.557C45.9292 26.5822 46.4751 26.8366 46.8671 27.2643Z" fill="#F0B624"/>
</g>
<defs>
<clipPath id="clip0_828_3603">
<rect width="70" height="70" fill="white"/>
</clipPath>
</defs>
</svg>
