<svg width="25" height="24" viewBox="0 0 25 24" fill="none" xmlns="http://www.w3.org/2000/svg">
<path d="M20.3329 14.667C19.5768 14.6676 18.8323 14.8522 18.1634 15.2048C17.4946 15.5574 16.9216 16.0675 16.4939 16.691L9.98493 13.752C10.4472 12.6356 10.449 11.3817 9.98993 10.264L16.4899 7.31C17.1238 8.22676 18.0653 8.88597 19.1435 9.16805C20.2218 9.45013 21.3655 9.33641 22.3671 8.8475C23.3687 8.3586 24.1619 7.5269 24.6028 6.50327C25.0437 5.47964 25.1031 4.33188 24.7703 3.26818C24.4375 2.20448 23.7344 1.2953 22.7887 0.705559C21.8429 0.115817 20.7171 -0.115424 19.6155 0.0537794C18.5138 0.222983 17.5093 0.781424 16.7842 1.62781C16.059 2.47419 15.6612 3.55245 15.6629 4.667C15.6672 4.9308 15.6939 5.19376 15.7429 5.453L8.83293 8.593C8.16927 7.97122 7.33844 7.55684 6.44251 7.40077C5.54657 7.24469 4.62456 7.35372 3.78974 7.71446C2.95492 8.0752 2.24366 8.67194 1.74333 9.43137C1.243 10.1908 0.975398 11.0798 0.9734 11.9893C0.971402 12.8987 1.23509 13.7889 1.73208 14.5505C2.22907 15.3121 2.9377 15.912 3.77093 16.2764C4.60416 16.6408 5.52568 16.7539 6.42229 16.6017C7.3189 16.4496 8.15155 16.0389 8.81793 15.42L15.7459 18.548C15.6978 18.807 15.6714 19.0696 15.6669 19.333C15.6667 20.2561 15.9403 21.1586 16.453 21.9262C16.9658 22.6939 17.6947 23.2922 18.5475 23.6456C19.4003 23.9989 20.3388 24.0914 21.2442 23.9114C22.1496 23.7313 22.9812 23.2868 23.634 22.6341C24.2868 21.9813 24.7313 21.1497 24.9113 20.2442C25.0914 19.3388 24.9988 18.4004 24.6455 17.5476C24.2921 16.6947 23.6938 15.9659 22.9262 15.4531C22.1585 14.9404 21.2561 14.6668 20.3329 14.667ZM20.3329 2C20.8605 1.99981 21.3762 2.15605 21.8149 2.44899C22.2536 2.74192 22.5956 3.15838 22.7976 3.64569C22.9996 4.13301 23.0526 4.66928 22.9498 5.1867C22.847 5.70411 22.5931 6.17942 22.2201 6.5525C21.8472 6.92559 21.372 7.1797 20.8546 7.28269C20.3372 7.38567 19.8009 7.33292 19.3135 7.13109C18.8262 6.92926 18.4096 6.58742 18.1165 6.14881C17.8234 5.71021 17.6669 5.19453 17.6669 4.667C17.6675 3.96001 17.9485 3.2821 18.4483 2.78209C18.9481 2.28207 19.6259 2.0008 20.3329 2ZM5.66693 14.667C5.13941 14.6672 4.62367 14.511 4.18495 14.218C3.74624 13.9251 3.40425 13.5086 3.20223 13.0213C3.00022 12.534 2.94726 11.9977 3.05006 11.4803C3.15285 10.9629 3.40678 10.4876 3.77973 10.1145C4.15267 9.74142 4.62788 9.48731 5.14526 9.38432C5.66263 9.28134 6.19893 9.33409 6.68632 9.53592C7.17371 9.73775 7.59029 10.0796 7.88339 10.5182C8.17649 10.9568 8.33293 11.4725 8.33293 12C8.33214 12.7069 8.05103 13.3847 7.55126 13.8846C7.05149 14.3846 6.37385 14.6659 5.66693 14.667ZM20.3329 22C19.8055 22 19.2898 21.8436 18.8512 21.5505C18.4126 21.2575 18.0708 20.841 17.8689 20.3536C17.6671 19.8663 17.6143 19.33 17.7172 18.8127C17.8201 18.2954 18.0741 17.8201 18.4471 17.4472C18.8201 17.0742 19.2953 16.8202 19.8126 16.7173C20.33 16.6143 20.8662 16.6672 21.3535 16.869C21.8409 17.0709 22.2574 17.4127 22.5505 17.8513C22.8435 18.2899 22.9999 18.8055 22.9999 19.333C22.9994 20.0402 22.7182 20.7182 22.2182 21.2183C21.7182 21.7183 21.0401 21.9995 20.3329 22Z" fill="#13120C"/>
</svg>
