<svg width="38" height="38" viewBox="0 0 38 38" fill="none" xmlns="http://www.w3.org/2000/svg">
<path d="M26.1211 11.9815L26.0696 11.93C24.3865 10.2461 22.1579 9.21818 19.7846 9.03097C17.4114 8.84377 15.0492 9.5096 13.1229 10.9087C11.1967 12.3078 9.83286 14.3484 9.27669 16.6634C8.72052 18.9784 9.00854 21.4159 10.0889 23.5375L10.5289 24.4035L9.70978 28.3827L9.69808 28.4342L13.6511 27.4979L14.5522 27.9544C16.4271 28.8859 18.5467 29.2062 20.6131 28.8703C22.6794 28.5344 24.5886 27.5592 26.0719 26.0818C27.9378 24.2155 28.9903 21.6872 28.9999 19.0481C29.0096 16.409 27.9756 13.873 26.1234 11.9932L26.1211 11.9815ZM25.7185 23.1513C25.2341 23.9143 24.4687 24.8459 23.5068 25.0777C21.8217 25.4873 19.2355 25.0917 16.0173 22.0933L15.9775 22.0558C13.1479 19.4342 12.413 17.2504 12.5909 15.5182C12.6892 14.5328 13.5083 13.6457 14.1988 13.0629C14.3081 12.9702 14.4376 12.9042 14.5768 12.8703C14.7161 12.8364 14.8614 12.8354 15.0011 12.8675C15.1408 12.8995 15.2711 12.9637 15.3817 13.0549C15.4923 13.1461 15.5801 13.2618 15.6382 13.3929L16.6797 15.7476C16.7479 15.8993 16.7732 16.0667 16.753 16.2318C16.7328 16.3968 16.6678 16.5532 16.565 16.6839L16.0384 17.3674C15.9281 17.5075 15.8616 17.6771 15.847 17.8548C15.8324 18.0325 15.8705 18.2106 15.9565 18.3669C16.2514 18.8818 16.9582 19.6426 17.7422 20.3494C18.6223 21.1429 19.5982 21.8709 20.2161 22.1214C20.3818 22.1877 20.5635 22.2033 20.7381 22.1662C20.9127 22.1291 21.0723 22.041 21.1968 21.913L21.8076 21.2974C21.9255 21.1812 22.0721 21.0983 22.2324 21.0572C22.3928 21.016 22.5611 21.0182 22.7204 21.0634L25.1943 21.7656C25.3311 21.8073 25.4565 21.8799 25.5609 21.9777C25.6653 22.0755 25.7459 22.1959 25.7965 22.3297C25.8471 22.4635 25.8664 22.6071 25.8529 22.7495C25.8394 22.892 25.7934 23.0294 25.7185 23.1513Z" fill="#13120C"/>
<rect x="1" y="1" width="36" height="36" rx="5.5" stroke="#13120C"/>
</svg>
