<svg width="30" height="30" viewBox="0 0 30 30" fill="none" xmlns="http://www.w3.org/2000/svg">
<path d="M8.74121 7.57227L18.8754 21.5966H20.4282L10.4093 7.57227H8.74121Z" fill="white"/>
<path d="M7.06054 1.56006C4.02298 1.56006 1.56055 4.02249 1.56055 7.06006V22.9401C1.56055 25.9776 4.02298 28.4401 7.06055 28.4401H22.9405C25.9781 28.4401 28.4405 25.9776 28.4405 22.9401V7.06006C28.4405 4.02249 25.9781 1.56006 22.9405 1.56006H7.06054ZM18.4311 23.0999L14.0967 17.4383L9.14407 23.0999H6.39111L12.8121 15.7594L6.04055 6.90022H11.71L15.6233 12.0757L20.1514 6.90022H22.901L16.8967 13.7613L23.9605 23.0988L18.4311 23.0999Z" fill="white"/>
</svg>
