<svg width="24" height="24" viewBox="0 0 24 24" fill="none" xmlns="http://www.w3.org/2000/svg">
<g clip-path="url(#clip0_791_3670)">
<path d="M14.8 12.3L10.7 14.5C10.6 14.5 10.5 14.6 10.5 14.6C10.4 14.6 10.3 14.6 10.3 14.5C10.2 14.4 10.1 14.3 10.1 14.1V9.6C10.1 9.4 10.2 9.3 10.3 9.2C10.4 9.1 10.6 9.1 10.8 9.2L14.9 11.5C15.1 11.6 15.2 11.7 15.2 11.9C15 12 14.9 12.2 14.8 12.3Z" fill="white"/>
<path d="M19.7 0.5H4.3C2.2 0.5 0.5 2.2 0.5 4.3V19.7C0.5 21.8 2.2 23.5 4.3 23.5H19.7C21.8 23.5 23.5 21.8 23.5 19.7V4.3C23.5 2.2 21.8 0.5 19.7 0.5ZM20.15 12.6C20.1224 12.6 20.1 12.6224 20.0999 12.65C20.096 13.6403 19.9791 14.6209 19.9259 15.0169C19.9095 15.1392 19.8961 15.2614 19.8744 15.3829C19.8063 15.7629 19.5984 16.6219 19.2 17.1C18.6 17.8 17.8 17.9 17.5 17.9H17.4C15.3 18.1 12.0002 18.1 12 18.1C11.9852 18.1 12.0222 18.1 12 18.1C12 18.1 12 18.1 12 18.1C11.9934 18.1 12.0044 18.1 12 18.1C11.8041 18.1 8.15588 18.1 6.87786 17.9122C6.82492 17.9044 6.77311 17.9 6.7196 17.9C6.64017 17.9 6.56123 17.8897 6.48319 17.8749C6.05815 17.7944 5.3462 17.7372 4.8 17.1C4.2 16.5 4 15.4 4 15.3C4 15.2 3.8 14 3.8 12.6V11.4L4 8.8C4 8.7 4.2 7.5 4.7 6.9C5.3 6.2 6.1 6.1 6.4 6.1H6.5C8.69996 5.9 11.9999 5.9 12 5.9C12 5.9 12 5.9 12 5.9C12 5.9 12 5.9 12 5.9C12.0001 5.9 15.3 5.9 17.4 6.1H17.5C17.9 6.1 18.6 6.2 19.2 6.9C19.8 7.5 20 8.6 20 8.7C20 8.8 20.2 10 20.2 11.3V12.55C20.2 12.5776 20.1776 12.6 20.15 12.6Z" fill="white"/>
<path d="M10.9 13.3004L13.5 11.8004L10.9 10.4004V13.3004Z" fill="white"/>
</g>
<defs>
<clipPath id="clip0_791_3670">
<rect width="24" height="24" fill="white"/>
</clipPath>
</defs>
</svg>
