<svg width="24" height="24" viewBox="0 0 24 24" fill="none" xmlns="http://www.w3.org/2000/svg">
<path fill-rule="evenodd" clip-rule="evenodd" d="M4.27286 4.5836C4.12578 4.63582 3.98298 4.69667 3.84354 4.76772C2.94978 5.22312 2.22312 5.94978 1.76772 6.84354C1.48688 7.39472 1.36527 7.99834 1.30699 8.71173C1.24999 9.40936 1.24999 10.2749 1.25 11.367V11.4V12.6V12.633C1.24999 13.7251 1.24999 14.5906 1.30699 15.2883C1.36527 16.0017 1.48688 16.6053 1.76772 17.1565C2.22312 18.0502 2.94978 18.7769 3.84354 19.2323C3.98298 19.3033 4.12578 19.3642 4.27286 19.4164C4.48001 21.2915 6.06968 22.75 8 22.75H16C17.9303 22.75 19.52 21.2915 19.7271 19.4164C19.8742 19.3642 20.017 19.3033 20.1565 19.2323C21.0502 18.7769 21.7769 18.0502 22.2323 17.1565C22.5131 16.6053 22.6347 16.0017 22.693 15.2883C22.75 14.5906 22.75 13.7252 22.75 12.633V12.6V11.4V11.367C22.75 10.2748 22.75 9.40935 22.693 8.71173C22.6347 7.99834 22.5131 7.39472 22.2323 6.84354C21.7769 5.94978 21.0502 5.22312 20.1565 4.76772C20.017 4.69667 19.8742 4.63582 19.7271 4.5836C19.52 2.70849 17.9303 1.25 16 1.25H8C6.06968 1.25 4.48001 2.70849 4.27286 4.5836ZM8.36696 4.25H8.36697H8.367H8.4H15.6H15.633C16.6478 4.24999 17.467 4.24999 18.1376 4.29572C17.842 3.39803 16.9967 2.75 16 2.75H8C7.00333 2.75 6.15802 3.39803 5.86242 4.29572C6.53301 4.24999 7.35215 4.24999 8.36696 4.25ZM18.1376 19.7043C17.467 19.75 16.6478 19.75 15.633 19.75H15.6H8.4H8.36698C7.35215 19.75 6.53302 19.75 5.86243 19.7043C6.15803 20.602 7.00333 21.25 8 21.25H16C16.9967 21.25 17.842 20.602 18.1376 19.7043ZM10 10.9896V13.0104C10 13.9815 10 14.4671 10.2025 14.7348C10.3789 14.968 10.6485 15.1123 10.9404 15.1297C11.2754 15.1497 11.6795 14.8804 12.4875 14.3417L12.4875 14.3417L14.0031 13.3313C14.6708 12.8862 15.0046 12.6636 15.1209 12.3831C15.2227 12.1378 15.2227 11.8622 15.1209 11.6169C15.0046 11.3364 14.6708 11.1138 14.0031 10.6687L12.4875 9.65835C11.6795 9.11964 11.2754 8.85029 10.9404 8.8703C10.6485 8.88772 10.3789 9.03202 10.2025 9.26521C10 9.53288 10 10.0185 10 10.9896Z" fill="#F0B624"/>
</svg>
