<svg width="30" height="30" viewBox="0 0 30 30" fill="none" xmlns="http://www.w3.org/2000/svg">
<path fill-rule="evenodd" clip-rule="evenodd" d="M8.15184 3.17597C9.93159 2.88957 12.1848 2.8125 15 2.8125C17.8152 2.8125 20.0684 2.88957 21.8482 3.17597C23.6293 3.46259 25.0472 3.97474 26.0994 4.93131C27.1634 5.89859 27.7351 7.21132 28.0495 8.84641C28.361 10.466 28.4375 12.4985 28.4375 15C28.4375 17.5015 28.361 19.5341 28.0495 21.1537C27.7351 22.7887 27.1634 24.1015 26.0994 25.0687C25.0471 26.0253 23.6293 26.5375 21.8482 26.8241C20.0684 27.1105 17.8152 27.1875 15 27.1875C12.1848 27.1875 9.93159 27.1105 8.15184 26.8241C6.37072 26.5375 4.95285 26.0253 3.90062 25.0687C2.83661 24.1015 2.2649 22.7887 1.95046 21.1537C1.639 19.5341 1.5625 17.5015 1.5625 15C1.5625 12.4985 1.639 10.466 1.95046 8.84641C2.2649 7.21132 2.83661 5.89859 3.90062 4.93131C4.95285 3.97474 6.37072 3.46259 8.15184 3.17597ZM12.0381 10.4342C12.332 10.2678 12.6927 10.2723 12.9823 10.4461L19.2323 14.1961C19.5147 14.3655 19.6875 14.6707 19.6875 15C19.6875 15.3293 19.5147 15.6345 19.2323 15.8039L12.9823 19.5539C12.6927 19.7277 12.332 19.7322 12.0381 19.5658C11.7442 19.3994 11.5625 19.0878 11.5625 18.75V11.25C11.5625 10.9122 11.7442 10.6006 12.0381 10.4342Z" fill="white"/>
</svg>
