<svg width="22" height="22" viewBox="0 0 22 22" fill="none" xmlns="http://www.w3.org/2000/svg">
<path d="M17 5C17 5.27614 16.7761 5.5 16.5 5.5C16.2239 5.5 16 5.27614 16 5M17 5C17 4.72386 16.7761 4.5 16.5 4.5C16.2239 4.5 16 4.72386 16 5M17 5H16M15 11C15 13.2091 13.2091 15 11 15C8.79086 15 7 13.2091 7 11C7 8.79086 8.79086 7 11 7C13.2091 7 15 8.79086 15 11ZM9 21H13C15.8003 21 17.2004 21 18.27 20.455C19.2108 19.9757 19.9757 19.2108 20.455 18.27C21 17.2004 21 15.8003 21 13V9C21 6.19974 21 4.79961 20.455 3.73005C19.9757 2.78924 19.2108 2.02433 18.27 1.54497C17.2004 1 15.8003 1 13 1H9C6.19974 1 4.79961 1 3.73005 1.54497C2.78924 2.02433 2.02433 2.78924 1.54497 3.73005C1 4.79961 1 6.19974 1 9V13C1 15.8003 1 17.2004 1.54497 18.27C2.02433 19.2108 2.78924 19.9757 3.73005 20.455C4.79961 21 6.19974 21 9 21Z" stroke="#2F384C" stroke-width="1.5" stroke-linecap="round" stroke-linejoin="round"/>
</svg>
                      