<svg width="16" height="16" viewBox="0 0 16 16" fill="none" xmlns="http://www.w3.org/2000/svg">
<path d="M4.61937 2.54545C4.61937 2.95001 4.49857 3.34547 4.27225 3.68185C4.04593 4.01822 3.72425 4.28039 3.34789 4.43521C2.97153 4.59002 2.5574 4.63053 2.15786 4.55161C1.75832 4.47268 1.39132 4.27787 1.10327 3.99181C0.815217 3.70575 0.619051 3.34128 0.539577 2.9445C0.460104 2.54772 0.500892 2.13645 0.656785 1.76269C0.812678 1.38894 1.07667 1.06948 1.41539 0.844721C1.7541 0.619964 2.15232 0.5 2.55969 0.5C3.10595 0.5 3.62984 0.715503 4.0161 1.0991C4.40237 1.4827 4.61937 2.00297 4.61937 2.54545ZM4.15251 5.95454V14.9914C4.15287 15.058 4.13996 15.1241 4.11452 15.1858C4.08908 15.2475 4.05162 15.3036 4.00427 15.3509C3.95693 15.3981 3.90065 15.4356 3.83867 15.4612C3.77668 15.4868 3.71021 15.5 3.64308 15.5H1.47217C1.40504 15.5002 1.33854 15.4872 1.27648 15.4617C1.21443 15.4363 1.15804 15.399 1.11058 15.3518C1.06311 15.3047 1.02549 15.2487 0.999884 15.1871C0.974278 15.1254 0.961189 15.0594 0.96137 14.9927V5.95454C0.96137 5.82001 1.01519 5.69098 1.11098 5.59585C1.20677 5.50072 1.3367 5.44727 1.47217 5.44727H3.64308C3.77831 5.44763 3.90789 5.50124 4.00338 5.59633C4.09888 5.69142 4.15251 5.82024 4.15251 5.95454ZM15.5 10.6591V15.0336C15.5002 15.0949 15.4882 15.1557 15.4646 15.2123C15.4411 15.269 15.4065 15.3205 15.3629 15.3638C15.3192 15.4071 15.2674 15.4415 15.2103 15.4649C15.1533 15.4882 15.0921 15.5002 15.0304 15.5H12.6961C12.6344 15.5002 12.5732 15.4882 12.5162 15.4649C12.4591 15.4415 12.4073 15.4071 12.3636 15.3638C12.32 15.3205 12.2854 15.269 12.2618 15.2123C12.2383 15.1557 12.2263 15.0949 12.2265 15.0336V10.7941C12.2265 10.1614 12.4132 8.02318 10.5609 8.02318C9.12596 8.02318 8.83348 9.48636 8.77581 10.1436V15.0336C8.77583 15.1561 8.72729 15.2737 8.6407 15.361C8.55412 15.4483 8.43643 15.4982 8.31307 15.5H6.0584C5.9968 15.5 5.9358 15.4879 5.8789 15.4645C5.822 15.441 5.77032 15.4066 5.72682 15.3633C5.68333 15.32 5.64886 15.2686 5.62541 15.212C5.60196 15.1554 5.58999 15.0948 5.59017 15.0336V5.915C5.58999 5.85382 5.60196 5.79321 5.62541 5.73663C5.64886 5.68006 5.68333 5.62864 5.72682 5.58531C5.77032 5.54199 5.822 5.50762 5.8789 5.48416C5.9358 5.46071 5.9968 5.44864 6.0584 5.44864H8.31307C8.43762 5.44864 8.55707 5.49777 8.64513 5.58523C8.7332 5.67269 8.78268 5.79131 8.78268 5.915V6.70318C9.31545 5.90954 10.105 5.29727 11.7898 5.29727C15.522 5.29727 15.5 8.75818 15.5 10.6591Z" fill="#1458A1"/>
</svg>
