<svg width="16" height="16" viewBox="0 0 16 16" fill="none" xmlns="http://www.w3.org/2000/svg">
<path d="M13.3408 2.73609L13.3022 2.69747C12.0399 1.4346 10.3684 0.663635 8.58847 0.52323C6.80852 0.382825 5.03688 0.882198 3.59221 1.93153C2.14754 2.98086 1.12465 4.51129 0.70752 6.24754C0.290394 7.98379 0.506405 9.81192 1.3167 11.4031L1.64671 12.0526L1.03234 15.037L1.02356 15.0757L3.98834 14.3735L4.66414 14.7158C6.0703 15.4144 7.66004 15.6546 9.20981 15.4027C10.7596 15.1508 12.1914 14.4194 13.304 13.3114C14.7034 11.9117 15.4927 10.0154 15.4999 8.03607C15.5072 6.05672 14.7317 4.15476 13.3426 2.74487L13.3408 2.73609ZM13.0389 11.1134C12.6755 11.6857 12.1015 12.3844 11.3801 12.5582C10.1162 12.8655 8.17659 12.5688 5.76299 10.3199L5.73315 10.2919C3.61094 8.32567 3.05976 6.68777 3.19317 5.38868C3.26689 4.64961 3.88126 3.98427 4.39909 3.54714C4.4811 3.47762 4.57818 3.42818 4.68264 3.40274C4.78709 3.3773 4.89604 3.37657 5.00082 3.4006C5.10561 3.42462 5.20335 3.47275 5.28629 3.54116C5.36924 3.60956 5.43509 3.69636 5.47862 3.79467L6.25975 5.56073C6.3109 5.67447 6.32992 5.80005 6.31476 5.92384C6.29959 6.04763 6.25083 6.1649 6.17374 6.26293L5.77879 6.77555C5.69609 6.88066 5.64616 7.0078 5.63524 7.1411C5.62431 7.27441 5.65287 7.40798 5.71735 7.52515C5.93853 7.91137 6.46864 8.48192 7.05668 9.01208C7.71669 9.60721 8.44867 10.1532 8.91208 10.341C9.03636 10.3907 9.17262 10.4025 9.30356 10.3746C9.4345 10.3468 9.55423 10.2807 9.64757 10.1848L10.1057 9.72307C10.1941 9.63589 10.3041 9.57371 10.4243 9.54287C10.5446 9.51203 10.6709 9.51364 10.7903 9.54752L12.6457 10.0742C12.7483 10.1055 12.8424 10.1599 12.9207 10.2333C12.999 10.3066 13.0594 10.3969 13.0974 10.4973C13.1354 10.5976 13.1498 10.7053 13.1397 10.8122C13.1295 10.919 13.0951 11.022 13.0389 11.1134Z" fill="#1458A1"/>
</svg>
