<svg width="118" height="118" viewBox="0 0 118 118" fill="none" xmlns="http://www.w3.org/2000/svg">
<path d="M53.572 117.965H33.394C32.5472 117.965 31.86 117.278 31.86 116.431V114.634C31.86 114.057 32.1793 113.558 32.6443 113.294V91.2418C32.6443 91.2001 32.6513 86.5842 37.3088 84.7865C41.7581 83.0651 62.2346 75.5964 62.4428 75.52C62.5469 75.4922 64.4072 74.9231 64.3655 71.5149C64.3239 67.8153 64.3655 36.6355 64.3655 36.3162C64.3655 36.1843 64.4696 33.4842 62.2068 32.8942C61.5752 32.6513 60.9782 32.45 60.3952 32.2556C57.0356 31.1312 53.8705 30.0692 53.9885 23.8846C54.1065 17.6722 54.0162 7.17023 53.9885 4.90047C53.1972 4.83799 52.5794 4.17858 52.5794 3.37341V1.57564C52.5794 0.728818 53.2666 0.0416412 54.1134 0.0416412H74.2914C75.1382 0.0416412 75.8254 0.728818 75.8254 1.57564V3.37341C75.8254 4.0467 75.3812 4.62976 74.7565 4.83105V14.0906C74.7565 14.0906 74.9578 15.9022 78.7615 16.7976C79.1433 16.8879 79.5112 16.9712 79.8721 17.0475C83.3774 17.8249 86.14 18.4427 86.14 23.8429V83.3635C86.14 85.7791 85.1821 88.0488 83.5162 89.5898C82.9054 90.1589 82.2738 90.5476 81.6352 90.7559C79.0877 91.5888 56.1333 100.508 55.9042 100.598C55.7862 100.626 54.1065 101.029 54.1065 102.521V113.204C54.6895 113.419 55.106 113.981 55.106 114.64V116.438C55.106 117.285 54.4188 117.972 53.572 117.972V117.965ZM33.394 113.759C32.915 113.759 32.5194 114.148 32.5194 114.634V116.431C32.5194 116.91 32.9081 117.306 33.394 117.306H53.572C54.0509 117.306 54.4466 116.917 54.4466 116.431V114.634C54.4466 114.155 54.0579 113.759 53.572 113.759V113.433H53.447V102.521C53.447 100.904 54.9255 100.147 55.7099 99.9738C56.6053 99.6198 78.8656 90.978 81.4269 90.1381C81.9683 89.9576 82.5236 89.6175 83.065 89.1108C84.599 87.6948 85.4806 85.5986 85.4806 83.3635V23.8429C85.4806 18.9702 83.3149 18.4913 79.7263 17.6931C79.3654 17.6098 78.9906 17.5265 78.6088 17.4362C74.2775 16.4089 74.104 14.2016 74.097 14.1045V4.26188L74.3886 4.22717C74.8328 4.17858 75.166 3.80376 75.166 3.36646V1.5687C75.166 1.08976 74.7773 0.694112 74.2914 0.694112H54.1134C53.6345 0.694112 53.2388 1.08282 53.2388 1.5687V3.36646C53.2388 3.84541 53.6275 4.24105 54.1134 4.24105H54.6479V4.56729C54.6618 5.85141 54.7728 17.2905 54.6479 23.8915C54.5368 29.5972 57.2161 30.4926 60.6103 31.6309C61.2073 31.8322 61.8112 32.0335 62.415 32.2695C65.1637 32.9845 65.0319 36.3023 65.0319 36.3371C65.0319 36.6355 64.9902 67.8153 65.0319 71.508C65.0805 75.4575 62.7482 76.1239 62.651 76.1516C62.4706 76.2211 42.008 83.6898 37.5587 85.4042C33.3246 87.0424 33.3107 91.2001 33.3176 91.2418V113.1H33.4079V113.759H33.394Z" fill="#12569C"/>
<path d="M44.0071 113.093L43.4448 113.079L43.6184 106.103V96.7878C43.6184 95.4065 44.8816 94.7609 45.548 94.6082C46.5059 94.2126 70.0365 84.5713 72.2229 83.8494C72.688 83.6967 73.16 83.4052 73.6181 82.9748C74.93 81.7671 75.6796 79.9693 75.6796 78.0535V29.611C75.6796 25.4533 73.8333 25.0368 70.7653 24.3566C70.4529 24.2872 70.1336 24.2178 69.8074 24.1414C68.8356 23.9123 68.0235 23.5931 67.3919 23.1835C66.4895 22.6074 65.9551 21.6079 65.9551 20.4973V5.49741H66.5173V20.4973C66.5173 21.4135 66.9546 22.2395 67.6904 22.7046C68.2665 23.0725 69.0231 23.3709 69.9324 23.5861C70.2586 23.6625 70.5709 23.7319 70.8833 23.8013C73.8749 24.4676 76.2349 24.9952 76.2349 29.6041V78.0535C76.2349 80.1289 75.4159 82.0725 73.9929 83.3913C73.4724 83.8772 72.9309 84.2103 72.3895 84.3839C70.2169 85.0919 45.9506 95.0386 45.7076 95.1427C45.6035 95.1705 44.1667 95.5106 44.1667 96.7878V106.11L43.9932 113.093H44.0071Z" fill="#12569C"/>
<path d="M42.4522 112.947H41.9247L42.0913 103.993V95.1913C42.0913 93.8863 43.2852 93.2755 43.9168 93.1367C44.8955 92.7411 68.9328 83.1831 71.0082 82.5028C71.4455 82.3571 71.8897 82.0794 72.327 81.6768C73.5626 80.5315 74.2706 78.8379 74.2706 77.0262V31.2492C74.2706 26.3695 72.9864 26.1335 69.8837 25.5644C69.259 25.4464 68.551 25.3214 67.7806 25.134C66.9615 24.9396 66.6075 24.6828 66.2674 24.4399C66.1702 24.3705 66.08 24.3011 65.9689 24.2316C65.1221 23.6902 64.6154 22.2742 64.6154 21.2261V5.64317H65.1429V21.2331C65.1429 22.1285 65.5871 23.3709 66.2535 23.7943C66.3715 23.8707 66.4756 23.9471 66.5797 24.0165C66.906 24.2525 67.1836 24.4538 67.9055 24.6273C68.6621 24.8078 69.3631 24.9327 69.9809 25.0507C73.1877 25.6407 74.805 25.9322 74.805 31.2561V77.0262C74.805 78.9837 74.0346 80.8231 72.688 82.0655C72.1952 82.5237 71.6815 82.836 71.1748 83.0095C69.1202 83.6828 44.3263 93.5462 44.0764 93.6434C43.9793 93.6712 42.6257 93.9905 42.6257 95.1913V104L42.4592 112.954L42.4522 112.947Z" fill="#12569C"/>
<path d="M51.6146 114.731H34.9419C34.6352 114.731 34.3866 114.979 34.3866 115.286V115.328C34.3866 115.634 34.6352 115.883 34.9419 115.883H51.6146C51.9213 115.883 52.1699 115.634 52.1699 115.328V115.286C52.1699 114.979 51.9213 114.731 51.6146 114.731Z" fill="#12569C"/>
<path d="M36.58 115.494H35.8303V115.779H36.58V115.494Z" fill="#12569C"/>
<path d="M36.4342 115.779H35.983V116.646H36.4342V115.779Z" fill="#12569C"/>
<path d="M37.6697 115.494H36.92V115.779H37.6697V115.494Z" fill="#12569C"/>
<path d="M37.517 115.779H37.0658V116.646H37.517V115.779Z" fill="#12569C"/>
<path d="M38.7595 115.494H38.0099V115.779H38.7595V115.494Z" fill="#12569C"/>
<path d="M38.6068 115.779H38.1556V116.646H38.6068V115.779Z" fill="#12569C"/>
<path d="M39.8423 115.494H39.0927V115.779H39.8423V115.494Z" fill="#12569C"/>
<path d="M39.6965 115.779H39.2454V116.646H39.6965V115.779Z" fill="#12569C"/>
<path d="M40.9321 115.494H40.1825V115.779H40.9321V115.494Z" fill="#12569C"/>
<path d="M40.7864 115.779H40.3352V116.646H40.7864V115.779Z" fill="#12569C"/>
<path d="M42.0219 115.494H41.2722V115.779H42.0219V115.494Z" fill="#12569C"/>
<path d="M41.8691 115.779H41.418V116.646H41.8691V115.779Z" fill="#12569C"/>
<path d="M43.1116 115.494H42.3619V115.779H43.1116V115.494Z" fill="#12569C"/>
<path d="M42.9589 115.779H42.5077V116.646H42.9589V115.779Z" fill="#12569C"/>
<path d="M44.1945 115.494H43.4448V115.779H44.1945V115.494Z" fill="#12569C"/>
<path d="M44.0487 115.779H43.5975V116.646H44.0487V115.779Z" fill="#12569C"/>
<path d="M45.2842 115.494H44.5345V115.779H45.2842V115.494Z" fill="#12569C"/>
<path d="M45.1384 115.779H44.6873V116.646H45.1384V115.779Z" fill="#12569C"/>
<path d="M46.3739 115.494H45.6243V115.779H46.3739V115.494Z" fill="#12569C"/>
<path d="M46.2212 115.779H45.77V116.646H46.2212V115.779Z" fill="#12569C"/>
<path d="M47.4638 115.494H46.7141V115.779H47.4638V115.494Z" fill="#12569C"/>
<path d="M47.311 115.779H46.8599V116.646H47.311V115.779Z" fill="#12569C"/>
<path d="M48.5465 115.494H47.7969V115.779H48.5465V115.494Z" fill="#12569C"/>
<path d="M48.4008 115.779H47.9496V116.646H48.4008V115.779Z" fill="#12569C"/>
<path d="M49.6364 115.494H48.8867V115.779H49.6364V115.494Z" fill="#12569C"/>
<path d="M49.4906 115.779H49.0394V116.646H49.4906V115.779Z" fill="#12569C"/>
<path d="M50.7261 115.494H49.9764V115.779H50.7261V115.494Z" fill="#12569C"/>
<path d="M50.5803 115.779H50.1292V116.646H50.5803V115.779Z" fill="#12569C"/>
<path d="M50.7261 114.828H49.9764V115.112H50.7261V114.828Z" fill="#12569C"/>
<path d="M50.5803 113.96H50.1292V114.828H50.5803V113.96Z" fill="#12569C"/>
<path d="M49.6364 114.828H48.8867V115.112H49.6364V114.828Z" fill="#12569C"/>
<path d="M49.4906 113.96H49.0394V114.828H49.4906V113.96Z" fill="#12569C"/>
<path d="M48.5465 114.828H47.7969V115.112H48.5465V114.828Z" fill="#12569C"/>
<path d="M48.4008 113.96H47.9496V114.828H48.4008V113.96Z" fill="#12569C"/>
<path d="M47.4638 114.828H46.7141V115.112H47.4638V114.828Z" fill="#12569C"/>
<path d="M47.311 113.96H46.8599V114.828H47.311V113.96Z" fill="#12569C"/>
<path d="M46.3739 114.828H45.6243V115.112H46.3739V114.828Z" fill="#12569C"/>
<path d="M46.2212 113.96H45.77V114.828H46.2212V113.96Z" fill="#12569C"/>
<path d="M45.2842 114.828H44.5345V115.112H45.2842V114.828Z" fill="#12569C"/>
<path d="M45.1384 113.96H44.6873V114.828H45.1384V113.96Z" fill="#12569C"/>
<path d="M44.1945 114.828H43.4448V115.112H44.1945V114.828Z" fill="#12569C"/>
<path d="M44.0487 113.96H43.5975V114.828H44.0487V113.96Z" fill="#12569C"/>
<path d="M43.1116 114.828H42.3619V115.112H43.1116V114.828Z" fill="#12569C"/>
<path d="M42.9589 113.96H42.5077V114.828H42.9589V113.96Z" fill="#12569C"/>
<path d="M42.0219 114.828H41.2722V115.112H42.0219V114.828Z" fill="#12569C"/>
<path d="M41.8691 113.96H41.418V114.828H41.8691V113.96Z" fill="#12569C"/>
<path d="M40.9321 114.828H40.1825V115.112H40.9321V114.828Z" fill="#12569C"/>
<path d="M40.7864 113.96H40.3352V114.828H40.7864V113.96Z" fill="#12569C"/>
<path d="M39.8423 114.828H39.0927V115.112H39.8423V114.828Z" fill="#12569C"/>
<path d="M39.6965 113.96H39.2454V114.828H39.6965V113.96Z" fill="#12569C"/>
<path d="M38.7595 114.828H38.0099V115.112H38.7595V114.828Z" fill="#12569C"/>
<path d="M38.6068 113.96H38.1556V114.828H38.6068V113.96Z" fill="#12569C"/>
<path d="M37.6697 114.828H36.92V115.112H37.6697V114.828Z" fill="#12569C"/>
<path d="M37.517 113.96H37.0658V114.828H37.517V113.96Z" fill="#12569C"/>
<path d="M36.58 114.828H35.8303V115.112H36.58V114.828Z" fill="#12569C"/>
<path d="M36.4342 113.96H35.983V114.828H36.4342V113.96Z" fill="#12569C"/>
<path d="M72.5353 2.04071H55.8625C55.5559 2.04071 55.3073 2.28932 55.3073 2.596V2.63765C55.3073 2.94433 55.5559 3.19295 55.8625 3.19295H72.5353C72.8419 3.19295 73.0905 2.94433 73.0905 2.63765V2.596C73.0905 2.28932 72.8419 2.04071 72.5353 2.04071Z" fill="#12569C"/>
<path d="M57.5006 2.80423H56.751V3.08882H57.5006V2.80423Z" fill="#12569C"/>
<path d="M57.3549 3.08882H56.9037V3.95647H57.3549V3.08882Z" fill="#12569C"/>
<path d="M58.5903 2.80423H57.8407V3.08882H58.5903V2.80423Z" fill="#12569C"/>
<path d="M58.4376 3.08882H57.9865V3.95647H58.4376V3.08882Z" fill="#12569C"/>
<path d="M59.6802 2.80423H58.9305V3.08882H59.6802V2.80423Z" fill="#12569C"/>
<path d="M59.5275 3.08882H59.0763V3.95647H59.5275V3.08882Z" fill="#12569C"/>
<path d="M60.763 2.80423H60.0133V3.08882H60.763V2.80423Z" fill="#12569C"/>
<path d="M60.6172 3.08882H60.166V3.95647H60.6172V3.08882Z" fill="#12569C"/>
<path d="M61.8528 2.80423H61.1031V3.08882H61.8528V2.80423Z" fill="#12569C"/>
<path d="M61.707 3.08882H61.2559V3.95647H61.707V3.08882Z" fill="#12569C"/>
<path d="M62.9425 2.80423H62.1929V3.08882H62.9425V2.80423Z" fill="#12569C"/>
<path d="M62.7898 3.08882H62.3386V3.95647H62.7898V3.08882Z" fill="#12569C"/>
<path d="M64.0322 2.80423H63.2826V3.08882H64.0322V2.80423Z" fill="#12569C"/>
<path d="M63.8795 3.08882H63.4283V3.95647H63.8795V3.08882Z" fill="#12569C"/>
<path d="M65.1151 2.80423H64.3655V3.08882H65.1151V2.80423Z" fill="#12569C"/>
<path d="M64.9694 3.08882H64.5182V3.95647H64.9694V3.08882Z" fill="#12569C"/>
<path d="M66.2048 2.80423H65.4552V3.08882H66.2048V2.80423Z" fill="#12569C"/>
<path d="M66.0591 3.08882H65.6079V3.95647H66.0591V3.08882Z" fill="#12569C"/>
<path d="M67.2946 2.80423H66.5449V3.08882H67.2946V2.80423Z" fill="#12569C"/>
<path d="M67.1488 3.08882H66.6976V3.95647H67.1488V3.08882Z" fill="#12569C"/>
<path d="M68.3844 2.80423H67.6348V3.08882H68.3844V2.80423Z" fill="#12569C"/>
<path d="M68.2317 3.08882H67.7805V3.95647H68.2317V3.08882Z" fill="#12569C"/>
<path d="M69.4672 2.80423H68.7175V3.08882H69.4672V2.80423Z" fill="#12569C"/>
<path d="M69.3214 3.08882H68.8702V3.95647H69.3214V3.08882Z" fill="#12569C"/>
<path d="M70.557 2.80423H69.8074V3.08882H70.557V2.80423Z" fill="#12569C"/>
<path d="M70.4113 3.08882H69.9601V3.95647H70.4113V3.08882Z" fill="#12569C"/>
<path d="M71.6467 2.80423H70.8971V3.08882H71.6467V2.80423Z" fill="#12569C"/>
<path d="M71.501 3.08882H71.0498V3.95647H71.501V3.08882Z" fill="#12569C"/>
<path d="M71.6467 2.13094H70.8971V2.41552H71.6467V2.13094Z" fill="#12569C"/>
<path d="M71.501 1.27023H71.0498V2.13788H71.501V1.27023Z" fill="#12569C"/>
<path d="M70.557 2.13094H69.8074V2.41552H70.557V2.13094Z" fill="#12569C"/>
<path d="M70.4113 1.27023H69.9601V2.13788H70.4113V1.27023Z" fill="#12569C"/>
<path d="M69.4672 2.13094H68.7175V2.41552H69.4672V2.13094Z" fill="#12569C"/>
<path d="M69.3214 1.27023H68.8702V2.13788H69.3214V1.27023Z" fill="#12569C"/>
<path d="M68.3844 2.13094H67.6348V2.41552H68.3844V2.13094Z" fill="#12569C"/>
<path d="M68.2317 1.27023H67.7805V2.13788H68.2317V1.27023Z" fill="#12569C"/>
<path d="M67.2946 2.13094H66.5449V2.41552H67.2946V2.13094Z" fill="#12569C"/>
<path d="M67.1488 1.27023H66.6976V2.13788H67.1488V1.27023Z" fill="#12569C"/>
<path d="M66.2048 2.13094H65.4552V2.41552H66.2048V2.13094Z" fill="#12569C"/>
<path d="M66.0591 1.27023H65.6079V2.13788H66.0591V1.27023Z" fill="#12569C"/>
<path d="M65.1151 2.13094H64.3655V2.41552H65.1151V2.13094Z" fill="#12569C"/>
<path d="M64.9694 1.27023H64.5182V2.13788H64.9694V1.27023Z" fill="#12569C"/>
<path d="M64.0322 2.13094H63.2826V2.41552H64.0322V2.13094Z" fill="#12569C"/>
<path d="M63.8795 1.27023H63.4283V2.13788H63.8795V1.27023Z" fill="#12569C"/>
<path d="M62.9425 2.13094H62.1929V2.41552H62.9425V2.13094Z" fill="#12569C"/>
<path d="M62.7898 1.27023H62.3386V2.13788H62.7898V1.27023Z" fill="#12569C"/>
<path d="M61.8528 2.13094H61.1031V2.41552H61.8528V2.13094Z" fill="#12569C"/>
<path d="M61.707 1.27023H61.2559V2.13788H61.707V1.27023Z" fill="#12569C"/>
<path d="M60.763 2.13094H60.0133V2.41552H60.763V2.13094Z" fill="#12569C"/>
<path d="M60.6172 1.27023H60.166V2.13788H60.6172V1.27023Z" fill="#12569C"/>
<path d="M59.6802 2.13094H58.9305V2.41552H59.6802V2.13094Z" fill="#12569C"/>
<path d="M59.5275 1.27023H59.0763V2.13788H59.5275V1.27023Z" fill="#12569C"/>
<path d="M58.5903 2.13094H57.8407V2.41552H58.5903V2.13094Z" fill="#12569C"/>
<path d="M58.4376 1.27023H57.9865V2.13788H58.4376V1.27023Z" fill="#12569C"/>
<path d="M57.5006 2.13094H56.751V2.41552H57.5006V2.13094Z" fill="#12569C"/>
<path d="M57.3549 1.27023H56.9037V2.13788H57.3549V1.27023Z" fill="#12569C"/>
</svg>
