<svg width="118" height="118" viewBox="0 0 118 118" fill="none" xmlns="http://www.w3.org/2000/svg">
<path d="M32.0405 110.087V7.37154C32.0405 4.18554 34.6434 1.58259 37.8294 1.58259H80.1775C83.3635 1.58259 85.9665 4.18554 85.9665 7.37154V110.08C85.9665 113.266 83.3635 115.869 80.1775 115.869H37.8294C34.6434 115.869 32.0405 113.266 32.0405 110.08M63.956 0.0971832C63.8102 0.590007 63.3521 0.957889 62.8038 0.957889H55.1893C54.6479 0.957889 54.1898 0.596948 54.0371 0.0971832H35.6915C33.0122 0.596948 30.9646 2.96389 30.9646 5.78201V112.211C30.9646 115.133 33.165 117.57 35.99 117.944H81.9961C84.3978 117.625 86.3413 115.82 86.8758 113.495V4.50483C86.3621 2.27671 84.5574 0.527536 82.2946 0.104124H63.9491L63.956 0.0971832Z" fill="#12569C"/>
<mask id="mask0_179_2362" style="mask-type:luminance" maskUnits="userSpaceOnUse" x="30" y="0" width="58" height="118">
<path d="M87.0216 0H30.9716V118H87.0216V0Z" fill="white"/>
</mask>
<g mask="url(#mask0_179_2362)">
<path d="M80.8856 7.18411H73.8889C72.9935 7.18411 72.2577 6.44835 72.2577 5.55294V5.25447C72.2577 4.35906 72.9935 3.62329 73.8889 3.62329H80.8856C81.781 3.62329 82.5167 4.35906 82.5167 5.25447V5.55294C82.5167 6.44835 81.781 7.18411 80.8856 7.18411Z" fill="#12569C"/>
</g>
<path d="M79.4071 5.40718C79.4071 6.11518 79.9832 6.68436 80.6843 6.68436C81.3853 6.68436 81.9615 6.10824 81.9615 5.40718C81.9615 4.70612 81.3923 4.13 80.6843 4.13C79.9763 4.13 79.4071 4.70612 79.4071 5.40718Z" fill="#F1F1F2"/>
<path d="M72.7644 5.40718C72.7644 6.11518 73.3405 6.68436 74.0416 6.68436C74.7426 6.68436 75.3188 6.10824 75.3188 5.40718C75.3188 4.70612 74.7496 4.13 74.0416 4.13C73.3336 4.13 72.7644 4.70612 72.7644 5.40718Z" fill="#F1F1F2"/>
</svg>
