<svg width="118" height="118" viewBox="0 0 118 118" fill="none" xmlns="http://www.w3.org/2000/svg">
<g clip-path="url(#clip0_179_2916)">
<path d="M75.6588 70.7584H42.7576C41.5499 70.7584 40.5712 69.7796 40.5712 68.5719V41.2514C40.5712 40.0436 41.5499 39.0649 42.7576 39.0649H75.6588C76.8666 39.0649 77.8453 40.0436 77.8453 41.2514V68.5719C77.8453 69.7796 76.8666 70.7584 75.6588 70.7584ZM42.7576 39.8146C41.9663 39.8146 41.3139 40.4601 41.3139 41.2584V68.5788C41.3139 69.3701 41.9594 70.0226 42.7576 70.0226H75.6588C76.4501 70.0226 77.1026 69.3771 77.1026 68.5788V41.2584C77.1026 40.4671 76.457 39.8146 75.6588 39.8146H42.7576Z" fill="#12569C"/>
<path d="M76.6931 114.772V86.0428H44.3472V114.772H76.6931Z" fill="#12569C"/>
<path d="M75.6102 93.2547V91.3459C75.6102 90.8744 75.228 90.4921 74.7565 90.4921H67.8639C67.3924 90.4921 67.0101 90.8744 67.0101 91.3459V93.2547C67.0101 93.7262 67.3924 94.1085 67.8639 94.1085H74.7565C75.228 94.1085 75.6102 93.7262 75.6102 93.2547Z" fill="#F1F1F2"/>
<path d="M75.6102 98.4953V96.5865C75.6102 96.1149 75.228 95.7327 74.7565 95.7327H67.8639C67.3924 95.7327 67.0101 96.1149 67.0101 96.5865V98.4953C67.0101 98.9668 67.3924 99.3491 67.8639 99.3491H74.7565C75.228 99.3491 75.6102 98.9668 75.6102 98.4953Z" fill="#F1F1F2"/>
<path d="M75.6102 103.715V101.806C75.6102 101.335 75.228 100.952 74.7565 100.952H67.8639C67.3924 100.952 67.0101 101.335 67.0101 101.806V103.715C67.0101 104.187 67.3924 104.569 67.8639 104.569H74.7565C75.228 104.569 75.6102 104.187 75.6102 103.715Z" fill="#F1F1F2"/>
<path d="M75.6172 109.4V107.491C75.6172 107.02 75.2349 106.637 74.7634 106.637H67.8708C67.3993 106.637 67.0171 107.02 67.0171 107.491V109.4C67.0171 109.871 67.3993 110.254 67.8708 110.254H74.7634C75.2349 110.254 75.6172 109.871 75.6172 109.4Z" fill="#F1F1F2"/>
<path d="M44.0903 114.772V86.0428H74.8814V87.9447C74.8328 88.4445 74.5829 88.9095 74.1664 89.2011C72.5422 90.3464 69.0716 90.4227 69.0508 91.4986C68.8981 100.182 69.0716 101.806 69.0508 108.643C69.0508 110.136 72.0147 110.309 73.6389 111.156C74.3191 111.51 74.7703 112.183 74.8744 112.94V114.772H44.0834H44.0903Z" fill="#799BB5"/>
<path d="M67.5515 116.681V114.772H66.4687V116.681H67.5515Z" fill="#145FA3"/>
<path d="M65.5316 116.681V114.772H64.4488V116.681H65.5316Z" fill="#145FA3"/>
<path d="M63.5187 116.681V114.772H62.4359V116.681H63.5187Z" fill="#145FA3"/>
<path d="M61.5057 116.681V114.772H60.4229V116.681H61.5057Z" fill="#145FA3"/>
<path d="M67.5515 86.0428V84.134H66.4687V86.0428H67.5515Z" fill="#145FA3"/>
<path d="M65.5386 86.0428V84.134H64.4558V86.0428H65.5386Z" fill="#145FA3"/>
<path d="M63.5256 86.0359V84.1271H62.4428V86.0359H63.5256Z" fill="#145FA3"/>
<path d="M61.5057 86.0428V84.134H60.4229V86.0428H61.5057Z" fill="#145FA3"/>
<path d="M43.0631 43.6253V26.1613C43.0631 25.7032 43.4379 25.3353 43.8891 25.3353L54.2315 26.4875C55.6822 26.6472 57.1537 26.6472 58.6044 26.4875L68.9468 25.3353C69.4049 25.3353 69.7728 25.7101 69.7728 26.1613V43.6253C69.7728 44.0834 69.3979 44.4513 68.9468 44.4513H43.8891C43.431 44.4513 43.0631 44.0765 43.0631 43.6253Z" fill="#12569C"/>
<path d="M67.2461 37.8433V37.1214C67.2461 36.7496 66.9446 36.4481 66.5728 36.4481C66.2009 36.4481 65.8995 36.7496 65.8995 37.1214V37.8433C65.8995 38.2151 66.2009 38.5166 66.5728 38.5166C66.9446 38.5166 67.2461 38.2151 67.2461 37.8433Z" fill="#F1F1F2"/>
<path d="M64.7057 37.8433V37.1214C64.7057 36.7496 64.4042 36.4481 64.0324 36.4481C63.6605 36.4481 63.3591 36.7496 63.3591 37.1214V37.8433C63.3591 38.2151 63.6605 38.5166 64.0324 38.5166C64.4042 38.5166 64.7057 38.2151 64.7057 37.8433Z" fill="#F1F1F2"/>
<path d="M59.701 37.8364V37.1145C59.701 36.7426 59.3996 36.4412 59.0278 36.4412C58.6559 36.4412 58.3545 36.7426 58.3545 37.1145V37.8364C58.3545 38.2082 58.6559 38.5096 59.0278 38.5096C59.3996 38.5096 59.701 38.2082 59.701 37.8364Z" fill="#F1F1F2"/>
<path d="M57.0842 36.8091V36.0872C57.0842 35.7153 56.7828 35.4139 56.4109 35.4139C56.0391 35.4139 55.7376 35.7153 55.7376 36.0872V36.8091C55.7376 37.1809 56.0391 37.4823 56.4109 37.4823C56.7828 37.4823 57.0842 37.1809 57.0842 36.8091Z" fill="#F1F1F2"/>
<path d="M54.8214 37.7253V37.1422C54.8214 36.7321 54.4889 36.3995 54.0787 36.3995H54.0718C53.6616 36.3995 53.3291 36.7321 53.3291 37.1422V37.7253C53.3291 38.1355 53.6616 38.468 54.0718 38.468H54.0787C54.4889 38.468 54.8214 38.1355 54.8214 37.7253Z" fill="#F1F1F2"/>
<path d="M52.5586 37.7253V37.1422C52.5586 36.7321 52.2261 36.3995 51.8159 36.3995H51.8089C51.3988 36.3995 51.0662 36.7321 51.0662 37.1422V37.7253C51.0662 38.1355 51.3988 38.468 51.8089 38.468H51.8159C52.2261 38.468 52.5586 38.1355 52.5586 37.7253Z" fill="#F1F1F2"/>
<path d="M50.1084 37.7253V37.1422C50.1084 36.7321 49.7759 36.3995 49.3657 36.3995H49.3588C48.9486 36.3995 48.616 36.7321 48.616 37.1422V37.7253C48.616 38.1355 48.9486 38.468 49.3588 38.468H49.3657C49.7759 38.468 50.1084 38.1355 50.1084 37.7253Z" fill="#F1F1F2"/>
<path d="M76.4639 118H41.9524C41.1819 118 40.5572 117.375 40.5572 116.605V84.0021C40.5572 83.2316 41.1819 82.6069 41.9524 82.6069H49.3656C49.9764 82.6069 50.4762 82.1072 50.4762 81.4964V71.9869C50.4762 71.3136 49.9278 70.7722 49.2615 70.7722H41.5915C40.7932 70.7722 40.1477 70.1267 40.1477 69.3285V40.4948C40.1477 40.4115 40.1546 40.3282 40.1685 40.2449C40.1546 40.1478 40.1477 40.0506 40.1477 39.9534V26.5222C40.1477 25.37 41.0848 24.4329 42.237 24.4329H45.7006C46.5683 24.4329 47.2763 23.7249 47.2763 22.8573C47.2763 22.5033 47.3735 22.1562 47.5609 21.8508C47.4151 19.9073 47.2208 14.1253 49.9278 12.0776C52.6557 10.0092 52.1629 8.43352 52.1421 8.36411L51.9685 7.85741H52.503H64.8305V8.91247C64.8236 9.12764 64.6154 13.9309 60.3882 17.1863C59.5205 18.3039 59.1318 19.7129 59.3401 20.9346H67.0934C68.1623 20.9346 69.0299 21.8022 69.0299 22.8712V23.5931C69.0299 24.0651 69.4117 24.4468 69.8837 24.4468C71.0359 24.4468 71.973 25.3839 71.973 26.5361V39.0649H76.2141C77.0123 39.0649 77.6578 39.7105 77.6578 40.5087V69.3424C77.6578 70.1406 77.0123 70.7861 76.2141 70.7861H69.0299V82.6208H76.4709C77.2414 82.6208 77.8661 83.2455 77.8661 84.016V116.619C77.8661 117.389 77.2414 118.014 76.4709 118.014L76.4639 118ZM41.9524 83.3843C41.6123 83.3843 41.3277 83.662 41.3277 84.0091V116.612C41.3277 116.952 41.6054 117.236 41.9524 117.236H76.4639C76.8041 117.236 77.0886 116.959 77.0886 116.612V84.0091C77.0886 83.6689 76.811 83.3843 76.4639 83.3843H68.2525V70.0087H76.2071C76.5819 70.0087 76.8804 69.7033 76.8804 69.3354V40.5018C76.8804 40.1269 76.575 39.8285 76.2071 39.8285H71.1956V26.5292C71.1956 25.8004 70.6056 25.2103 69.8768 25.2103C68.9814 25.2103 68.2525 24.4815 68.2525 23.5861V22.8642C68.2525 22.2187 67.7319 21.6981 67.0864 21.6981H58.7223L58.6459 21.4066C58.2572 19.8795 58.7015 18.0679 59.8051 16.6658L59.8745 16.5963C63.8379 13.5631 64.0531 8.93329 64.0531 8.89164V8.62094H52.9472C52.9819 9.39835 52.6904 10.9462 50.3859 12.6885C47.8663 14.5973 48.2342 20.7125 48.3383 21.9202L48.3522 22.0591L48.2689 22.1771C48.1231 22.3783 48.0468 22.6143 48.0468 22.8573C48.0468 24.1553 46.9917 25.2034 45.7006 25.2034H42.237C41.5082 25.2034 40.9182 25.7934 40.9182 26.5222V39.9534C40.9182 40.0367 40.9321 40.1131 40.939 40.1894L40.9529 40.2658L40.9321 40.3421C40.9182 40.3976 40.9112 40.4462 40.9112 40.4948V69.3285C40.9112 69.7033 41.2097 70.0018 41.5845 70.0018H49.2545C50.3512 70.0018 51.2397 70.8902 51.2397 71.9869V81.4964C51.2397 82.5375 50.3929 83.3774 49.3586 83.3774H41.9455L41.9524 83.3843Z" fill="#12569C"/>
<path d="M68.2386 6.78848V1.75612C68.2386 0.786245 67.4524 0 66.4825 0L50.3721 0C49.4022 0 48.6159 0.786245 48.6159 1.75612V6.78848C48.6159 7.75835 49.4022 8.54459 50.3721 8.54459L66.4825 8.54459C67.4524 8.54459 68.2386 7.75835 68.2386 6.78848Z" fill="#12569C"/>
<path d="M61.7626 67.0587V66.3091C61.7626 65.5807 61.1721 64.9902 60.4438 64.9902H57.348C56.6196 64.9902 56.0292 65.5807 56.0292 66.3091V67.0587C56.0292 67.7871 56.6196 68.3775 57.348 68.3775H60.4438C61.1721 68.3775 61.7626 67.7871 61.7626 67.0587Z" fill="#145FA3"/>
</g>
<defs>
<clipPath id="clip0_179_2916">
<rect width="118" height="118" fill="white"/>
</clipPath>
</defs>
</svg>
