<svg width="118" height="118" viewBox="0 0 118 118" fill="none" xmlns="http://www.w3.org/2000/svg">
<path d="M42.716 104.409H42.6743C42.3676 104.409 42.119 104.658 42.119 104.964V107.72C42.119 108.027 42.3676 108.275 42.6743 108.275H42.716C43.0226 108.275 43.2713 108.027 43.2713 107.72V104.964C43.2713 104.658 43.0226 104.409 42.716 104.409Z" fill="#6C8EAD"/>
<path d="M44.6456 104.409H44.604C44.2973 104.409 44.0487 104.658 44.0487 104.964V107.72C44.0487 108.027 44.2973 108.275 44.604 108.275H44.6456C44.9523 108.275 45.2009 108.027 45.2009 107.72V104.964C45.2009 104.658 44.9523 104.409 44.6456 104.409Z" fill="#6C8EAD"/>
<path d="M46.5823 104.409H46.5406C46.234 104.409 45.9854 104.658 45.9854 104.964V107.72C45.9854 108.027 46.234 108.275 46.5406 108.275H46.5823C46.889 108.275 47.1376 108.027 47.1376 107.72V104.964C47.1376 104.658 46.889 104.409 46.5823 104.409Z" fill="#6C8EAD"/>
<path d="M48.8659 104.409H48.8242C48.5175 104.409 48.2689 104.658 48.2689 104.964V107.72C48.2689 108.027 48.5175 108.275 48.8242 108.275H48.8659C49.1725 108.275 49.4212 108.027 49.4212 107.72V104.964C49.4212 104.658 49.1725 104.409 48.8659 104.409Z" fill="#6C8EAD"/>
<path d="M50.74 104.409H50.6984C50.3917 104.409 50.1431 104.658 50.1431 104.964V107.72C50.1431 108.027 50.3917 108.275 50.6984 108.275H50.74C51.0467 108.275 51.2953 108.027 51.2953 107.72V104.964C51.2953 104.658 51.0467 104.409 50.74 104.409Z" fill="#6C8EAD"/>
<path d="M52.6627 104.409H52.6211C52.3144 104.409 52.0658 104.658 52.0658 104.964V107.72C52.0658 108.027 52.3144 108.275 52.6211 108.275H52.6627C52.9694 108.275 53.218 108.027 53.218 107.72V104.964C53.218 104.658 52.9694 104.409 52.6627 104.409Z" fill="#6C8EAD"/>
<path d="M54.8839 104.409H54.8423C54.5356 104.409 54.287 104.658 54.287 104.964V107.72C54.287 108.027 54.5356 108.275 54.8423 108.275H54.8839C55.1906 108.275 55.4392 108.027 55.4392 107.72V104.964C55.4392 104.658 55.1906 104.409 54.8839 104.409Z" fill="#6C8EAD"/>
<path d="M57.3897 104.409H57.348C57.0413 104.409 56.7927 104.658 56.7927 104.964V107.72C56.7927 108.027 57.0413 108.275 57.348 108.275H57.3897C57.6963 108.275 57.945 108.027 57.945 107.72V104.964C57.945 104.658 57.6963 104.409 57.3897 104.409Z" fill="#6C8EAD"/>
<path d="M59.1666 104.409H59.125C58.8183 104.409 58.5697 104.658 58.5697 104.964V107.72C58.5697 108.027 58.8183 108.275 59.125 108.275H59.1666C59.4733 108.275 59.7219 108.027 59.7219 107.72V104.964C59.7219 104.658 59.4733 104.409 59.1666 104.409Z" fill="#6C8EAD"/>
<path d="M60.6797 104.409H60.6381C60.3314 104.409 60.0828 104.658 60.0828 104.964V107.72C60.0828 108.027 60.3314 108.275 60.6381 108.275H60.6797C60.9864 108.275 61.235 108.027 61.235 107.72V104.964C61.235 104.658 60.9864 104.409 60.6797 104.409Z" fill="#6C8EAD"/>
<path d="M63.1856 104.409H63.1439C62.8372 104.409 62.5886 104.658 62.5886 104.964V107.72C62.5886 108.027 62.8372 108.275 63.1439 108.275H63.1856C63.4922 108.275 63.7409 108.027 63.7409 107.72V104.964C63.7409 104.658 63.4922 104.409 63.1856 104.409Z" fill="#6C8EAD"/>
<path d="M65.1221 104.409H65.0804C64.7738 104.409 64.5251 104.658 64.5251 104.964V107.72C64.5251 108.027 64.7738 108.275 65.0804 108.275H65.1221C65.4288 108.275 65.6774 108.027 65.6774 107.72V104.964C65.6774 104.658 65.4288 104.409 65.1221 104.409Z" fill="#6C8EAD"/>
<path d="M105.089 8.29471H110.219C114.509 8.29471 118 11.7792 118 16.0758V41.5707C118 45.8604 114.516 49.3518 110.219 49.3518H105.089C102.965 49.3518 101.237 47.6234 101.237 45.4994V12.154C101.237 10.03 102.965 8.30165 105.089 8.30165V8.29471Z" fill="#12569C"/>
<path d="M66.2049 109.705H42.0982C41.2098 109.705 40.7933 109.212 40.7516 109.157L40.6892 109.053L39.5369 106.339V105.457H36.5036C36.1011 105.457 35.7748 105.332 35.5388 105.082C35.1015 104.617 35.1432 103.896 35.1779 103.319C35.1848 103.194 35.1918 103.076 35.1918 102.972C35.1918 102.82 35.1918 102.362 33.9771 102.362C32.7624 102.362 32.3875 101.195 32.3736 100.571V96.0312C32.3736 95.7466 31.6795 95.3301 31.1381 95.1288C30.4995 95.1358 26.314 95.1913 23.2876 95.1913C20.2613 95.1913 19.9559 93.3727 19.942 93.2894V93.2061L19.9351 80.9827C19.9351 80.3719 20.1433 79.8652 20.5389 79.5042C21.2747 78.8448 22.3714 78.9351 22.4894 78.9489H28.4449C30.5481 78.9489 31.0687 78.5394 31.1589 78.4422V72.098C31.1589 70.7792 32.5541 68.2873 37.8433 68.2873C42.1746 68.2873 44.132 63.5118 44.3749 62.8732V50.3721C44.3749 47.6998 46.3115 47.436 47.4707 47.2763C47.7275 47.2416 47.9705 47.2069 48.144 47.1583C48.852 46.9432 49.3101 45.7285 49.3101 44.0556C49.3101 43.6947 49.2129 43.4309 49.0117 43.2366C48.616 42.8479 47.9427 42.8548 47.9358 42.8548H18.4358C14.9652 42.8548 14.6667 46.3462 14.6598 46.492V78.0535V78.3312C14.6598 79.4487 14.6598 80.4135 15.104 80.8647C15.3539 81.1146 15.7704 81.2326 16.3742 81.2326C17.1586 81.2326 17.7694 81.4825 18.1928 81.9753C18.88 82.7874 18.7689 83.9743 18.7342 84.2242V101.161C18.7342 101.862 18.4635 102.285 18.2969 102.48C18.1859 102.861 17.818 103.986 17.0336 104.763C16.1591 105.638 15.4302 105.638 15.2012 105.603H12.6676C12.2304 105.61 11.3974 105.624 10.6755 104.895C10.2799 104.499 9.322 104.472 9.02353 104.492H2.42941C0.638588 104.492 0.0624706 103.153 0 102.445V87.2367C0 86.2719 0.548353 85.7513 0.610824 85.6958L4.02588 82.2807C4.31741 81.9892 4.51177 81.8989 4.69918 81.8226C4.83106 81.7671 4.96294 81.7046 5.19894 81.5311C6.02494 80.9133 6.05271 80.1359 6.05271 80.1012V44.1112C6.05271 40.8349 6.97588 38.2806 8.80141 36.5314C11.4738 33.9632 15.0832 34.0812 15.2359 34.0812H47.6859C48.1232 34.0812 48.4494 33.9632 48.6785 33.7133C49.1435 33.2135 49.0949 32.3598 49.0949 32.3528V14.2225C49.0949 9.05129 53.1486 8.85693 53.1902 8.85693H66.7186C69.3632 8.85693 69.8491 9.41917 70.7098 10.6963C70.8139 10.856 70.9319 11.0226 71.0568 11.2031C71.9592 12.4802 73.5001 12.5705 73.514 12.5705H97.8914C98.4051 12.5705 99.6545 11.9319 100.578 10.7866L101.411 9.75235V37.1422L100.571 36.0386C99.2033 34.2478 96.8919 34.2269 96.8711 34.2269H75.6033C74.4649 34.2269 70.7445 34.456 70.7445 37.4407C70.7445 39.4328 71.4178 39.5161 73.9929 39.5161C76.2835 39.5161 76.8944 41.2306 76.8944 42.1399V63.4076C76.8944 66.8921 77.4635 68.315 77.7689 69.0786L77.7967 69.148C78.1438 70.0226 77.8939 71.9175 77.8661 72.1327V76.4154H86.0984C86.9868 76.4154 87.6601 76.6722 88.0905 77.172C88.6874 77.8661 88.5625 78.7615 88.5555 78.7962V90.7142C88.5555 91.2626 88.3681 91.7276 88.0141 92.0608C87.3131 92.7202 86.2302 92.6786 86.1053 92.6647H76.8249L75.7491 93.3241V100.231C75.7491 101.799 74.7218 102.695 72.9309 102.695C72.6672 102.695 72.4867 102.743 72.4173 102.827C72.2854 102.979 72.3479 103.424 72.3965 103.784C72.4312 104.02 72.4589 104.256 72.4589 104.465C72.4589 104.978 72.2438 105.263 72.0633 105.409C71.7301 105.679 71.3206 105.659 71.1679 105.638H68.086L68.0513 106.894C68.0305 106.95 67.4544 108.345 67.2114 108.824C66.8921 109.469 66.2882 109.636 66.2258 109.657L66.1702 109.671L66.2049 109.705ZM41.5082 108.595C41.5707 108.643 41.7581 108.761 42.0913 108.761H66.0592C66.1355 108.727 66.3021 108.636 66.4062 108.435C66.6006 108.053 67.0518 106.964 67.1767 106.651V104.728H71.3206C71.3622 104.742 71.4594 104.735 71.4941 104.708C71.5149 104.694 71.5427 104.631 71.5427 104.492C71.5427 104.326 71.5149 104.138 71.4872 103.944C71.4039 103.368 71.3136 102.716 71.7301 102.244C71.9939 101.945 72.4034 101.792 72.9518 101.792C74.6385 101.792 74.8328 100.918 74.8328 100.265V92.8313L76.582 91.7623H86.1539C86.3968 91.7762 87.0493 91.7346 87.3964 91.4083C87.5629 91.2487 87.6462 91.0335 87.6462 90.742V78.7546C87.6462 78.6852 87.7157 78.1715 87.3964 77.8106C87.1465 77.526 86.7161 77.3872 86.1192 77.3872H76.9568V72.098C77.0609 71.3206 77.1442 70.0156 76.9568 69.5298L76.9291 69.4603C76.5959 68.6343 75.9851 67.1073 75.9851 63.4423V42.1746C75.9851 42.008 75.9087 40.4879 74.0276 40.4879C71.5982 40.4879 69.8352 40.4879 69.8352 37.4754C69.8352 34.9141 72.0564 33.3246 75.6311 33.3246H96.8988C96.996 33.3246 98.9118 33.3454 100.501 34.6365V12.2789C99.5712 13.0841 98.5508 13.5492 97.9122 13.5492H73.5071C73.4029 13.5492 71.4802 13.4381 70.3072 11.7861C70.1753 11.5987 70.0573 11.4182 69.9462 11.2586C69.2313 10.1896 68.9884 9.8287 66.7325 9.8287H53.218C53.1069 9.8287 50.0459 10.0092 50.0459 14.2572V32.3528C50.0459 32.3528 50.1222 33.5883 49.3795 34.3866C48.9631 34.8308 48.4008 35.0529 47.6998 35.0529H15.222C15.1665 35.0529 11.8278 34.9558 9.44694 37.2463C7.82271 38.8151 6.99671 41.1334 6.99671 44.1389V80.1359C6.99671 80.1845 6.98282 81.3992 5.76118 82.3154C5.43494 82.5514 5.22671 82.6486 5.074 82.7111C4.92824 82.7735 4.85188 82.8082 4.68529 82.9748L1.24941 86.4107C1.24941 86.4107 0.930118 86.7231 0.930118 87.2645V102.438C0.937059 102.521 1.08282 103.59 2.42247 103.59H8.968C9.09988 103.583 10.5506 103.507 11.3141 104.27C11.7584 104.715 12.2442 104.708 12.626 104.701H15.2636L15.3192 104.715C15.3053 104.715 15.7287 104.756 16.3465 104.132C17.0892 103.389 17.3946 102.174 17.3946 102.16L17.4293 102.008L17.5542 101.91C17.5542 101.91 17.7694 101.702 17.7694 101.202V84.1548C17.7694 84.1548 17.9221 83.1831 17.4501 82.6278C17.2141 82.3501 16.8532 82.2182 16.3534 82.2182C15.4858 82.2182 14.8541 82.01 14.4168 81.5727C13.688 80.8439 13.6949 79.6986 13.6949 78.3728V78.0952V46.4989C13.7991 44.9094 14.9235 41.9525 18.408 41.9525H47.8872C47.8872 41.9525 48.9422 41.9316 49.6294 42.591C50.0181 42.9659 50.2125 43.4726 50.2125 44.0903C50.2125 46.2491 49.5253 47.7414 48.38 48.0885C48.1371 48.1579 47.8594 48.1995 47.5609 48.2412C46.3879 48.4008 45.2773 48.5535 45.2773 50.4068L45.2495 63.1439C45.1662 63.3938 43.0978 69.2591 37.8086 69.2591C33.2621 69.2591 32.0613 71.1401 32.0613 72.1327V78.5533C32.0613 78.9628 31.7073 79.9138 28.4033 79.9138H22.3992C22.1354 79.8929 21.4829 79.9138 21.122 80.233C20.9276 80.4066 20.8305 80.6634 20.8305 81.0105V93.1714C20.886 93.3449 21.2747 94.2751 23.246 94.2751C26.5084 94.2751 31.1173 94.2126 31.1659 94.2126H31.2492L31.3255 94.2403C31.6518 94.3514 33.2691 94.9553 33.2691 96.0589V100.585C33.2691 100.661 33.3246 101.445 33.9354 101.445C35.8789 101.445 36.0872 102.528 36.0872 102.993C36.0872 103.111 36.0802 103.25 36.0733 103.396C36.0525 103.75 36.0178 104.284 36.1844 104.458C36.2329 104.513 36.3301 104.534 36.462 104.534H40.4393V106.158L41.4805 108.609L41.5082 108.595Z" fill="#12569C"/>
<path d="M70.5154 100.987H37.7322C35.7054 100.987 34.0603 99.3421 34.0603 97.3153V75.8115C34.0603 73.7847 35.7054 72.1396 37.7322 72.1396H70.5154C72.5422 72.1396 74.1872 73.7847 74.1872 75.8115V97.3153C74.1872 99.3421 72.5422 100.987 70.5154 100.987ZM37.7322 72.5492C35.9344 72.5492 34.4698 74.0138 34.4698 75.8115V97.3153C34.4698 99.1131 35.9344 100.578 37.7322 100.578H70.5154C72.3131 100.578 73.7777 99.1131 73.7777 97.3153V75.8115C73.7777 74.0138 72.3131 72.5492 70.5154 72.5492H37.7322Z" fill="#12569C"/>
<path d="M62.1651 67.3641H62.1304C61.8659 67.3641 61.6515 67.5785 61.6515 67.8431V69.7033C61.6515 69.9678 61.8659 70.1822 62.1304 70.1822H62.1651C62.4296 70.1822 62.6441 69.9678 62.6441 69.7033V67.8431C62.6441 67.5785 62.4296 67.3641 62.1651 67.3641Z" fill="#12569C"/>
<path d="M59.8676 67.3641H59.8329C59.5684 67.3641 59.354 67.5785 59.354 67.8431V69.7033C59.354 69.9678 59.5684 70.1822 59.8329 70.1822H59.8676C60.1322 70.1822 60.3466 69.9678 60.3466 69.7033V67.8431C60.3466 67.5785 60.1322 67.3641 59.8676 67.3641Z" fill="#12569C"/>
<path d="M56.9107 67.9125H54.2453C53.7201 67.9125 53.2943 68.3382 53.2943 68.8634V69.1272C53.2943 69.6524 53.7201 70.0781 54.2453 70.0781H56.9107C57.4359 70.0781 57.8616 69.6524 57.8616 69.1272V68.8634C57.8616 68.3382 57.4359 67.9125 56.9107 67.9125Z" fill="#12569C"/>
<path d="M57.9519 53.8219H57.7784C56.5095 53.8219 55.4808 54.8505 55.4808 56.1194V60.6659C55.4808 61.9348 56.5095 62.9634 57.7784 62.9634H57.9519C59.2208 62.9634 60.2494 61.9348 60.2494 60.6659V56.1194C60.2494 54.8505 59.2208 53.8219 57.9519 53.8219Z" fill="#12569C"/>
<path d="M49.8585 53.8219H49.685C48.4161 53.8219 47.3875 54.8505 47.3875 56.1194V60.6659C47.3875 61.9348 48.4161 62.9634 49.685 62.9634H49.8585C51.1274 62.9634 52.156 61.9348 52.156 60.6659V56.1194C52.156 54.8505 51.1274 53.8219 49.8585 53.8219Z" fill="#12569C"/>
<path d="M65.8301 48.5605C66.6658 48.5605 67.3432 47.883 67.3432 47.0473C67.3432 46.2116 66.6658 45.5341 65.8301 45.5341C64.9944 45.5341 64.3169 46.2116 64.3169 47.0473C64.3169 47.883 64.9944 48.5605 65.8301 48.5605Z" fill="#12569C"/>
<path d="M65.8301 50.0042C64.1989 50.0042 62.8732 48.6785 62.8732 47.0473C62.8732 45.4161 64.1989 44.0904 65.8301 44.0904C67.4613 44.0904 68.787 45.4161 68.787 47.0473C68.787 48.6785 67.4613 50.0042 65.8301 50.0042ZM65.8301 44.7845C64.5807 44.7845 63.5673 45.7979 63.5673 47.0473C63.5673 48.2967 64.5807 49.3101 65.8301 49.3101C67.0795 49.3101 68.0929 48.2967 68.0929 47.0473C68.0929 45.7979 67.0795 44.7845 65.8301 44.7845Z" fill="#12569C"/>
<path d="M67.3434 42.4731C67.9337 42.4731 68.4123 41.9945 68.4123 41.4041C68.4123 40.8138 67.9337 40.3352 67.3434 40.3352C66.753 40.3352 66.2744 40.8138 66.2744 41.4041C66.2744 41.9945 66.753 42.4731 67.3434 42.4731Z" fill="#12569C"/>
<path d="M48.2689 53.0514C48.8593 53.0514 49.3378 52.5728 49.3378 51.9825C49.3378 51.3921 48.8593 50.9135 48.2689 50.9135C47.6785 50.9135 47.2 51.3921 47.2 51.9825C47.2 52.5728 47.6785 53.0514 48.2689 53.0514Z" fill="#12569C"/>
<path d="M43.7641 70.3072C44.3545 70.3072 44.8331 69.8286 44.8331 69.2382C44.8331 68.6479 44.3545 68.1693 43.7641 68.1693C43.1738 68.1693 42.6952 68.6479 42.6952 69.2382C42.6952 69.8286 43.1738 70.3072 43.7641 70.3072Z" fill="#12569C"/>
<path d="M53.7663 15.2914C52.7876 15.2914 51.9894 14.4932 51.9894 13.5145C51.9894 12.5358 52.7876 11.7375 53.7663 11.7375C54.745 11.7375 55.5433 12.5358 55.5433 13.5145C55.5433 14.4932 54.745 15.2914 53.7663 15.2914ZM53.7663 12.1609C53.0167 12.1609 52.4058 12.7718 52.4058 13.5214C52.4058 14.2711 53.0167 14.8819 53.7663 14.8819C54.516 14.8819 55.1268 14.2711 55.1268 13.5214C55.1268 12.7718 54.516 12.1609 53.7663 12.1609Z" fill="#12569C"/>
<path d="M94.865 16.6519H88.4445V22.7115H94.865V16.6519Z" fill="#12569C"/>
<path d="M94.865 24.0165H88.4445V30.0761H94.865V24.0165Z" fill="#12569C"/>
<path d="M87.0285 16.6519H80.6079V22.7115H87.0285V16.6519Z" fill="#12569C"/>
<path d="M87.0285 24.0165H80.6079V30.0761H87.0285V24.0165Z" fill="#12569C"/>
<path d="M77.9286 16.4436H73.7292C73.1159 16.4436 72.6187 16.9409 72.6187 17.5542V28.9655C72.6187 29.5789 73.1159 30.0761 73.7292 30.0761H77.9286C78.542 30.0761 79.0392 29.5789 79.0392 28.9655V17.5542C79.0392 16.9409 78.542 16.4436 77.9286 16.4436Z" fill="#12569C"/>
<path d="M73.7014 42.48H70.5709C70.1799 42.48 69.8629 42.797 69.8629 43.188V44.014C69.8629 44.405 70.1799 44.722 70.5709 44.722H73.7014C74.0924 44.722 74.4094 44.405 74.4094 44.014V43.188C74.4094 42.797 74.0924 42.48 73.7014 42.48Z" fill="#12569C"/>
<path d="M73.8125 47.3874H72.2507C72.0552 47.3874 71.8967 47.5459 71.8967 47.7414V48.1579C71.8967 48.3534 72.0552 48.5119 72.2507 48.5119H73.8125C74.008 48.5119 74.1665 48.3534 74.1665 48.1579V47.7414C74.1665 47.5459 74.008 47.3874 73.8125 47.3874Z" fill="#12569C"/>
<g opacity="0.63">
<path d="M73.3127 60.1939H68.8079C68.2022 60.1939 67.7112 60.6849 67.7112 61.2906V67.6765C67.7112 68.2822 68.2022 68.7732 68.8079 68.7732H73.3127C73.9184 68.7732 74.4094 68.2822 74.4094 67.6765V61.2906C74.4094 60.6849 73.9184 60.1939 73.3127 60.1939Z" fill="#12569C"/>
</g>
<path d="M73.4515 60.5062H73.4238C73.2743 60.5062 73.1531 60.6274 73.1531 60.7769V61.0407C73.1531 61.1902 73.2743 61.3114 73.4238 61.3114H73.4515C73.6011 61.3114 73.7223 61.1902 73.7223 61.0407V60.7769C73.7223 60.6274 73.6011 60.5062 73.4515 60.5062Z" fill="white"/>
<path d="M73.4515 61.7418H73.4238C73.2743 61.7418 73.1531 61.863 73.1531 62.0125V62.2762C73.1531 62.4257 73.2743 62.5469 73.4238 62.5469H73.4515C73.6011 62.5469 73.7223 62.4257 73.7223 62.2762V62.0125C73.7223 61.863 73.6011 61.7418 73.4515 61.7418Z" fill="white"/>
<path d="M73.4515 62.9773H73.4238C73.2743 62.9773 73.1531 63.0985 73.1531 63.248V63.5118C73.1531 63.6613 73.2743 63.7825 73.4238 63.7825H73.4515C73.6011 63.7825 73.7223 63.6613 73.7223 63.5118V63.248C73.7223 63.0985 73.6011 62.9773 73.4515 62.9773Z" fill="white"/>
<path d="M72.2645 60.5062H72.2368C72.0873 60.5062 71.9661 60.6274 71.9661 60.7769V61.0407C71.9661 61.1902 72.0873 61.3114 72.2368 61.3114H72.2645C72.414 61.3114 72.5352 61.1902 72.5352 61.0407V60.7769C72.5352 60.6274 72.414 60.5062 72.2645 60.5062Z" fill="white"/>
<path d="M72.2645 61.7418H72.2368C72.0873 61.7418 71.9661 61.863 71.9661 62.0125V62.2762C71.9661 62.4257 72.0873 62.5469 72.2368 62.5469H72.2645C72.414 62.5469 72.5352 62.4257 72.5352 62.2762V62.0125C72.5352 61.863 72.414 61.7418 72.2645 61.7418Z" fill="white"/>
<path d="M72.2645 62.9773H72.2368C72.0873 62.9773 71.9661 63.0985 71.9661 63.248V63.5118C71.9661 63.6613 72.0873 63.7825 72.2368 63.7825H72.2645C72.414 63.7825 72.5352 63.6613 72.5352 63.5118V63.248C72.5352 63.0985 72.414 62.9773 72.2645 62.9773Z" fill="white"/>
<path d="M69.8352 60.5062H69.8074C69.6579 60.5062 69.5367 60.6274 69.5367 60.7769V61.0407C69.5367 61.1902 69.6579 61.3114 69.8074 61.3114H69.8352C69.9847 61.3114 70.1059 61.1902 70.1059 61.0407V60.7769C70.1059 60.6274 69.9847 60.5062 69.8352 60.5062Z" fill="white"/>
<path d="M69.8352 61.7418H69.8074C69.6579 61.7418 69.5367 61.863 69.5367 62.0125V62.2762C69.5367 62.4257 69.6579 62.5469 69.8074 62.5469H69.8352C69.9847 62.5469 70.1059 62.4257 70.1059 62.2762V62.0125C70.1059 61.863 69.9847 61.7418 69.8352 61.7418Z" fill="white"/>
<path d="M69.8352 62.9773H69.8074C69.6579 62.9773 69.5367 63.0985 69.5367 63.248V63.5118C69.5367 63.6613 69.6579 63.7825 69.8074 63.7825H69.8352C69.9847 63.7825 70.1059 63.6613 70.1059 63.5118V63.248C70.1059 63.0985 69.9847 62.9773 69.8352 62.9773Z" fill="white"/>
<path d="M68.5441 60.5062H68.5163C68.3668 60.5062 68.2456 60.6274 68.2456 60.7769V61.0407C68.2456 61.1902 68.3668 61.3114 68.5163 61.3114H68.5441C68.6936 61.3114 68.8148 61.1902 68.8148 61.0407V60.7769C68.8148 60.6274 68.6936 60.5062 68.5441 60.5062Z" fill="white"/>
<path d="M68.5441 61.7418H68.5163C68.3668 61.7418 68.2456 61.863 68.2456 62.0125V62.2762C68.2456 62.4257 68.3668 62.5469 68.5163 62.5469H68.5441C68.6936 62.5469 68.8148 62.4257 68.8148 62.2762V62.0125C68.8148 61.863 68.6936 61.7418 68.5441 61.7418Z" fill="white"/>
<path d="M68.5441 62.9773H68.5163C68.3668 62.9773 68.2456 63.0985 68.2456 63.248V63.5118C68.2456 63.6613 68.3668 63.7825 68.5163 63.7825H68.5441C68.6936 63.7825 68.8148 63.6613 68.8148 63.5118V63.248C68.8148 63.0985 68.6936 62.9773 68.5441 62.9773Z" fill="white"/>
<path d="M73.4515 65.2956H73.4238C73.2743 65.2956 73.1531 65.4168 73.1531 65.5664V65.8301C73.1531 65.9796 73.2743 66.1008 73.4238 66.1008H73.4515C73.6011 66.1008 73.7223 65.9796 73.7223 65.8301V65.5664C73.7223 65.4168 73.6011 65.2956 73.4515 65.2956Z" fill="white"/>
<path d="M73.4515 66.5312H73.4238C73.2743 66.5312 73.1531 66.6524 73.1531 66.8019V67.0656C73.1531 67.2152 73.2743 67.3364 73.4238 67.3364H73.4515C73.6011 67.3364 73.7223 67.2152 73.7223 67.0656V66.8019C73.7223 66.6524 73.6011 66.5312 73.4515 66.5312Z" fill="white"/>
<path d="M73.4515 67.7667H73.4238C73.2743 67.7667 73.1531 67.8879 73.1531 68.0374V68.3012C73.1531 68.4507 73.2743 68.5719 73.4238 68.5719H73.4515C73.6011 68.5719 73.7223 68.4507 73.7223 68.3012V68.0374C73.7223 67.8879 73.6011 67.7667 73.4515 67.7667Z" fill="white"/>
<path d="M72.2645 65.2956H72.2368C72.0873 65.2956 71.9661 65.4168 71.9661 65.5664V65.8301C71.9661 65.9796 72.0873 66.1008 72.2368 66.1008H72.2645C72.414 66.1008 72.5352 65.9796 72.5352 65.8301V65.5664C72.5352 65.4168 72.414 65.2956 72.2645 65.2956Z" fill="white"/>
<path d="M72.2645 66.5312H72.2368C72.0873 66.5312 71.9661 66.6524 71.9661 66.8019V67.0656C71.9661 67.2152 72.0873 67.3364 72.2368 67.3364H72.2645C72.414 67.3364 72.5352 67.2152 72.5352 67.0656V66.8019C72.5352 66.6524 72.414 66.5312 72.2645 66.5312Z" fill="white"/>
<path d="M72.2645 67.7667H72.2368C72.0873 67.7667 71.9661 67.8879 71.9661 68.0374V68.3012C71.9661 68.4507 72.0873 68.5719 72.2368 68.5719H72.2645C72.414 68.5719 72.5352 68.4507 72.5352 68.3012V68.0374C72.5352 67.8879 72.414 67.7667 72.2645 67.7667Z" fill="white"/>
<path d="M69.8352 65.2956H69.8074C69.6579 65.2956 69.5367 65.4168 69.5367 65.5664V65.8301C69.5367 65.9796 69.6579 66.1008 69.8074 66.1008H69.8352C69.9847 66.1008 70.1059 65.9796 70.1059 65.8301V65.5664C70.1059 65.4168 69.9847 65.2956 69.8352 65.2956Z" fill="white"/>
<path d="M69.8352 66.5312H69.8074C69.6579 66.5312 69.5367 66.6524 69.5367 66.8019V67.0656C69.5367 67.2152 69.6579 67.3364 69.8074 67.3364H69.8352C69.9847 67.3364 70.1059 67.2152 70.1059 67.0656V66.8019C70.1059 66.6524 69.9847 66.5312 69.8352 66.5312Z" fill="white"/>
<path d="M69.8352 67.7667H69.8074C69.6579 67.7667 69.5367 67.8879 69.5367 68.0374V68.3012C69.5367 68.4507 69.6579 68.5719 69.8074 68.5719H69.8352C69.9847 68.5719 70.1059 68.4507 70.1059 68.3012V68.0374C70.1059 67.8879 69.9847 67.7667 69.8352 67.7667Z" fill="white"/>
<path d="M68.5441 65.2956H68.5163C68.3668 65.2956 68.2456 65.4168 68.2456 65.5664V65.8301C68.2456 65.9796 68.3668 66.1008 68.5163 66.1008H68.5441C68.6936 66.1008 68.8148 65.9796 68.8148 65.8301V65.5664C68.8148 65.4168 68.6936 65.2956 68.5441 65.2956Z" fill="white"/>
<path d="M68.5441 66.5312H68.5163C68.3668 66.5312 68.2456 66.6524 68.2456 66.8019V67.0656C68.2456 67.2152 68.3668 67.3364 68.5163 67.3364H68.5441C68.6936 67.3364 68.8148 67.2152 68.8148 67.0656V66.8019C68.8148 66.6524 68.6936 66.5312 68.5441 66.5312Z" fill="white"/>
<path d="M68.5441 67.7667H68.5163C68.3668 67.7667 68.2456 67.8879 68.2456 68.0374V68.3012C68.2456 68.4507 68.3668 68.5719 68.5163 68.5719H68.5441C68.6936 68.5719 68.8148 68.4507 68.8148 68.3012V68.0374C68.8148 67.8879 68.6936 67.7667 68.5441 67.7667Z" fill="white"/>
<path d="M15.6177 84.9461H3.43591V100.418H15.6177V84.9461Z" fill="#286499"/>
<g opacity="0.58">
<path d="M11.925 85.9248H7.5937C6.05263 85.9248 4.80334 87.1741 4.80334 88.7152V96.4546C4.80334 97.9957 6.05263 99.2449 7.5937 99.2449H11.925C13.4661 99.2449 14.7153 97.9957 14.7153 96.4546V88.7152C14.7153 87.1741 13.4661 85.9248 11.925 85.9248Z" fill="white"/>
</g>
<g opacity="0.58">
<path d="M11.6889 86.6328H7.82963C6.44957 86.6328 5.33081 87.7516 5.33081 89.1316V96.0381C5.33081 97.4182 6.44957 98.5369 7.82963 98.5369H11.6889C13.069 98.5369 14.1878 97.4182 14.1878 96.0381V89.1316C14.1878 87.7516 13.069 86.6328 11.6889 86.6328Z" fill="white"/>
</g>
<path d="M82.711 89.2011C80.6495 89.2011 78.9697 87.5213 78.9697 85.4598C78.9697 83.3982 80.6495 81.7185 82.711 81.7185C84.7726 81.7185 86.4523 83.3982 86.4523 85.4598C86.4523 87.5213 84.7726 89.2011 82.711 89.2011ZM82.711 82.6555C81.1701 82.6555 79.9068 83.9119 79.9068 85.4598C79.9068 87.0077 81.1631 88.264 82.711 88.264C84.2589 88.264 85.5153 87.0077 85.5153 85.4598C85.5153 83.9119 84.2589 82.6555 82.711 82.6555Z" fill="#12569C"/>
<path d="M25.6823 92.7688C23.6208 92.7688 21.941 91.0891 21.941 89.0275C21.941 86.966 23.6208 85.2862 25.6823 85.2862C27.7439 85.2862 29.4236 86.966 29.4236 89.0275C29.4236 91.0891 27.7439 92.7688 25.6823 92.7688ZM25.6823 86.2233C24.1414 86.2233 22.8781 87.4796 22.8781 89.0275C22.8781 90.5754 24.1345 91.8318 25.6823 91.8318C27.2302 91.8318 28.4866 90.5754 28.4866 89.0275C28.4866 87.4796 27.2302 86.2233 25.6823 86.2233Z" fill="#12569C"/>
<path d="M42.827 104.548H42.5633C42.3179 104.548 42.119 104.747 42.119 104.992V106.089C42.119 106.334 42.3179 106.533 42.5633 106.533H42.827C43.0724 106.533 43.2713 106.334 43.2713 106.089V104.992C43.2713 104.747 43.0724 104.548 42.827 104.548Z" fill="white"/>
<path d="M65.2679 104.548H64.9347C64.7085 104.548 64.5251 104.731 64.5251 104.958V106.124C64.5251 106.35 64.7085 106.533 64.9347 106.533H65.2679C65.494 106.533 65.6774 106.35 65.6774 106.124V104.958C65.6774 104.731 65.494 104.548 65.2679 104.548Z" fill="white"/>
<path d="M59.3055 104.548H58.9862C58.7562 104.548 58.5697 104.734 58.5697 104.964V105.284C58.5697 105.514 58.7562 105.7 58.9862 105.7H59.3055C59.5355 105.7 59.7219 105.514 59.7219 105.284V104.964C59.7219 104.734 59.5355 104.548 59.3055 104.548Z" fill="white"/>
<path d="M49.0047 104.548H48.6854C48.4554 104.548 48.2689 104.734 48.2689 104.964V105.284C48.2689 105.514 48.4554 105.7 48.6854 105.7H49.0047C49.2347 105.7 49.4212 105.514 49.4212 105.284V104.964C49.4212 104.734 49.2347 104.548 49.0047 104.548Z" fill="white"/>
</svg>
